Varta-Regular.ufo
<glyph name="dollar" format="1">
  <advance width="1017"/>
  <unicode hex="0024"/>
  <outline>
    <contour>
      <point x="867" y="1194" type="line" name="hr01"/>
      <point x="794" y="1271"/>
      <point x="708" y="1315"/>
      <point x="577" y="1329" type="curve"/>
      <point x="577" y="1532" type="line"/>
      <point x="455" y="1532" type="line"/>
      <point x="455" y="1327" type="line" name="hr02"/>
      <point x="276" y="1298"/>
      <point x="158" y="1167"/>
      <point x="158" y="986" type="curve" smooth="yes"/>
      <point x="158" y="586"/>
      <point x="730" y="658"/>
      <point x="730" y="326" type="curve" smooth="yes"/>
      <point x="730" y="198"/>
      <point x="653" y="113"/>
      <point x="502" y="113" type="curve" smooth="yes"/>
      <point x="377" y="113"/>
      <point x="271" y="155"/>
      <point x="184" y="231" type="curve"/>
      <point x="106" y="116" type="line"/>
      <point x="193" y="36"/>
      <point x="324" y="-10"/>
      <point x="455" y="-23" type="curve"/>
      <point x="455" y="-225" type="line"/>
      <point x="577" y="-225" type="line"/>
      <point x="577" y="-18" type="line" name="hr03"/>
      <point x="771" y="8"/>
      <point x="894" y="142"/>
      <point x="894" y="337" type="curve" smooth="yes"/>
      <point x="894" y="778"/>
      <point x="323" y="695"/>
      <point x="323" y="994" type="curve" smooth="yes"/>
      <point x="323" y="1113"/>
      <point x="402" y="1192"/>
      <point x="527" y="1192" type="curve" smooth="yes"/>
      <point x="639" y="1192"/>
      <point x="702" y="1168"/>
      <point x="778" y="1094" type="curve"/>
    </contour>
  </outline>
</glyph>
<glyph name="percent" format="1">
  <advance width="1687"/>
  <unicode hex="0025"/>
  <outline>
    <contour>
      <point x="377" y="520" type="curve" name="hr00" smooth="yes"/>
      <point x="559" y="520"/>
      <point x="681" y="676"/>
      <point x="681" y="946" type="curve" smooth="yes"/>
      <point x="681" y="1217"/>
      <point x="559" y="1368"/>
      <point x="377" y="1368" type="curve" smooth="yes"/>
      <point x="193" y="1368"/>
      <point x="72" y="1217"/>
      <point x="72" y="946" type="curve" smooth="yes"/>
      <point x="72" y="676"/>
      <point x="193" y="520"/>
    </contour>
    <contour>
      <point x="377" y="624" type="curve" smooth="yes"/>
      <point x="269" y="624"/>
      <point x="198" y="733"/>
      <point x="198" y="946" type="curve" smooth="yes"/>
      <point x="198" y="1161"/>
      <point x="269" y="1265"/>
      <point x="377" y="1265" type="curve" smooth="yes"/>
      <point x="481" y="1265"/>
      <point x="554" y="1161"/>
      <point x="554" y="946" type="curve" smooth="yes"/>
      <point x="554" y="733"/>
      <point x="481" y="624"/>
    </contour>
    <contour>
      <point x="527" y="-25" type="line"/>
      <point x="1269" y="1368" type="line"/>
      <point x="1157" y="1368" type="line"/>
      <point x="416" y="-25" type="line"/>
    </contour>
    <contour>
      <point x="1312" y="-25" type="curve" smooth="yes"/>
      <point x="1494" y="-25"/>
      <point x="1617" y="129"/>
      <point x="1617" y="401" type="curve" smooth="yes"/>
      <point x="1617" y="670"/>
      <point x="1494" y="823"/>
      <point x="1312" y="823" type="curve" smooth="yes"/>
      <point x="1127" y="823"/>
      <point x="1008" y="670"/>
      <point x="1008" y="401" type="curve" smooth="yes"/>
      <point x="1008" y="129"/>
      <point x="1127" y="-25"/>
    </contour>
    <contour>
      <point x="1312" y="79" type="curve" smooth="yes"/>
      <point x="1207" y="79"/>
      <point x="1133" y="188"/>
      <point x="1133" y="401" type="curve" smooth="yes"/>
      <point x="1133" y="614"/>
      <point x="1207" y="720"/>
      <point x="1312" y="720" type="curve" smooth="yes"/>
      <point x="1417" y="720"/>
      <point x="1489" y="614"/>
      <point x="1489" y="401" type="curve" smooth="yes"/>
      <point x="1489" y="188"/>
      <point x="1417" y="79"/>
    </contour>
  </outline>
</glyph>
<glyph name="parenleft" format="1">
  <advance width="619"/>
  <unicode hex="0028"/>
  <outline>
    <contour>
      <point x="438" y="-360" type="curve" name="hr00"/>
      <point x="542" y="-311" type="line"/>
      <point x="384" y="-51"/>
      <point x="310" y="239"/>
      <point x="310" y="566" type="curve" smooth="yes"/>
      <point x="310" y="895"/>
      <point x="384" y="1190"/>
      <point x="542" y="1450" type="curve"/>
      <point x="438" y="1499" type="line"/>
      <point x="268" y="1225"/>
      <point x="168" y="946"/>
      <point x="168" y="566" type="curve" smooth="yes"/>
      <point x="168" y="188"/>
      <point x="268" y="-86"/>
    </contour>
  </outline>
</glyph>
<glyph name="asterisk" format="1">
  <advance width="854"/>
  <unicode hex="002A"/>
  <outline>
    <contour>
      <point x="283" y="862" type="line" name="hr00"/>
      <point x="427" y="1038" type="line"/>
      <point x="572" y="862" type="line"/>
      <point x="651" y="922" type="line"/>
      <point x="538" y="1113" type="line"/>
      <point x="735" y="1195" type="line"/>
      <point x="705" y="1288" type="line"/>
      <point x="495" y="1239" type="line"/>
      <point x="476" y="1458" type="line"/>
      <point x="377" y="1458" type="line"/>
      <point x="358" y="1237" type="line"/>
      <point x="150" y="1288" type="line"/>
      <point x="120" y="1195" type="line"/>
      <point x="317" y="1113" type="line"/>
      <point x="201" y="922" type="line"/>
    </contour>
  </outline>
</glyph>
<glyph name="comma" format="1">
  <advance width="508"/>
  <unicode hex="002C"/>
  <outline>
    <contour>
      <point x="137" y="-367" type="line" name="hr00"/>
      <point x="302" y="-298"/>
      <point x="404" y="-141"/>
      <point x="404" y="35" type="curve" smooth="yes"/>
      <point x="404" y="157"/>
      <point x="351" y="231"/>
      <point x="263" y="231" type="curve" smooth="yes"/>
      <point x="197" y="231"/>
      <point x="139" y="187"/>
      <point x="139" y="114" type="curve" smooth="yes"/>
      <point x="139" y="39"/>
      <point x="195" y="-2"/>
      <point x="259" y="-2" type="curve" smooth="yes"/>
      <point x="265" y="-2"/>
      <point x="273" y="-2"/>
      <point x="280" y="0" type="curve"/>
      <point x="280" y="-111"/>
      <point x="210" y="-219"/>
      <point x="96" y="-270" type="curve"/>
    </contour>
  </outline>
</glyph>
<glyph name="hyphen" format="1">
  <advance width="636"/>
  <unicode hex="002D"/>
  <outline>
    <contour>
      <point x="84" y="450" type="line" name="hr00"/>
      <point x="554" y="450" type="line"/>
      <point x="554" y="577" type="line"/>
      <point x="84" y="577" type="line"/>
    </contour>
  </outline>
</glyph>
<glyph name="question" format="1">
  <advance width="868"/>
  <unicode hex="003F"/>
  <outline>
    <contour>
      <point x="328" y="405" type="curve" name="hr01"/>
      <point x="473" y="405" type="line"/>
      <point x="434" y="704"/>
      <point x="771" y="760"/>
      <point x="771" y="1070" type="curve" smooth="yes"/>
      <point x="771" y="1295"/>
      <point x="641" y="1397"/>
      <point x="419" y="1397" type="curve" smooth="yes"/>
      <point x="282" y="1397"/>
      <point x="156" y="1336"/>
      <point x="70" y="1238" type="curve"/>
      <point x="165" y="1141" type="line"/>
      <point x="229" y="1214"/>
      <point x="309" y="1256"/>
      <point x="405" y="1256" type="curve" smooth="yes"/>
      <point x="544" y="1256"/>
      <point x="608" y="1197"/>
      <point x="608" y="1064" type="curve" smooth="yes"/>
      <point x="608" y="802"/>
      <point x="281" y="749"/>
    </contour>
    <contour>
      <point x="285" y="101" type="curve" name="hr02" smooth="yes"/>
      <point x="285" y="29"/>
      <point x="338" y="-25"/>
      <point x="405" y="-25" type="curve" smooth="yes"/>
      <point x="472" y="-25"/>
      <point x="526" y="29"/>
      <point x="526" y="101" type="curve" smooth="yes"/>
      <point x="526" y="179"/>
      <point x="472" y="231"/>
      <point x="405" y="231" type="curve" smooth="yes"/>
      <point x="338" y="231"/>
      <point x="285" y="179"/>
    </contour>
  </outline>
</glyph>
<glyph name="at" format="1">
  <advance width="1733"/>
  <unicode hex="0040"/>
  <outline>
    <contour>
      <point x="104" y="462" type="curve" name="hr01" smooth="yes"/>
      <point x="104" y="-15"/>
      <point x="423" y="-271"/>
      <point x="824" y="-271" type="curve" smooth="yes"/>
      <point x="966" y="-271"/>
      <point x="1095" y="-239"/>
      <point x="1213" y="-167" type="curve"/>
      <point x="1168" y="-68" type="line"/>
      <point x="1076" y="-121"/>
      <point x="962" y="-160"/>
      <point x="837" y="-160" type="curve" smooth="yes"/>
      <point x="488" y="-160"/>
      <point x="226" y="69"/>
      <point x="226" y="468" type="curve" smooth="yes"/>
      <point x="226" y="947"/>
      <point x="579" y="1256"/>
      <point x="943" y="1256" type="curve" smooth="yes"/>
      <point x="1316" y="1256"/>
      <point x="1510" y="1015"/>
      <point x="1510" y="685" type="curve" smooth="yes"/>
      <point x="1510" y="418"/>
      <point x="1374" y="260"/>
      <point x="1245" y="260" type="curve" smooth="yes"/>
      <point x="1131" y="260"/>
      <point x="1092" y="338"/>
      <point x="1133" y="501" type="curve"/>
      <point x="1213" y="909" type="line"/>
      <point x="1102" y="909" type="line"/>
      <point x="1079" y="827" type="line"/>
      <point x="1075" y="827" type="line"/>
      <point x="1038" y="895"/>
      <point x="981" y="926"/>
      <point x="911" y="926" type="curve" smooth="yes"/>
      <point x="672" y="926"/>
      <point x="519" y="670"/>
      <point x="519" y="452" type="curve" smooth="yes"/>
      <point x="519" y="265"/>
      <point x="625" y="163"/>
      <point x="764" y="163" type="curve" name="hr02" smooth="yes"/>
      <point x="854" y="163"/>
      <point x="946" y="222"/>
      <point x="1014" y="302" type="curve"/>
      <point x="1018" y="302" type="line"/>
      <point x="1032" y="200"/>
      <point x="1118" y="146"/>
      <point x="1229" y="146" type="curve" name="hr03" smooth="yes"/>
      <point x="1414" y="146"/>
      <point x="1628" y="333"/>
      <point x="1628" y="691" type="curve" smooth="yes"/>
      <point x="1628" y="1095"/>
      <point x="1371" y="1368"/>
      <point x="957" y="1368" type="curve" smooth="yes"/>
      <point x="500" y="1368"/>
      <point x="104" y="1010"/>
    </contour>
    <contour>
      <point x="652" y="462" type="curve" name="hr04" smooth="yes"/>
      <point x="652" y="615"/>
      <point x="751" y="811"/>
      <point x="913" y="811" type="curve" smooth="yes"/>
      <point x="969" y="811"/>
      <point x="1005" y="788"/>
      <point x="1045" y="724" type="curve"/>
      <point x="986" y="397" type="line"/>
      <point x="915" y="313"/>
      <point x="854" y="276"/>
      <point x="796" y="276" type="curve" smooth="yes"/>
      <point x="714" y="276"/>
      <point x="652" y="330"/>
    </contour>
  </outline>
</glyph>
<glyph name="D" format="1">
  <advance width="1252"/>
  <unicode hex="0044"/>
  <outline>
    <contour>
      <point x="178" y="0" type="line" name="hr00"/>
      <point x="526" y="0" type="line"/>
      <point x="933" y="0"/>
      <point x="1147" y="241"/>
      <point x="1147" y="679" type="curve" smooth="yes"/>
      <point x="1147" y="1115"/>
      <point x="942" y="1343"/>
      <point x="528" y="1343" type="curve" smooth="yes"/>
      <point x="178" y="1343" type="line"/>
    </contour>
    <contour>
      <point x="348" y="137" type="line"/>
      <point x="348" y="1206" type="line"/>
      <point x="516" y="1206" type="line"/>
      <point x="833" y="1206"/>
      <point x="974" y="1026"/>
      <point x="974" y="679" type="curve" smooth="yes"/>
      <point x="974" y="331"/>
      <point x="823" y="137"/>
      <point x="507" y="137" type="curve" smooth="yes"/>
    </contour>
    <contour>
      <point x="662" y="1050" type="move" name="top"/>
    </contour>
  </outline>
</glyph>
<glyph name="F" format="1">
  <advance width="999"/>
  <unicode hex="0046"/>
  <outline>
    <contour>
      <point x="178" y="0" type="line" name="hr00"/>
      <point x="348" y="0" type="line"/>
      <point x="348" y="603" type="line"/>
      <point x="861" y="603" type="line"/>
      <point x="861" y="745" type="line"/>
      <point x="348" y="745" type="line"/>
      <point x="348" y="1202" type="line"/>
      <point x="953" y="1202" type="line"/>
      <point x="953" y="1343" type="line"/>
      <point x="178" y="1343" type="line"/>
    </contour>
    <contour>
      <point x="565" y="1050" type="move" name="top"/>
    </contour>
  </outline>
</glyph>
<glyph name="N" format="1">
  <advance width="1314"/>
  <unicode hex="004E"/>
  <outline>
    <contour>
      <point x="178" y="0" type="line" name="hr01"/>
      <point x="338" y="0" type="line"/>
      <point x="338" y="705" type="line"/>
      <point x="338" y="847"/>
      <point x="327" y="990"/>
      <point x="318" y="1125" type="curve" name="hr02"/>
      <point x="327" y="1125" type="line"/>
      <point x="472" y="849" type="line"/>
      <point x="959" y="0" type="line"/>
      <point x="1134" y="0" type="line"/>
      <point x="1134" y="1343" type="line"/>
      <point x="974" y="1343" type="line"/>
      <point x="974" y="646" type="line"/>
      <point x="974" y="505"/>
      <point x="988" y="354"/>
      <point x="996" y="219" type="curve" name="hr03"/>
      <point x="988" y="219" type="line"/>
      <point x="842" y="497" type="line"/>
      <point x="352" y="1343" type="line"/>
      <point x="178" y="1343" type="line"/>
    </contour>
    <contour>
      <point x="656" y="1050" type="move" name="top"/>
    </contour>
  </outline>
</glyph>
<glyph name="Q" format="1">
  <advance width="1349"/>
  <unicode hex="0051"/>
  <outline>
    <contour>
      <point x="272" y="678" type="curve" name="hr01" smooth="yes"/>
      <point x="272" y="1022"/>
      <point x="421" y="1221"/>
      <point x="671" y="1221" type="curve" smooth="yes"/>
      <point x="919" y="1221"/>
      <point x="1070" y="1022"/>
      <point x="1070" y="678" type="curve" smooth="yes"/>
      <point x="1070" y="333"/>
      <point x="919" y="123"/>
      <point x="671" y="123" type="curve" smooth="yes"/>
      <point x="421" y="123"/>
      <point x="272" y="333"/>
    </contour>
    <contour>
      <point x="1242" y="-173" type="line"/>
      <point x="1205" y="-183"/>
      <point x="1150" y="-194"/>
      <point x="1091" y="-194" type="curve" smooth="yes"/>
      <point x="945" y="-194"/>
      <point x="813" y="-136"/>
      <point x="770" y="-16" type="curve"/>
      <point x="1056" y="32"/>
      <point x="1246" y="281"/>
      <point x="1246" y="678" type="curve" smooth="yes"/>
      <point x="1246" y="1117"/>
      <point x="1020" y="1368"/>
      <point x="671" y="1368" type="curve" smooth="yes"/>
      <point x="320" y="1368"/>
      <point x="98" y="1119"/>
      <point x="98" y="678" type="curve" smooth="yes"/>
      <point x="98" y="273"/>
      <point x="295" y="23"/>
      <point x="588" y="-18" type="curve"/>
      <point x="656" y="-203"/>
      <point x="826" y="-336"/>
      <point x="1073" y="-336" type="curve" smooth="yes"/>
      <point x="1152" y="-336"/>
      <point x="1234" y="-319"/>
      <point x="1275" y="-305" type="curve"/>
    </contour>
    <contour>
      <point x="686" y="1050" type="move" name="top"/>
    </contour>
  </outline>
</glyph>
<glyph name="S" format="1">
  <advance width="1082"/>
  <unicode hex="0053"/>
  <outline>
    <contour>
      <point x="86" y="164" type="line" name="hr00"/>
      <point x="203" y="43"/>
      <point x="362" y="-25"/>
      <point x="551" y="-25" type="curve" smooth="yes"/>
      <point x="833" y="-25"/>
      <point x="1009" y="142"/>
      <point x="1009" y="355" type="curve" smooth="yes"/>
      <point x="1009" y="554"/>
      <point x="880" y="648"/>
      <point x="724" y="716" type="curve" smooth="yes"/>
      <point x="532" y="799" type="line"/>
      <point x="427" y="844"/>
      <point x="311" y="903"/>
      <point x="311" y="1032" type="curve" smooth="yes"/>
      <point x="311" y="1154"/>
      <point x="417" y="1221"/>
      <point x="569" y="1221" type="curve" smooth="yes"/>
      <point x="692" y="1221"/>
      <point x="789" y="1180"/>
      <point x="870" y="1103" type="curve"/>
      <point x="960" y="1212" type="line"/>
      <point x="865" y="1310"/>
      <point x="729" y="1368"/>
      <point x="569" y="1368" type="curve" smooth="yes"/>
      <point x="326" y="1368"/>
      <point x="141" y="1227"/>
      <point x="141" y="1023" type="curve" smooth="yes"/>
      <point x="141" y="825"/>
      <point x="286" y="720"/>
      <point x="411" y="667" type="curve" smooth="yes"/>
      <point x="603" y="583" type="line"/>
      <point x="730" y="525"/>
      <point x="837" y="479"/>
      <point x="837" y="341" type="curve" smooth="yes"/>
      <point x="837" y="209"/>
      <point x="731" y="123"/>
      <point x="555" y="123" type="curve" smooth="yes"/>
      <point x="413" y="123"/>
      <point x="284" y="182"/>
      <point x="187" y="282" type="curve"/>
    </contour>
    <contour>
      <point x="547" y="1050" type="move" name="top"/>
    </contour>
  </outline>
</glyph>
<glyph name="V" format="1">
  <advance width="1042"/>
  <unicode hex="0056"/>
  <outline>
    <contour>
      <point x="425" y="0" type="line" name="hr00"/>
      <point x="621" y="0" type="line"/>
      <point x="1047" y="1343" type="line"/>
      <point x="875" y="1343" type="line"/>
      <point x="659" y="617" type="line"/>
      <point x="613" y="457"/>
      <point x="579" y="330"/>
      <point x="529" y="172" type="curve"/>
      <point x="521" y="172" type="line"/>
      <point x="472" y="330"/>
      <point x="439" y="457"/>
      <point x="392" y="617" type="curve" smooth="yes"/>
      <point x="174" y="1343" type="line"/>
      <point x="-4" y="1343" type="line"/>
    </contour>
    <contour>
      <point x="521" y="1050" type="move" name="top"/>
    </contour>
  </outline>
</glyph>
<glyph name="X" format="1">
  <advance width="1038"/>
  <unicode hex="0058"/>
  <outline>
    <contour>
      <point x="27" y="0" type="line" name="hr00"/>
      <point x="203" y="0" type="line"/>
      <point x="398" y="363" type="line"/>
      <point x="433" y="429"/>
      <point x="466" y="497"/>
      <point x="505" y="579" type="curve"/>
      <point x="513" y="579" type="line"/>
      <point x="556" y="497"/>
      <point x="593" y="429"/>
      <point x="628" y="363" type="curve" smooth="yes"/>
      <point x="827" y="0" type="line"/>
      <point x="1014" y="0" type="line"/>
      <point x="623" y="686" type="line"/>
      <point x="987" y="1343" type="line"/>
      <point x="809" y="1343" type="line"/>
      <point x="630" y="998" type="line"/>
      <point x="597" y="937"/>
      <point x="572" y="882"/>
      <point x="536" y="804" type="curve"/>
      <point x="527" y="804" type="line"/>
      <point x="484" y="882"/>
      <point x="456" y="937"/>
      <point x="423" y="998" type="curve" smooth="yes"/>
      <point x="238" y="1343" type="line"/>
      <point x="51" y="1343" type="line"/>
      <point x="418" y="694" type="line"/>
    </contour>
    <contour>
      <point x="520" y="1050" type="move" name="top"/>
    </contour>
  </outline>
</glyph>
<glyph name="Z" format="1">
  <advance width="1093"/>
  <unicode hex="005A"/>
  <outline>
    <contour>
      <point x="86" y="0" type="line" name="hr00"/>
      <point x="1012" y="0" type="line"/>
      <point x="1012" y="143" type="line"/>
      <point x="295" y="143" type="line"/>
      <point x="1006" y="1244" type="line"/>
      <point x="1006" y="1343" type="line"/>
      <point x="150" y="1343" type="line"/>
      <point x="150" y="1202" type="line"/>
      <point x="797" y="1202" type="line"/>
      <point x="86" y="101" type="line"/>
    </contour>
    <contour>
      <point x="549" y="1050" type="move" name="top"/>
    </contour>
  </outline>
</glyph>
<glyph name="d" format="1">
  <advance width="1136"/>
  <unicode hex="0064"/>
  <outline>
    <contour>
      <point x="96" y="498" type="curve" name="hr01" smooth="yes"/>
      <point x="96" y="152"/>
      <point x="261" y="-25"/>
      <point x="508" y="-25" type="curve" smooth="yes"/>
      <point x="626" y="-25"/>
      <point x="732" y="41"/>
      <point x="810" y="117" type="curve"/>
      <point x="816" y="117" type="line"/>
      <point x="829" y="0" type="line" name="hr02"/>
      <point x="968" y="0" type="line"/>
      <point x="968" y="1458" type="line"/>
      <point x="800" y="1458" type="line"/>
      <point x="800" y="1075" type="line"/>
      <point x="808" y="905" type="line"/>
      <point x="720" y="977"/>
      <point x="643" y="1020"/>
      <point x="528" y="1020" type="curve" smooth="yes"/>
      <point x="291" y="1020"/>
      <point x="96" y="834"/>
    </contour>
    <contour>
      <point x="265" y="500" type="curve" smooth="yes"/>
      <point x="265" y="737"/>
      <point x="386" y="880"/>
      <point x="557" y="880" type="curve" smooth="yes"/>
      <point x="639" y="880"/>
      <point x="715" y="851"/>
      <point x="800" y="775" type="curve"/>
      <point x="800" y="253" type="line"/>
      <point x="717" y="161"/>
      <point x="637" y="115"/>
      <point x="545" y="115" type="curve" smooth="yes"/>
      <point x="360" y="115"/>
      <point x="265" y="252"/>
    </contour>
    <contour>
      <point x="532" y="1050" type="move" name="top"/>
    </contour>
  </outline>
</glyph>
<glyph name="j" format="1">
  <advance width="505"/>
  <unicode hex="006A"/>
  <outline>
    <contour>
      <point x="170" y="-120" type="line" name="hr01"/>
      <point x="170" y="-241"/>
      <point x="146" y="-309"/>
      <point x="47" y="-309" type="curve" smooth="yes"/>
      <point x="12" y="-309"/>
      <point x="-23" y="-301"/>
      <point x="-47" y="-293" type="curve"/>
      <point x="-82" y="-419" type="line"/>
      <point x="-47" y="-433"/>
      <point x="4" y="-445"/>
      <point x="66" y="-445" type="curve" smooth="yes"/>
      <point x="263" y="-445"/>
      <point x="337" y="-322"/>
      <point x="337" y="-121" type="curve" smooth="yes"/>
      <point x="337" y="995" type="line"/>
      <point x="170" y="995" type="line"/>
    </contour>
    <contour>
      <point x="255" y="1201" type="curve" name="hr02" smooth="yes"/>
      <point x="318" y="1201"/>
      <point x="370" y="1245"/>
      <point x="370" y="1309" type="curve" smooth="yes"/>
      <point x="370" y="1373"/>
      <point x="318" y="1416"/>
      <point x="255" y="1416" type="curve" smooth="yes"/>
      <point x="190" y="1416"/>
      <point x="139" y="1373"/>
      <point x="139" y="1309" type="curve" smooth="yes"/>
      <point x="139" y="1245"/>
      <point x="190" y="1201"/>
    </contour>
    <contour>
      <point x="144" y="1050" type="move" name="top"/>
    </contour>
  </outline>
</glyph>
<glyph name="l" format="1">
  <advance width="521"/>
  <unicode hex="006C"/>
  <outline>
    <contour>
      <point x="169" y="199" type="line" name="hr01"/>
      <point x="169" y="54"/>
      <point x="219" y="-25"/>
      <point x="345" y="-25" type="curve" name="hr02" smooth="yes"/>
      <point x="390" y="-25"/>
      <point x="418" y="-18"/>
      <point x="440" y="-8" type="curve"/>
      <point x="418" y="117" type="line" name="hr03"/>
      <point x="399" y="113"/>
      <point x="391" y="113"/>
      <point x="381" y="113" type="curve" smooth="yes"/>
      <point x="356" y="113"/>
      <point x="335" y="133"/>
      <point x="335" y="186" type="curve" smooth="yes"/>
      <point x="335" y="1458" type="line"/>
      <point x="169" y="1458" type="line"/>
    </contour>
    <contour>
      <point x="304" y="1050" type="move" name="top"/>
    </contour>
  </outline>
</glyph>
<glyph name="t" format="1">
  <advance width="690"/>
  <unicode hex="0074"/>
  <outline>
    <contour>
      <point x="197" y="306" type="line" name="hr00"/>
      <point x="197" y="111"/>
      <point x="268" y="-25"/>
      <point x="480" y="-25" type="curve" smooth="yes"/>
      <point x="542" y="-25"/>
      <point x="609" y="-6"/>
      <point x="665" y="12" type="curve"/>
      <point x="632" y="138" type="line"/>
      <point x="599" y="126"/>
      <point x="554" y="112"/>
      <point x="519" y="112" type="curve" smooth="yes"/>
      <point x="404" y="112"/>
      <point x="365" y="181"/>
      <point x="365" y="304" type="curve" smooth="yes"/>
      <point x="365" y="859" type="line"/>
      <point x="634" y="859" type="line"/>
      <point x="634" y="995" type="line"/>
      <point x="365" y="995" type="line"/>
      <point x="365" y="1274" type="line"/>
      <point x="225" y="1274" type="line"/>
      <point x="205" y="995" type="line"/>
      <point x="49" y="985" type="line"/>
      <point x="49" y="859" type="line"/>
      <point x="197" y="859" type="line"/>
    </contour>
    <contour>
      <point x="357" y="1050" type="move" name="top"/>
    </contour>
  </outline>
</glyph>
<glyph name="u" format="1">
  <advance width="1113"/>
  <unicode hex="0075"/>
  <outline>
    <contour>
      <point x="155" y="361" type="line" name="hr01"/>
      <point x="155" y="107"/>
      <point x="239" y="-25"/>
      <point x="459" y="-25" type="curve" smooth="yes"/>
      <point x="606" y="-25"/>
      <point x="694" y="47"/>
      <point x="786" y="156" type="curve"/>
      <point x="793" y="156" type="line"/>
      <point x="807" y="0" type="line" name="hr02"/>
      <point x="945" y="0" type="line"/>
      <point x="945" y="995" type="line"/>
      <point x="779" y="995" type="line"/>
      <point x="779" y="288" type="line"/>
      <point x="684" y="171"/>
      <point x="622" y="119"/>
      <point x="509" y="119" type="curve" name="hr03" smooth="yes"/>
      <point x="368" y="119"/>
      <point x="322" y="196"/>
      <point x="322" y="383" type="curve" smooth="yes"/>
      <point x="322" y="995" type="line"/>
      <point x="155" y="995" type="line"/>
    </contour>
    <contour>
      <point x="550" y="1050" type="move" name="top"/>
    </contour>
  </outline>
</glyph>
<glyph name="z" format="1">
  <advance width="868"/>
  <unicode hex="007A"/>
  <outline>
    <contour>
      <point x="63" y="0" type="line" name="hr00"/>
      <point x="816" y="0" type="line"/>
      <point x="816" y="136" type="line"/>
      <point x="273" y="136" type="line"/>
      <point x="800" y="906" type="line"/>
      <point x="800" y="995" type="line"/>
      <point x="121" y="995" type="line"/>
      <point x="121" y="859" type="line"/>
      <point x="589" y="859" type="line"/>
      <point x="63" y="89" type="line"/>
    </contour>
    <contour>
      <point x="439" y="1050" type="move" name="top"/>
    </contour>
  </outline>
</glyph>
<glyph name="bar" format="1">
  <advance width="493"/>
  <unicode hex="007C"/>
  <outline>
    <contour>
      <point x="188" y="-512" type="line" name="hr00"/>
      <point x="306" y="-512" type="line"/>
      <point x="306" y="1536" type="line"/>
      <point x="188" y="1536" type="line"/>
    </contour>
  </outline>
</glyph>
<glyph name="brokenbar" format="1">
  <advance width="493"/>
  <unicode hex="00A6"/>
  <outline>
    <contour>
      <point x="188" y="595" type="line" name="hr00"/>
      <point x="306" y="595" type="line"/>
      <point x="306" y="1536" type="line"/>
      <point x="188" y="1536" type="line"/>
    </contour>
    <contour>
      <point x="188" y="438" type="line"/>
      <point x="188" y="-512" type="line"/>
      <point x="306" y="-512" type="line"/>
      <point x="306" y="438" type="line"/>
    </contour>
  </outline>
</glyph>
<glyph name="section" format="1">
  <advance width="1017"/>
  <unicode hex="00A7"/>
  <outline>
    <contour>
      <point x="655" y="394" type="curve" name="hr01"/>
      <point x="485" y="496"/>
      <point x="239" y="531"/>
      <point x="239" y="713" type="curve" smooth="yes"/>
      <point x="239" y="798"/>
      <point x="286" y="849"/>
      <point x="364" y="892" type="curve"/>
      <point x="534" y="794"/>
      <point x="778" y="755"/>
      <point x="778" y="569" type="curve" smooth="yes"/>
      <point x="778" y="479"/>
      <point x="735" y="432"/>
    </contour>
    <contour>
      <point x="828" y="1284" type="line"/>
      <point x="751" y="1348"/>
      <point x="642" y="1401"/>
      <point x="513" y="1401" type="curve" smooth="yes"/>
      <point x="309" y="1401"/>
      <point x="203" y="1276"/>
      <point x="203" y="1136" type="curve" name="hr02" smooth="yes"/>
      <point x="203" y="1064"/>
      <point x="227" y="1011"/>
      <point x="268" y="968" type="curve"/>
      <point x="166" y="910"/>
      <point x="92" y="822"/>
      <point x="92" y="702" type="curve" name="hr03" smooth="yes"/>
      <point x="92" y="325"/>
      <point x="658" y="376"/>
      <point x="658" y="141" type="curve" smooth="yes"/>
      <point x="658" y="63"/>
      <point x="592" y="-1"/>
      <point x="483" y="-1" type="curve" smooth="yes"/>
      <point x="374" y="-1"/>
      <point x="298" y="40"/>
      <point x="230" y="105" type="curve"/>
      <point x="129" y="14" type="line"/>
      <point x="213" y="-75"/>
      <point x="338" y="-130"/>
      <point x="483" y="-130" type="curve" smooth="yes"/>
      <point x="675" y="-130"/>
      <point x="812" y="-12"/>
      <point x="812" y="150" type="curve" smooth="yes"/>
      <point x="812" y="219"/>
      <point x="790" y="272"/>
      <point x="751" y="317" type="curve"/>
      <point x="855" y="377"/>
      <point x="925" y="453"/>
      <point x="925" y="582" type="curve" name="hr04" smooth="yes"/>
      <point x="925" y="958"/>
      <point x="357" y="919"/>
      <point x="357" y="1142" type="curve" smooth="yes"/>
      <point x="357" y="1211"/>
      <point x="405" y="1271"/>
      <point x="519" y="1271" type="curve" smooth="yes"/>
      <point x="610" y="1271"/>
      <point x="682" y="1230"/>
      <point x="748" y="1177" type="curve"/>
    </contour>
  </outline>
</glyph>
<glyph name="two.sups" format="1">
  <advance width="751"/>
  <unicode hex="00B2"/>
  <outline>
    <contour>
      <point x="106" y="901" type="line" name="hr00"/>
      <point x="655" y="901" type="line"/>
      <point x="655" y="1013" type="line"/>
      <point x="315" y="1013" type="line"/>
      <point x="486" y="1188"/>
      <point x="613" y="1313"/>
      <point x="613" y="1466" type="curve" smooth="yes"/>
      <point x="613" y="1634"/>
      <point x="508" y="1724"/>
      <point x="348" y="1724" type="curve" smooth="yes"/>
      <point x="240" y="1724"/>
      <point x="143" y="1661"/>
      <point x="82" y="1569" type="curve"/>
      <point x="160" y="1498" type="line"/>
      <point x="205" y="1564"/>
      <point x="264" y="1615"/>
      <point x="332" y="1615" type="curve" smooth="yes"/>
      <point x="426" y="1615"/>
      <point x="486" y="1551"/>
      <point x="486" y="1446" type="curve" smooth="yes"/>
      <point x="486" y="1325"/>
      <point x="355" y="1200"/>
      <point x="106" y="976" type="curve"/>
    </contour>
  </outline>
</glyph>
<glyph name="acute" format="1">
  <advance width="1109"/>
  <unicode hex="00B4"/>
  <outline>
    <contour>
      <point x="781" y="1462" type="line" name="hr00"/>
      <point x="606" y="1462" type="line"/>
      <point x="422" y="1174" type="line"/>
      <point x="550" y="1174" type="line"/>
    </contour>
    <contour>
      <point x="601" y="1050" type="move" name="_top"/>
    </contour>
  </outline>
</glyph>
<glyph name="Ccedilla" format="1">
  <advance width="1158"/>
  <unicode hex="00C7"/>
  <outline>
    <contour>
      <point x="1001" y="273" type="line" name="hr01"/>
      <point x="915" y="176"/>
      <point x="821" y="123"/>
      <point x="693" y="123" type="curve" name="hr02" smooth="yes"/>
      <point x="437" y="123"/>
      <point x="274" y="337"/>
      <point x="274" y="676" type="curve" smooth="yes"/>
      <point x="274" y="1011"/>
      <point x="444" y="1221"/>
      <point x="701" y="1221" type="curve" smooth="yes"/>
      <point x="813" y="1221"/>
      <point x="899" y="1171"/>
      <point x="971" y="1095" type="curve"/>
      <point x="1066" y="1202" type="line"/>
      <point x="986" y="1290"/>
      <point x="859" y="1368"/>
      <point x="700" y="1368" type="curve" smooth="yes"/>
      <point x="356" y="1368"/>
      <point x="100" y="1104"/>
      <point x="100" y="672" type="curve" smooth="yes"/>
      <point x="100" y="254"/>
      <point x="330" y="0"/>
      <point x="643" y="-23" type="curve"/>
      <point x="575" y="-154" type="line"/>
      <point x="659" y="-174"/>
      <point x="707" y="-201"/>
      <point x="707" y="-254" type="curve" smooth="yes"/>
      <point x="707" y="-309"/>
      <point x="631" y="-338"/>
      <point x="524" y="-352" type="curve"/>
      <point x="541" y="-436" type="line"/>
      <point x="696" y="-422"/>
      <point x="837" y="-367"/>
      <point x="837" y="-248" type="curve" smooth="yes"/>
      <point x="837" y="-164"/>
      <point x="781" y="-125"/>
      <point x="714" y="-102" type="curve"/>
      <point x="755" y="-20" type="line"/>
      <point x="894" y="-4"/>
      <point x="1007" y="63"/>
      <point x="1097" y="170" type="curve"/>
    </contour>
  </outline>
</glyph>
<glyph name="Thorn" format="1">
  <advance width="1192"/>
  <unicode hex="00DE"/>
  <outline>
    <contour>
      <point x="182" y="0" type="line" name="hr00"/>
      <point x="350" y="0" type="line"/>
      <point x="350" y="308" type="line"/>
      <point x="593" y="308" type="line"/>
      <point x="888" y="308"/>
      <point x="1089" y="439"/>
      <point x="1089" y="723" type="curve" smooth="yes"/>
      <point x="1089" y="1016"/>
      <point x="890" y="1118"/>
      <point x="593" y="1118" type="curve" smooth="yes"/>
      <point x="350" y="1118" type="line"/>
      <point x="350" y="1343" type="line"/>
      <point x="182" y="1343" type="line"/>
    </contour>
    <contour>
      <point x="350" y="445" type="line"/>
      <point x="350" y="980" type="line"/>
      <point x="572" y="980" type="line"/>
      <point x="805" y="980"/>
      <point x="921" y="916"/>
      <point x="921" y="723" type="curve" smooth="yes"/>
      <point x="921" y="530"/>
      <point x="807" y="445"/>
      <point x="572" y="445" type="curve" smooth="yes"/>
    </contour>
    <contour>
      <point x="635" y="1050" type="move" name="top"/>
    </contour>
  </outline>
</glyph>
<glyph name="divide" format="1">
  <advance width="1017"/>
  <unicode hex="00F7"/>
  <outline>
    <contour>
      <point x="509" y="935" type="curve" name="hr00" smooth="yes"/>
      <point x="570" y="935"/>
      <point x="620" y="979"/>
      <point x="620" y="1044" type="curve" smooth="yes"/>
      <point x="620" y="1108"/>
      <point x="570" y="1152"/>
      <point x="509" y="1152" type="curve" smooth="yes"/>
      <point x="446" y="1152"/>
      <point x="397" y="1108"/>
      <point x="397" y="1044" type="curve" smooth="yes"/>
      <point x="397" y="979"/>
      <point x="446" y="935"/>
    </contour>
    <contour>
      <point x="397" y="307" type="curve" smooth="yes"/>
      <point x="397" y="242"/>
      <point x="446" y="198"/>
      <point x="509" y="198" type="curve" smooth="yes"/>
      <point x="570" y="198"/>
      <point x="620" y="242"/>
      <point x="620" y="307" type="curve" smooth="yes"/>
      <point x="620" y="371"/>
      <point x="570" y="415"/>
      <point x="509" y="415" type="curve" smooth="yes"/>
      <point x="446" y="415"/>
      <point x="397" y="371"/>
    </contour>
    <contour>
      <point x="70" y="613" type="line"/>
      <point x="947" y="613" type="line"/>
      <point x="947" y="738" type="line"/>
      <point x="70" y="738" type="line"/>
    </contour>
  </outline>
</glyph>
<glyph name="thorn" format="1">
  <advance width="1136"/>
  <unicode hex="00FE"/>
  <outline>
    <contour>
      <point x="335" y="-84" type="line" name="hr00"/>
      <point x="333" y="86" type="line"/>
      <point x="423" y="16"/>
      <point x="511" y="-25"/>
      <point x="607" y="-25" type="curve" smooth="yes"/>
      <point x="835" y="-25"/>
      <point x="1037" y="174"/>
      <point x="1037" y="512" type="curve" smooth="yes"/>
      <point x="1037" y="821"/>
      <point x="898" y="1020"/>
      <point x="636" y="1020" type="curve" smooth="yes"/>
      <point x="527" y="1020"/>
      <point x="421" y="960"/>
      <point x="333" y="890" type="curve"/>
      <point x="335" y="1061" type="line"/>
      <point x="335" y="1458" type="line"/>
      <point x="169" y="1458" type="line"/>
      <point x="169" y="-421" type="line"/>
      <point x="335" y="-421" type="line"/>
    </contour>
    <contour>
      <point x="335" y="220" type="curve"/>
      <point x="335" y="744" type="line"/>
      <point x="433" y="832"/>
      <point x="518" y="880"/>
      <point x="602" y="880" type="curve" smooth="yes"/>
      <point x="792" y="880"/>
      <point x="865" y="731"/>
      <point x="865" y="512" type="curve" smooth="yes"/>
      <point x="865" y="265"/>
      <point x="744" y="115"/>
      <point x="580" y="115" type="curve" smooth="yes"/>
      <point x="513" y="115"/>
      <point x="425" y="144"/>
    </contour>
    <contour>
      <point x="603" y="1050" type="move" name="top"/>
    </contour>
  </outline>
</glyph>
<glyph name="hbar" format="1">
  <advance width="1113"/>
  <unicode hex="0127"/>
  <outline>
    <contour>
      <point x="335" y="1020" type="line" name="hr00"/>
      <point x="335" y="1170" type="line"/>
      <point x="708" y="1170" type="line"/>
      <point x="708" y="1268" type="line"/>
      <point x="335" y="1268" type="line"/>
      <point x="335" y="1458" type="line"/>
      <point x="169" y="1458" type="line"/>
      <point x="169" y="1268" type="line"/>
      <point x="16" y="1257" type="line"/>
      <point x="16" y="1170" type="line"/>
      <point x="169" y="1170" type="line"/>
      <point x="169" y="0" type="line"/>
      <point x="335" y="0" type="line"/>
      <point x="335" y="681" type="line"/>
      <point x="435" y="781"/>
      <point x="505" y="835"/>
      <point x="608" y="835" type="curve" smooth="yes"/>
      <point x="740" y="835"/>
      <point x="798" y="755"/>
      <point x="798" y="567" type="curve" smooth="yes"/>
      <point x="798" y="0" type="line"/>
      <point x="964" y="0" type="line"/>
      <point x="964" y="590" type="line"/>
      <point x="964" y="844"/>
      <point x="869" y="979"/>
      <point x="661" y="979" type="curve" smooth="yes"/>
      <point x="523" y="979"/>
      <point x="423" y="905"/>
      <point x="329" y="814" type="curve"/>
    </contour>
  </outline>
</glyph>
<glyph name="iogonek" format="1">
  <advance width="503"/>
  <unicode hex="012F"/>
  <outline>
    <contour>
      <point x="169" y="0" type="line" name="hr01"/>
      <point x="209" y="0" type="line"/>
      <point x="152" y="-57"/>
      <point x="78" y="-137"/>
      <point x="78" y="-248" type="curve" name="hr02" smooth="yes"/>
      <point x="78" y="-362"/>
      <point x="160" y="-422"/>
      <point x="263" y="-422" type="curve" smooth="yes"/>
      <point x="314" y="-422"/>
      <point x="384" y="-397"/>
      <point x="423" y="-367" type="curve" name="hr03"/>
      <point x="380" y="-284" type="line"/>
      <point x="353" y="-300"/>
      <point x="329" y="-310"/>
      <point x="298" y="-310" type="curve" name="hr04" smooth="yes"/>
      <point x="247" y="-310"/>
      <point x="202" y="-280"/>
      <point x="202" y="-216" type="curve" smooth="yes"/>
      <point x="202" y="-135"/>
      <point x="253" y="-59"/>
      <point x="335" y="0" type="curve" name="hr05"/>
      <point x="335" y="995" type="line"/>
      <point x="169" y="995" type="line"/>
    </contour>
    <contour>
      <point x="251" y="1201" type="curve" name="hr06" smooth="yes"/>
      <point x="314" y="1201"/>
      <point x="366" y="1245"/>
      <point x="366" y="1309" type="curve" smooth="yes"/>
      <point x="366" y="1373"/>
      <point x="314" y="1416"/>
      <point x="251" y="1416" type="curve" smooth="yes"/>
      <point x="186" y="1416"/>
      <point x="135" y="1373"/>
      <point x="135" y="1309" type="curve" smooth="yes"/>
      <point x="135" y="1245"/>
      <point x="186" y="1201"/>
    </contour>
  </outline>
</glyph>
<glyph name="dotlessi" format="1">
  <advance width="503"/>
  <unicode hex="0131"/>
  <outline>
    <contour>
      <point x="169" y="0" type="line" name="hr00"/>
      <point x="335" y="0" type="line"/>
      <point x="335" y="995" type="line"/>
      <point x="169" y="995" type="line"/>
    </contour>
    <contour>
      <point x="252" y="1050" type="move" name="top"/>
    </contour>
  </outline>
</glyph>
<glyph name="kgreenlandic" format="1">
  <advance width="1012"/>
  <unicode hex="0138"/>
  <outline>
    <contour>
      <point x="169" y="0" type="line" name="hr00"/>
      <point x="335" y="0" type="line"/>
      <point x="335" y="256" type="line"/>
      <point x="519" y="474" type="line"/>
      <point x="811" y="0" type="line"/>
      <point x="993" y="0" type="line"/>
      <point x="619" y="596" type="line"/>
      <point x="948" y="995" type="line"/>
      <point x="764" y="995" type="line"/>
      <point x="341" y="465" type="line"/>
      <point x="335" y="465" type="line"/>
      <point x="335" y="995" type="line"/>
      <point x="169" y="995" type="line"/>
    </contour>
  </outline>
</glyph>
<glyph name="Lslash" format="1">
  <advance width="989"/>
  <unicode hex="0141"/>
  <outline>
    <contour>
      <point x="354" y="143" type="line" name="hr00"/>
      <point x="354" y="567" type="line"/>
      <point x="740" y="772" type="line"/>
      <point x="740" y="910" type="line"/>
      <point x="354" y="704" type="line"/>
      <point x="354" y="1343" type="line"/>
      <point x="184" y="1343" type="line"/>
      <point x="184" y="620" type="line"/>
      <point x="20" y="534" type="line"/>
      <point x="20" y="398" type="line"/>
      <point x="184" y="484" type="line"/>
      <point x="184" y="0" type="line"/>
      <point x="941" y="0" type="line"/>
      <point x="941" y="143" type="line"/>
    </contour>
  </outline>
</glyph>
<glyph name="uogonek" format="1">
  <advance width="1113"/>
  <unicode hex="0173"/>
  <outline>
    <contour>
      <point x="155" y="365" type="line" name="hr01"/>
      <point x="155" y="111"/>
      <point x="249" y="-25"/>
      <point x="459" y="-25" type="curve" smooth="yes"/>
      <point x="596" y="-25"/>
      <point x="694" y="47"/>
      <point x="786" y="156" type="curve"/>
      <point x="793" y="156" type="line"/>
      <point x="809" y="8" type="line"/>
      <point x="721" y="-55"/>
      <point x="643" y="-137"/>
      <point x="643" y="-248" type="curve" name="hr02" smooth="yes"/>
      <point x="643" y="-362"/>
      <point x="725" y="-422"/>
      <point x="828" y="-422" type="curve" smooth="yes"/>
      <point x="880" y="-422"/>
      <point x="949" y="-397"/>
      <point x="988" y="-367" type="curve" name="hr03"/>
      <point x="945" y="-284" type="line"/>
      <point x="921" y="-300"/>
      <point x="894" y="-310"/>
      <point x="861" y="-310" type="curve" name="hr04" smooth="yes"/>
      <point x="814" y="-310"/>
      <point x="767" y="-280"/>
      <point x="767" y="-216" type="curve" smooth="yes"/>
      <point x="767" y="-135"/>
      <point x="824" y="-59"/>
      <point x="945" y="0" type="curve" name="hr05"/>
      <point x="945" y="995" type="line"/>
      <point x="779" y="995" type="line"/>
      <point x="779" y="288" type="line"/>
      <point x="684" y="171"/>
      <point x="612" y="119"/>
      <point x="509" y="119" type="curve" name="hr06" smooth="yes"/>
      <point x="376" y="119"/>
      <point x="322" y="200"/>
      <point x="322" y="386" type="curve" smooth="yes"/>
      <point x="322" y="995" type="line"/>
      <point x="155" y="995" type="line"/>
    </contour>
  </outline>
</glyph>
<glyph name="uni0192" format="1">
  <advance width="1017"/>
  <unicode hex="0192"/>
  <outline>
    <contour>
      <point x="945" y="1331" type="line" name="hr01"/>
      <point x="906" y="1350"/>
      <point x="845" y="1368"/>
      <point x="785" y="1368" type="curve" name="hr02" smooth="yes"/>
      <point x="567" y="1368"/>
      <point x="473" y="1223"/>
      <point x="442" y="950" type="curve" smooth="yes"/>
      <point x="430" y="836" type="line"/>
      <point x="379" y="836" type="line"/>
      <point x="238" y="827" type="line"/>
      <point x="238" y="708" type="line"/>
      <point x="416" y="708" type="line"/>
      <point x="367" y="257" type="line"/>
      <point x="344" y="48"/>
      <point x="297" y="-63"/>
      <point x="170" y="-63" type="curve" smooth="yes"/>
      <point x="133" y="-63"/>
      <point x="99" y="-56"/>
      <point x="68" y="-42" type="curve"/>
      <point x="37" y="-168" type="line"/>
      <point x="70" y="-186"/>
      <point x="122" y="-199"/>
      <point x="185" y="-199" type="curve" smooth="yes"/>
      <point x="412" y="-199"/>
      <point x="495" y="-29"/>
      <point x="522" y="221" type="curve" smooth="yes"/>
      <point x="577" y="708" type="line"/>
      <point x="849" y="708" type="line"/>
      <point x="849" y="836" type="line"/>
      <point x="590" y="836" type="line"/>
      <point x="604" y="965" type="line"/>
      <point x="622" y="1105"/>
      <point x="671" y="1233"/>
      <point x="794" y="1233" type="curve" smooth="yes"/>
      <point x="845" y="1233"/>
      <point x="880" y="1216"/>
      <point x="908" y="1204" type="curve"/>
    </contour>
  </outline>
</glyph>
<glyph name="Uhorn" format="1">
  <advance width="1338"/>
  <unicode hex="01AF"/>
  <outline>
    <contour>
      <point x="1194" y="1565" type="line" name="hr00"/>
      <point x="1212" y="1538"/>
      <point x="1225" y="1511"/>
      <point x="1225" y="1481" type="curve" smooth="yes"/>
      <point x="1225" y="1387"/>
      <point x="1155" y="1358"/>
      <point x="1047" y="1343" type="curve"/>
      <point x="976" y="1343" type="line"/>
      <point x="976" y="550" type="line"/>
      <point x="976" y="226"/>
      <point x="834" y="123"/>
      <point x="655" y="123" type="curve" smooth="yes"/>
      <point x="480" y="123"/>
      <point x="342" y="226"/>
      <point x="342" y="550" type="curve" smooth="yes"/>
      <point x="342" y="1343" type="line"/>
      <point x="172" y="1343" type="line"/>
      <point x="172" y="554" type="line"/>
      <point x="172" y="122"/>
      <point x="382" y="-25"/>
      <point x="655" y="-25" type="curve" smooth="yes"/>
      <point x="929" y="-25"/>
      <point x="1138" y="122"/>
      <point x="1138" y="554" type="curve" smooth="yes"/>
      <point x="1138" y="1271" type="line"/>
      <point x="1259" y="1297"/>
      <point x="1362" y="1356"/>
      <point x="1362" y="1491" type="curve" smooth="yes"/>
      <point x="1362" y="1542"/>
      <point x="1342" y="1587"/>
      <point x="1316" y="1624" type="curve"/>
    </contour>
  </outline>
</glyph>
<glyph name="j.sups" format="1">
  <advance width="345"/>
  <unicode hex="02B2"/>
  <outline>
    <contour>
      <point x="47" y="236" type="curve" name="hr01" smooth="yes"/>
      <point x="183" y="236"/>
      <point x="237" y="325"/>
      <point x="237" y="470" type="curve" smooth="yes"/>
      <point x="237" y="1192" type="line"/>
      <point x="111" y="1192" type="line"/>
      <point x="111" y="462" type="line"/>
      <point x="111" y="384"/>
      <point x="94" y="341"/>
      <point x="31" y="341" type="curve" smooth="yes"/>
      <point x="4" y="341"/>
      <point x="-10" y="345"/>
      <point x="-27" y="351" type="curve"/>
      <point x="-53" y="252" type="line"/>
      <point x="-23" y="242"/>
      <point x="2" y="236"/>
    </contour>
    <contour>
      <point x="176" y="1319" type="curve" name="hr02" smooth="yes"/>
      <point x="224" y="1319"/>
      <point x="261" y="1352"/>
      <point x="261" y="1399" type="curve" smooth="yes"/>
      <point x="261" y="1446"/>
      <point x="224" y="1478"/>
      <point x="176" y="1478" type="curve" smooth="yes"/>
      <point x="127" y="1478"/>
      <point x="90" y="1446"/>
      <point x="90" y="1399" type="curve" smooth="yes"/>
      <point x="90" y="1352"/>
      <point x="127" y="1319"/>
    </contour>
  </outline>
</glyph>
<glyph name="w.sups" format="1">
  <advance width="995"/>
  <unicode hex="02B7"/>
  <outline>
    <contour>
      <point x="215" y="532" type="line" name="hr01"/>
      <point x="366" y="532" type="line"/>
      <point x="454" y="869" type="line"/>
      <point x="497" y="1056" type="line" name="hr02"/>
      <point x="501" y="1056" type="line"/>
      <point x="545" y="869" type="line"/>
      <point x="633" y="532" type="line"/>
      <point x="785" y="532" type="line"/>
      <point x="964" y="1192" type="line"/>
      <point x="844" y="1192" type="line"/>
      <point x="756" y="824" type="line"/>
      <point x="712" y="636" type="line"/>
      <point x="704" y="636" type="line"/>
      <point x="658" y="824" type="line"/>
      <point x="556" y="1192" type="line"/>
      <point x="442" y="1192" type="line"/>
      <point x="345" y="824" type="line"/>
      <point x="300" y="636" type="line"/>
      <point x="292" y="636" type="line"/>
      <point x="253" y="824" type="line"/>
      <point x="163" y="1192" type="line"/>
      <point x="33" y="1192" type="line"/>
    </contour>
  </outline>
</glyph>
<glyph name="y.sups" format="1">
  <advance width="651"/>
  <unicode hex="02B8"/>
  <outline>
    <contour>
      <point x="75" y="372" type="curve" name="hr00"/>
      <point x="49" y="270" type="line"/>
      <point x="74" y="262"/>
      <point x="100" y="258"/>
      <point x="132" y="258" type="curve" smooth="yes"/>
      <point x="271" y="258"/>
      <point x="343" y="356"/>
      <point x="392" y="493" type="curve" smooth="yes"/>
      <point x="636" y="1192" type="line"/>
      <point x="512" y="1192" type="line"/>
      <point x="406" y="843" type="line"/>
      <point x="385" y="781"/>
      <point x="365" y="720"/>
      <point x="346" y="654" type="curve"/>
      <point x="338" y="654" type="line"/>
      <point x="316" y="720"/>
      <point x="294" y="783"/>
      <point x="273" y="843" type="curve" smooth="yes"/>
      <point x="144" y="1192" type="line"/>
      <point x="16" y="1192" type="line"/>
      <point x="285" y="537" type="line"/>
      <point x="270" y="496" type="line"/>
      <point x="246" y="417"/>
      <point x="197" y="361"/>
      <point x="125" y="361" type="curve" smooth="yes"/>
      <point x="109" y="361"/>
      <point x="93" y="364"/>
    </contour>
  </outline>
</glyph>
<glyph name="uni02BC" format="1">
  <advance width="508"/>
  <unicode hex="02BC"/>
  <outline>
    <contour>
      <point x="175" y="885" type="line" name="hr01"/>
      <point x="316" y="967"/>
      <point x="393" y="1083"/>
      <point x="393" y="1246" type="curve" smooth="yes"/>
      <point x="393" y="1365"/>
      <point x="345" y="1432"/>
      <point x="265" y="1432" type="curve" name="hr02" smooth="yes"/>
      <point x="203" y="1432"/>
      <point x="158" y="1389"/>
      <point x="158" y="1318" type="curve" smooth="yes"/>
      <point x="158" y="1252"/>
      <point x="209" y="1216"/>
      <point x="265" y="1216" type="curve" smooth="yes"/>
      <point x="271" y="1216"/>
      <point x="275" y="1216"/>
      <point x="282" y="1219" type="curve"/>
      <point x="282" y="1100"/>
      <point x="230" y="1030"/>
      <point x="129" y="963" type="curve"/>
    </contour>
    <contour>
      <point x="261" y="1050" type="move" name="_top"/>
    </contour>
  </outline>
</glyph>
<glyph name="uni02BE" format="1">
  <advance width="306"/>
  <unicode hex="02BE"/>
  <outline>
    <contour>
      <point x="61" y="1110" type="line" name="hr00"/>
      <point x="209" y="1106"/>
      <point x="289" y="1182"/>
      <point x="289" y="1299" type="curve" smooth="yes"/>
      <point x="289" y="1416"/>
      <point x="209" y="1492"/>
      <point x="61" y="1488" type="curve"/>
      <point x="61" y="1415" type="line"/>
      <point x="156" y="1415"/>
      <point x="193" y="1368"/>
      <point x="193" y="1299" type="curve" smooth="yes"/>
      <point x="193" y="1230"/>
      <point x="156" y="1183"/>
      <point x="61" y="1183" type="curve"/>
    </contour>
    <contour>
      <point x="175" y="1050" type="move" name="_top"/>
    </contour>
  </outline>
</glyph>
<glyph name="uni02CA" format="1">
  <advance width="460"/>
  <unicode hex="02CA"/>
  <outline>
    <contour>
      <point x="454" y="1462" type="line" name="hr00"/>
      <point x="279" y="1462" type="line"/>
      <point x="94" y="1174" type="line"/>
      <point x="222" y="1174" type="line"/>
    </contour>
    <contour>
      <point x="274" y="1050" type="move" name="_top"/>
    </contour>
  </outline>
</glyph>
<glyph name="ogonek" format="1">
  <advance width="1109"/>
  <unicode hex="02DB"/>
  <outline>
    <contour>
      <point x="420" y="-248" type="curve" name="hr00" smooth="yes"/>
      <point x="420" y="-362"/>
      <point x="502" y="-422"/>
      <point x="604" y="-422" type="curve" smooth="yes"/>
      <point x="657" y="-422"/>
      <point x="726" y="-397"/>
      <point x="765" y="-367" type="curve"/>
      <point x="722" y="-284" type="line"/>
      <point x="697" y="-300"/>
      <point x="671" y="-310"/>
      <point x="638" y="-310" type="curve" smooth="yes"/>
      <point x="589" y="-310"/>
      <point x="544" y="-280"/>
      <point x="544" y="-216" type="curve" smooth="yes"/>
      <point x="544" y="-135"/>
      <point x="596" y="-59"/>
      <point x="684" y="6" type="curve"/>
      <point x="565" y="6" type="line"/>
      <point x="498" y="-45"/>
      <point x="420" y="-137"/>
    </contour>
    <contour>
      <point x="592" y="1050" type="move" name="_top"/>
    </contour>
  </outline>
</glyph>
<glyph name="hungarumlaut" format="1">
  <advance width="1109"/>
  <unicode hex="02DD"/>
  <outline>
    <contour>
      <point x="355" y="1169" type="line" name="hr00"/>
      <point x="467" y="1169" type="line"/>
      <point x="646" y="1462" type="line"/>
      <point x="501" y="1462" type="line"/>
    </contour>
    <contour>
      <point x="655" y="1169" type="line"/>
      <point x="767" y="1169" type="line"/>
      <point x="947" y="1462" type="line"/>
      <point x="801" y="1462" type="line"/>
    </contour>
    <contour>
      <point x="651" y="1050" type="move" name="_top"/>
    </contour>
  </outline>
</glyph>
<glyph name="s.sups" format="1">
  <advance width="579"/>
  <unicode hex="02E2"/>
  <outline>
    <contour>
      <point x="39" y="606" type="line" name="hr00"/>
      <point x="104" y="555"/>
      <point x="197" y="516"/>
      <point x="295" y="516" type="curve" smooth="yes"/>
      <point x="443" y="516"/>
      <point x="538" y="602"/>
      <point x="538" y="719" type="curve" smooth="yes"/>
      <point x="538" y="842"/>
      <point x="433" y="879"/>
      <point x="339" y="915" type="curve" smooth="yes"/>
      <point x="263" y="944"/>
      <point x="192" y="965"/>
      <point x="192" y="1026" type="curve" smooth="yes"/>
      <point x="192" y="1069"/>
      <point x="228" y="1111"/>
      <point x="303" y="1111" type="curve" smooth="yes"/>
      <point x="365" y="1111"/>
      <point x="406" y="1088"/>
      <point x="455" y="1054" type="curve"/>
      <point x="517" y="1133" type="line"/>
      <point x="462" y="1174"/>
      <point x="392" y="1208"/>
      <point x="299" y="1208" type="curve" smooth="yes"/>
      <point x="156" y="1208"/>
      <point x="72" y="1120"/>
      <point x="72" y="1020" type="curve" smooth="yes"/>
      <point x="72" y="905"/>
      <point x="174" y="858"/>
      <point x="266" y="823" type="curve" smooth="yes"/>
      <point x="342" y="795"/>
      <point x="417" y="770"/>
      <point x="417" y="709" type="curve" smooth="yes"/>
      <point x="417" y="654"/>
      <point x="373" y="613"/>
      <point x="297" y="613" type="curve" smooth="yes"/>
      <point x="223" y="613"/>
      <point x="160" y="644"/>
      <point x="100" y="689" type="curve"/>
    </contour>
  </outline>
</glyph>
<glyph name="x.sups" format="1">
  <advance width="627"/>
  <unicode hex="02E3"/>
  <outline>
    <contour>
      <point x="16" y="532" type="line" name="hr00"/>
      <point x="151" y="532" type="line"/>
      <point x="235" y="675" type="line"/>
      <point x="302" y="787" type="line"/>
      <point x="310" y="787" type="line"/>
      <point x="383" y="675" type="line"/>
      <point x="471" y="532" type="line"/>
      <point x="609" y="532" type="line"/>
      <point x="394" y="864" type="line"/>
      <point x="595" y="1192" type="line"/>
      <point x="461" y="1192" type="line"/>
      <point x="384" y="1056" type="line"/>
      <point x="329" y="949" type="line"/>
      <point x="321" y="949" type="line"/>
      <point x="257" y="1056" type="line"/>
      <point x="173" y="1192" type="line"/>
      <point x="35" y="1192" type="line"/>
      <point x="238" y="877" type="line"/>
    </contour>
  </outline>
</glyph>
<glyph name="uni0303" format="1">
  <advance width="0"/>
  <unicode hex="0303"/>
  <outline>
    <contour>
      <point x="-284" y="1186" type="curve" name="hr01"/>
      <point x="-190" y="1186" type="line"/>
      <point x="-178" y="1255"/>
      <point x="-156" y="1290"/>
      <point x="-115" y="1290" type="curve" smooth="yes"/>
      <point x="-45" y="1290"/>
      <point x="14" y="1186"/>
      <point x="119" y="1186" type="curve" smooth="yes"/>
      <point x="219" y="1186"/>
      <point x="273" y="1280"/>
      <point x="284" y="1402" type="curve"/>
      <point x="190" y="1402" type="line"/>
      <point x="178" y="1332"/>
      <point x="156" y="1297"/>
      <point x="115" y="1297" type="curve" name="hr02" smooth="yes"/>
      <point x="49" y="1297"/>
      <point x="-14" y="1402"/>
      <point x="-119" y="1402" type="curve" smooth="yes"/>
      <point x="-219" y="1402"/>
      <point x="-273" y="1308"/>
    </contour>
    <contour>
      <point x="0" y="1050" type="move" name="_top"/>
    </contour>
  </outline>
</glyph>
<glyph name="uni0308" format="1">
  <advance width="600"/>
  <unicode hex="0308"/>
  <outline>
    <contour>
      <point x="-176" y="1205" type="curve" smooth="yes"/>
      <point x="-119" y="1205"/>
      <point x="-76" y="1247"/>
      <point x="-76" y="1305" type="curve" smooth="yes"/>
      <point x="-76" y="1361"/>
      <point x="-119" y="1404"/>
      <point x="-176" y="1404" type="curve" smooth="yes"/>
      <point x="-235" y="1404"/>
      <point x="-275" y="1361"/>
      <point x="-275" y="1305" type="curve" smooth="yes"/>
      <point x="-275" y="1247"/>
      <point x="-235" y="1205"/>
    </contour>
    <contour>
      <point x="176" y="1205" type="curve" smooth="yes"/>
      <point x="235" y="1205"/>
      <point x="275" y="1247"/>
      <point x="275" y="1305" type="curve" smooth="yes"/>
      <point x="275" y="1361"/>
      <point x="235" y="1404"/>
      <point x="176" y="1404" type="curve" smooth="yes"/>
      <point x="119" y="1404"/>
      <point x="76" y="1361"/>
      <point x="76" y="1305" type="curve" smooth="yes"/>
      <point x="76" y="1247"/>
      <point x="119" y="1205"/>
    </contour>
    <contour>
      <point x="0" y="1040" type="move" name="_mark0"/>
    </contour>
  </outline>
</glyph>
<glyph name="uni0309" format="1">
  <advance width="381"/>
  <unicode hex="0309"/>
  <outline>
    <contour>
      <point x="110" y="1133" type="line" name="hr00"/>
      <point x="228" y="1153"/>
      <point x="336" y="1204"/>
      <point x="336" y="1323" type="curve" smooth="yes"/>
      <point x="336" y="1427"/>
      <point x="232" y="1482"/>
      <point x="54" y="1488" type="curve"/>
      <point x="37" y="1391" type="line"/>
      <point x="150" y="1386"/>
      <point x="207" y="1358"/>
      <point x="207" y="1305" type="curve" smooth="yes"/>
      <point x="207" y="1253"/>
      <point x="157" y="1228"/>
      <point x="91" y="1209" type="curve"/>
    </contour>
    <contour>
      <point x="186" y="1039" type="move" name="_top"/>
    </contour>
  </outline>
</glyph>
<glyph name="uni030C" format="1">
  <advance width="600"/>
  <unicode hex="030C"/>
  <outline>
    <contour>
      <point x="-69" y="1174" type="line"/>
      <point x="69" y="1174" type="line"/>
      <point x="263" y="1462" type="line"/>
      <point x="141" y="1462" type="line"/>
      <point x="4" y="1273" type="line"/>
      <point x="-4" y="1273" type="line"/>
      <point x="-141" y="1462" type="line"/>
      <point x="-263" y="1462" type="line"/>
    </contour>
    <contour>
      <point x="0" y="1040" type="move" name="_mark0"/>
    </contour>
  </outline>
</glyph>
<glyph name="uni0331" format="1">
  <advance width="0"/>
  <unicode hex="0331"/>
  <outline>
    <contour>
      <point x="251" y="-232" type="line" name="hr00"/>
      <point x="-254" y="-232" type="line"/>
      <point x="-254" y="-349" type="line"/>
      <point x="251" y="-349" type="line"/>
    </contour>
    <contour>
      <point x="-2" y="1050" type="move" name="_top"/>
    </contour>
  </outline>
</glyph>
<glyph name="candraBindu-deva" format="1">
  <advance width="540"/>
  <unicode hex="0901"/>
  <outline>
    <component base="eCandraMatra-deva" xOffset="-2"/>
    <component base="anusvara-deva" xOffset="-1" yOffset="140"/>
    <contour>
      <point x="274" y="1168" type="move" name="_topcandra"/>
    </contour>
  </outline>
</glyph>
<glyph name="anusvara-deva" format="1">
  <advance width="540"/>
  <unicode hex="0902"/>
  <outline>
    <contour>
      <point x="205" y="1615"/>
      <point x="176" y="1587"/>
      <point x="176" y="1522" type="curve" smooth="yes"/>
      <point x="176" y="1457"/>
      <point x="205" y="1430"/>
      <point x="271" y="1430" type="curve" smooth="yes"/>
      <point x="336" y="1430"/>
      <point x="365" y="1457"/>
      <point x="365" y="1522" type="curve" smooth="yes"/>
      <point x="365" y="1587"/>
      <point x="336" y="1615"/>
      <point x="271" y="1615" type="curve" smooth="yes"/>
    </contour>
    <contour>
      <point x="271" y="1168" type="move" name="_top"/>
    </contour>
  </outline>
</glyph>
<glyph name="a-deva" format="1">
  <advance width="1386"/>
  <unicode hex="0905"/>
  <outline>
    <contour>
      <point x="313" y="732" type="line"/>
      <point x="512" y="672"/>
      <point x="588" y="603"/>
      <point x="588" y="472" type="curve" smooth="yes"/>
      <point x="588" y="346"/>
      <point x="502" y="283"/>
      <point x="378" y="283" type="curve" smooth="yes"/>
      <point x="283" y="283"/>
      <point x="181" y="316"/>
      <point x="69" y="413" type="curve"/>
      <point x="-9" y="314" type="line"/>
      <point x="120" y="193"/>
      <point x="252" y="142"/>
      <point x="392" y="142" type="curve" smooth="yes"/>
      <point x="586" y="142"/>
      <point x="746" y="262"/>
      <point x="746" y="460" type="curve" smooth="yes"/>
      <point x="746" y="635"/>
      <point x="622" y="747"/>
      <point x="400" y="768" type="curve"/>
    </contour>
    <contour>
      <point x="282" y="1282"/>
      <point x="196" y="1259"/>
      <point x="104" y="1219" type="curve"/>
      <point x="149" y="1097" type="line"/>
      <point x="240" y="1133"/>
      <point x="312" y="1148"/>
      <point x="374" y="1148" type="curve" smooth="yes"/>
      <point x="473" y="1148"/>
      <point x="548" y="1113"/>
      <point x="548" y="999" type="curve" smooth="yes"/>
      <point x="548" y="890"/>
      <point x="480" y="824"/>
      <point x="316" y="795" type="curve" smooth="yes"/>
      <point x="292" y="791"/>
      <point x="272" y="787"/>
      <point x="236" y="784" type="curve"/>
      <point x="246" y="657" type="line"/>
      <point x="323" y="657"/>
      <point x="427" y="671"/>
      <point x="517" y="724" type="curve" smooth="yes"/>
      <point x="634" y="788"/>
      <point x="693" y="877"/>
      <point x="693" y="1012" type="curve" smooth="yes"/>
      <point x="693" y="1184"/>
      <point x="570" y="1282"/>
      <point x="380" y="1282" type="curve" smooth="yes"/>
    </contour>
    <contour>
      <point x="938" y="687"/>
      <point x="776" y="659"/>
      <point x="629" y="664" type="curve"/>
      <point x="686" y="547" type="line"/>
      <point x="793" y="537"/>
      <point x="977" y="565"/>
      <point x="1090" y="643" type="curve"/>
      <point x="1085" y="796" type="line"/>
    </contour>
    <contour>
      <point x="1028" y="1203" type="line"/>
      <point x="1028" y="1" type="line"/>
      <point x="1185" y="1" type="line"/>
      <point x="1185" y="1203" type="line"/>
    </contour>
    <contour>
      <point x="841" y="1262" type="line"/>
      <point x="841" y="1129" type="line"/>
      <point x="1400" y="1129" type="line"/>
      <point x="1400" y="1262" type="line"/>
    </contour>
    <contour>
      <point x="1107" y="1168" type="move" name="top"/>
    </contour>
    <contour>
      <point x="1107" y="28" type="move" name="bottom"/>
    </contour>
    <contour>
      <point x="1109" y="1167" type="move" name="topcandra"/>
    </contour>
  </outline>
</glyph>
<glyph name="u-deva" format="1">
  <advance width="877"/>
  <unicode hex="0909"/>
  <outline>
    <contour>
      <point x="339" y="650" type="line"/>
      <point x="541" y="591"/>
      <point x="644" y="511"/>
      <point x="644" y="363" type="curve" smooth="yes"/>
      <point x="644" y="224"/>
      <point x="545" y="146"/>
      <point x="407" y="146" type="curve" smooth="yes"/>
      <point x="286" y="146"/>
      <point x="175" y="206"/>
      <point x="96" y="274" type="curve"/>
      <point x="23" y="179" type="line"/>
      <point x="118" y="80"/>
      <point x="260" y="9"/>
      <point x="420" y="9" type="curve" smooth="yes"/>
      <point x="629" y="9"/>
      <point x="800" y="138"/>
      <point x="800" y="356" type="curve" smooth="yes"/>
      <point x="800" y="540"/>
      <point x="668" y="658"/>
      <point x="428" y="690" type="curve"/>
    </contour>
    <contour>
      <point x="389" y="1135" type="line"/>
      <point x="484" y="1135"/>
      <point x="597" y="1079"/>
      <point x="597" y="946" type="curve" smooth="yes"/>
      <point x="597" y="826"/>
      <point x="525" y="745"/>
      <point x="341" y="713" type="curve" smooth="yes"/>
      <point x="317" y="708"/>
      <point x="299" y="705"/>
      <point x="255" y="701" type="curve"/>
      <point x="273" y="575" type="line"/>
      <point x="362" y="577"/>
      <point x="469" y="595"/>
      <point x="558" y="647" type="curve" smooth="yes"/>
      <point x="682" y="717"/>
      <point x="746" y="809"/>
      <point x="746" y="945" type="curve" smooth="yes"/>
      <point x="746" y="1151"/>
      <point x="546" y="1206"/>
      <point x="392" y="1199" type="curve"/>
    </contour>
    <contour>
      <point x="892" y="1262" type="line"/>
      <point x="-15" y="1262" type="line"/>
      <point x="-15" y="1129" type="line"/>
      <point x="892" y="1129" type="line"/>
    </contour>
    <contour>
      <point x="461" y="1168" type="move" name="top"/>
    </contour>
    <contour>
      <point x="427" y="51" type="move" name="bottom"/>
    </contour>
    <contour>
      <point x="461" y="1168" type="move" name="topcandra"/>
    </contour>
  </outline>
</glyph>
<glyph name="eShort-deva" format="1">
  <advance width="1034"/>
  <unicode hex="090E"/>
  <outline>
    <component base="e-deva"/>
    <component base="eShortMatra-deva" xOffset="558" yOffset="28"/>
    <contour>
      <point x="875" y="1411" type="move" name="topcandra"/>
    </contour>
  </outline>
</glyph>
<glyph name="gha-deva" format="1">
  <advance width="1188"/>
  <unicode hex="0918"/>
  <outline>
    <contour>
      <point x="213" y="816"/>
      <point x="124" y="664"/>
      <point x="124" y="515" type="curve" smooth="yes"/>
      <point x="124" y="334"/>
      <point x="244" y="214"/>
      <point x="466" y="214" type="curve" smooth="yes"/>
      <point x="657" y="214"/>
      <point x="827" y="289"/>
      <point x="923" y="405" type="curve"/>
      <point x="898" y="565" type="line"/>
      <point x="801" y="432"/>
      <point x="637" y="352"/>
      <point x="479" y="352" type="curve" smooth="yes"/>
      <point x="347" y="352"/>
      <point x="285" y="404"/>
      <point x="285" y="517" type="curve" smooth="yes"/>
      <point x="285" y="638"/>
      <point x="363" y="683"/>
      <point x="534" y="700" type="curve"/>
      <point x="526" y="827" type="line"/>
    </contour>
    <contour>
      <point x="270" y="1228"/>
      <point x="71" y="1170"/>
      <point x="71" y="977" type="curve" smooth="yes"/>
      <point x="71" y="874"/>
      <point x="130" y="773"/>
      <point x="340" y="683" type="curve"/>
      <point x="414" y="748" type="line"/>
      <point x="316" y="797"/>
      <point x="229" y="857"/>
      <point x="229" y="973" type="curve" smooth="yes"/>
      <point x="229" y="1080"/>
      <point x="315" y="1125"/>
      <point x="452" y="1138" type="curve"/>
      <point x="468" y="1230" type="line"/>
    </contour>
    <contour>
      <point x="831" y="1194" type="line"/>
      <point x="831" y="0" type="line"/>
      <point x="988" y="0" type="line"/>
      <point x="988" y="1194" type="line"/>
    </contour>
    <contour>
      <point x="-15" y="1262" type="line"/>
      <point x="-15" y="1129" type="line"/>
      <point x="1203" y="1129" type="line"/>
      <point x="1203" y="1262" type="line"/>
    </contour>
    <contour>
      <point x="263" y="58" type="move" name="nukta"/>
    </contour>
    <contour>
      <point x="912" y="1168" type="move" name="top"/>
    </contour>
    <contour>
      <point x="645" y="1168" type="move" name="topcandra"/>
    </contour>
    <contour>
      <point x="910" y="28" type="move" name="bottom"/>
    </contour>
  </outline>
</glyph>
<glyph name="nya-deva" format="1">
  <advance width="1465"/>
  <unicode hex="091E"/>
  <outline>
    <contour>
      <point x="511" y="919"/>
      <point x="461" y="912"/>
      <point x="411" y="891" type="curve"/>
      <point x="439" y="761" type="line"/>
      <point x="480" y="772"/>
      <point x="522" y="777"/>
      <point x="572" y="777" type="curve" smooth="yes"/>
      <point x="681" y="777"/>
      <point x="763" y="724"/>
      <point x="765" y="575" type="curve" smooth="yes"/>
      <point x="766" y="421"/>
      <point x="679" y="349"/>
      <point x="553" y="349" type="curve" smooth="yes"/>
      <point x="358" y="349"/>
      <point x="241" y="498"/>
      <point x="175" y="860" type="curve"/>
      <point x="49" y="834" type="line"/>
      <point x="123" y="350"/>
      <point x="334" y="207"/>
      <point x="555" y="207" type="curve" smooth="yes"/>
      <point x="780" y="207"/>
      <point x="910" y="342"/>
      <point x="910" y="569" type="curve" smooth="yes"/>
      <point x="910" y="797"/>
      <point x="769" y="919"/>
      <point x="568" y="919" type="curve" smooth="yes"/>
    </contour>
    <contour>
      <point x="1094" y="660"/>
      <point x="925" y="627"/>
      <point x="814" y="641" type="curve"/>
      <point x="849" y="514" type="line"/>
      <point x="947" y="496"/>
      <point x="1152" y="533"/>
      <point x="1225" y="602" type="curve"/>
      <point x="1218" y="753" type="line"/>
    </contour>
    <contour>
      <point x="1104" y="1194" type="line"/>
      <point x="1104" y="0" type="line"/>
      <point x="1260" y="0" type="line"/>
      <point x="1260" y="1194" type="line"/>
    </contour>
    <contour>
      <point x="-15" y="1262" type="line"/>
      <point x="-15" y="1129" type="line"/>
      <point x="1480" y="1129" type="line"/>
      <point x="1480" y="1262" type="line"/>
    </contour>
    <contour>
      <point x="211" y="58" type="move" name="nukta"/>
    </contour>
    <contour>
      <point x="1182" y="1168" type="move" name="top"/>
    </contour>
    <contour>
      <point x="780" y="1168" type="move" name="topcandra"/>
    </contour>
    <contour>
      <point x="1182" y="28" type="move" name="bottom"/>
    </contour>
  </outline>
</glyph>
<glyph name="ttha-deva" format="1">
  <advance width="1174"/>
  <unicode hex="0920"/>
  <outline>
    <contour>
      <point x="-15" y="1262" type="line"/>
      <point x="-15" y="1129" type="line"/>
      <point x="1189" y="1129" type="line"/>
      <point x="1189" y="1262" type="line"/>
    </contour>
    <contour>
      <point x="920" y="25"/>
      <point x="1091" y="166"/>
      <point x="1091" y="460" type="curve" smooth="yes"/>
      <point x="1091" y="680"/>
      <point x="995" y="837"/>
      <point x="795" y="885" type="curve" smooth="yes"/>
      <point x="725" y="900"/>
      <point x="654" y="904"/>
      <point x="577" y="904" type="curve" smooth="yes"/>
      <point x="257" y="904"/>
      <point x="82" y="785"/>
      <point x="82" y="481" type="curve" smooth="yes"/>
      <point x="82" y="184"/>
      <point x="260" y="25"/>
      <point x="593" y="25" type="curve" smooth="yes"/>
    </contour>
    <contour>
      <point x="345" y="166"/>
      <point x="246" y="261"/>
      <point x="246" y="462" type="curve" smooth="yes"/>
      <point x="246" y="679"/>
      <point x="349" y="763"/>
      <point x="581" y="763" type="curve" smooth="yes"/>
      <point x="665" y="763"/>
      <point x="749" y="758"/>
      <point x="813" y="724" type="curve" smooth="yes"/>
      <point x="891" y="682"/>
      <point x="929" y="601"/>
      <point x="928" y="464" type="curve" smooth="yes"/>
      <point x="925" y="260"/>
      <point x="817" y="166"/>
      <point x="587" y="166" type="curve" smooth="yes"/>
    </contour>
    <contour>
      <point x="852" y="853" type="line"/>
      <point x="852" y="1172" type="line"/>
      <point x="697" y="1172" type="line"/>
      <point x="696" y="872" type="line"/>
    </contour>
    <contour>
      <point x="53" y="58" type="move" name="nukta"/>
    </contour>
    <contour>
      <point x="774" y="1168" type="move" name="top"/>
    </contour>
    <contour>
      <point x="624" y="1168" type="move" name="topcandra"/>
    </contour>
    <contour>
      <point x="605" y="69" type="move" name="bottom"/>
    </contour>
  </outline>
</glyph>
<glyph name="na-deva" format="1">
  <advance width="1049"/>
  <unicode hex="0928"/>
  <outline>
    <contour>
      <point x="692" y="1194" type="line"/>
      <point x="692" y="0" type="line"/>
      <point x="849" y="0" type="line"/>
      <point x="849" y="1194" type="line"/>
    </contour>
    <contour>
      <point x="48" y="759" type="line"/>
      <point x="48" y="628" type="line"/>
      <point x="191" y="420" type="line"/>
      <point x="305" y="420"/>
      <point x="325" y="488"/>
      <point x="325" y="573" type="curve" smooth="yes"/>
      <point x="325" y="759" type="line"/>
    </contour>
    <contour>
      <point x="180" y="759" type="line"/>
      <point x="180" y="621" type="line"/>
      <point x="765" y="621" type="line"/>
      <point x="765" y="760" type="line"/>
    </contour>
    <contour>
      <point x="-15" y="1262" type="line"/>
      <point x="-15" y="1129" type="line"/>
      <point x="1064" y="1129" type="line"/>
      <point x="1064" y="1262" type="line"/>
    </contour>
    <contour>
      <point x="242" y="58" type="move" name="nukta"/>
    </contour>
    <contour>
      <point x="771" y="1168" type="move" name="top"/>
    </contour>
    <contour>
      <point x="490" y="1168" type="move" name="topcandra"/>
    </contour>
    <contour>
      <point x="771" y="28" type="move" name="bottom"/>
    </contour>
  </outline>
</glyph>
<glyph name="pa-deva" format="1">
  <advance width="1169"/>
  <unicode hex="092A"/>
  <outline>
    <contour>
      <point x="159" y="1162" type="line"/>
      <point x="159" y="682" type="line" smooth="yes"/>
      <point x="159" y="434"/>
      <point x="275" y="306"/>
      <point x="509" y="306" type="curve" smooth="yes"/>
      <point x="641" y="306"/>
      <point x="786" y="372"/>
      <point x="872" y="491" type="curve"/>
      <point x="846" y="644" type="line"/>
      <point x="756" y="512"/>
      <point x="638" y="448"/>
      <point x="517" y="447" type="curve" smooth="yes"/>
      <point x="363" y="446"/>
      <point x="317" y="523"/>
      <point x="317" y="667" type="curve" smooth="yes"/>
      <point x="317" y="1162" type="line"/>
    </contour>
    <contour>
      <point x="812" y="1194" type="line"/>
      <point x="812" y="0" type="line"/>
      <point x="969" y="0" type="line"/>
      <point x="969" y="1194" type="line"/>
    </contour>
    <contour>
      <point x="-16" y="1262" type="line"/>
      <point x="-16" y="1129" type="line"/>
      <point x="1184" y="1129" type="line"/>
      <point x="1184" y="1262" type="line"/>
    </contour>
    <contour>
      <point x="309" y="116" type="move" name="nukta"/>
    </contour>
    <contour>
      <point x="891" y="1168" type="move" name="top"/>
    </contour>
    <contour>
      <point x="577" y="1168" type="move" name="topcandra"/>
    </contour>
    <contour>
      <point x="892" y="28" type="move" name="bottom"/>
    </contour>
  </outline>
</glyph>
<glyph name="pha-deva" format="1">
  <advance width="1580"/>
  <unicode hex="092B"/>
  <outline>
    <contour>
      <point x="786" y="1194" type="line"/>
      <point x="786" y="0" type="line"/>
      <point x="943" y="0" type="line"/>
      <point x="943" y="1194" type="line"/>
    </contour>
    <contour>
      <point x="-15" y="1262" type="line"/>
      <point x="-15" y="1129" type="line"/>
      <point x="1595" y="1129" type="line"/>
      <point x="1595" y="1262" type="line"/>
    </contour>
    <contour>
      <point x="1104" y="871"/>
      <point x="997" y="815"/>
      <point x="896" y="692" type="curve"/>
      <point x="880" y="476" type="line"/>
      <point x="1018" y="656"/>
      <point x="1129" y="731"/>
      <point x="1224" y="731" type="curve" smooth="yes"/>
      <point x="1318" y="731"/>
      <point x="1367" y="669"/>
      <point x="1367" y="563" type="curve" smooth="yes"/>
      <point x="1367" y="466"/>
      <point x="1324" y="358"/>
      <point x="1236" y="238" type="curve"/>
      <point x="1354" y="153" type="line"/>
      <point x="1463" y="280"/>
      <point x="1511" y="423"/>
      <point x="1511" y="552" type="curve" smooth="yes"/>
      <point x="1511" y="741"/>
      <point x="1407" y="871"/>
      <point x="1233" y="871" type="curve" smooth="yes"/>
    </contour>
    <contour>
      <point x="160" y="1177" type="line"/>
      <point x="160" y="702" type="line" smooth="yes"/>
      <point x="160" y="454"/>
      <point x="276" y="326"/>
      <point x="494" y="326" type="curve" smooth="yes"/>
      <point x="618" y="326"/>
      <point x="768" y="392"/>
      <point x="854" y="528" type="curve"/>
      <point x="827" y="666" type="line"/>
      <point x="738" y="534"/>
      <point x="619" y="468"/>
      <point x="503" y="467" type="curve" smooth="yes"/>
      <point x="364" y="466"/>
      <point x="318" y="543"/>
      <point x="318" y="688" type="curve" smooth="yes"/>
      <point x="318" y="1177" type="line"/>
    </contour>
    <contour>
      <point x="363" y="88" type="move" name="nukta"/>
    </contour>
    <contour>
      <point x="865" y="1168" type="move" name="top"/>
    </contour>
    <contour>
      <point x="866" y="1168" type="move" name="topcandra"/>
    </contour>
    <contour>
      <point x="865" y="28" type="move" name="bottom"/>
    </contour>
  </outline>
</glyph>
<glyph name="ma-deva" format="1">
  <advance width="1178"/>
  <unicode hex="092E"/>
  <outline>
    <contour>
      <point x="821" y="1168" type="line"/>
      <point x="821" y="1" type="line"/>
      <point x="977" y="1" type="line"/>
      <point x="977" y="1168" type="line"/>
    </contour>
    <contour>
      <point x="232" y="626" type="line"/>
      <point x="57" y="605" type="line"/>
      <point x="57" y="496" type="line"/>
      <point x="232" y="301" type="line"/>
      <point x="340" y="303"/>
      <point x="362" y="358"/>
      <point x="362" y="424" type="curve" smooth="yes"/>
      <point x="362" y="626" type="line"/>
    </contour>
    <contour>
      <point x="206" y="1159" type="line"/>
      <point x="206" y="424" type="line"/>
      <point x="362" y="563" type="line"/>
      <point x="362" y="1160" type="line"/>
    </contour>
    <contour>
      <point x="212" y="620" type="line"/>
      <point x="212" y="482" type="line"/>
      <point x="942" y="482" type="line"/>
      <point x="942" y="620" type="line"/>
    </contour>
    <contour>
      <point x="-15" y="1262" type="line"/>
      <point x="-15" y="1129" type="line"/>
      <point x="1192" y="1129" type="line"/>
      <point x="1192" y="1262" type="line"/>
    </contour>
    <contour>
      <point x="328" y="58" type="move" name="nukta"/>
    </contour>
    <contour>
      <point x="899" y="1168" type="move" name="top"/>
    </contour>
    <contour>
      <point x="617" y="1168" type="move" name="topcandra"/>
    </contour>
    <contour>
      <point x="899" y="28" type="move" name="bottom"/>
    </contour>
  </outline>
</glyph>
<glyph name="va-deva" format="1">
  <advance width="1089"/>
  <unicode hex="0935"/>
  <outline>
    <contour>
      <point x="733" y="1192" type="line"/>
      <point x="733" y="0" type="line"/>
      <point x="889" y="0" type="line"/>
      <point x="889" y="1192" type="line"/>
    </contour>
    <contour>
      <point x="-15" y="1262" type="line"/>
      <point x="-15" y="1129" type="line"/>
      <point x="1104" y="1129" type="line"/>
      <point x="1104" y="1262" type="line"/>
    </contour>
    <contour>
      <point x="199" y="932"/>
      <point x="69" y="812"/>
      <point x="69" y="573" type="curve" smooth="yes"/>
      <point x="69" y="320"/>
      <point x="222" y="208"/>
      <point x="422" y="208" type="curve" smooth="yes"/>
      <point x="568" y="208"/>
      <point x="706" y="264"/>
      <point x="795" y="379" type="curve"/>
      <point x="763" y="498" type="line"/>
      <point x="669" y="397"/>
      <point x="571" y="343"/>
      <point x="428" y="343" type="curve" smooth="yes"/>
      <point x="299" y="343"/>
      <point x="228" y="398"/>
      <point x="228" y="563" type="curve" smooth="yes"/>
      <point x="228" y="731"/>
      <point x="305" y="792"/>
      <point x="467" y="794" type="curve" smooth="yes"/>
      <point x="555" y="795"/>
      <point x="669" y="776"/>
      <point x="792" y="718" type="curve"/>
      <point x="792" y="824" type="line"/>
      <point x="690" y="889"/>
      <point x="570" y="932"/>
      <point x="444" y="932" type="curve" smooth="yes"/>
    </contour>
    <contour>
      <point x="205" y="58" type="move" name="nukta"/>
    </contour>
    <contour>
      <point x="811" y="1168" type="move" name="top"/>
    </contour>
    <contour>
      <point x="519" y="1168" type="move" name="topcandra"/>
    </contour>
    <contour>
      <point x="811" y="28" type="move" name="bottom"/>
    </contour>
  </outline>
</glyph>
<glyph name="sha-deva" format="1">
  <advance width="1320"/>
  <unicode hex="0936"/>
  <outline>
    <contour>
      <point x="192" y="1282"/>
      <point x="87" y="1171"/>
      <point x="90" y="1042" type="curve" smooth="yes"/>
      <point x="92" y="949"/>
      <point x="143" y="863"/>
      <point x="278" y="793" type="curve"/>
      <point x="345" y="885" type="line"/>
      <point x="262" y="940"/>
      <point x="236" y="981"/>
      <point x="236" y="1032" type="curve" smooth="yes"/>
      <point x="236" y="1108"/>
      <point x="296" y="1152"/>
      <point x="401" y="1152" type="curve" smooth="yes"/>
      <point x="540" y="1152"/>
      <point x="589" y="1061"/>
      <point x="589" y="954" type="curve" smooth="yes"/>
      <point x="589" y="754"/>
      <point x="449" y="630"/>
      <point x="185" y="525" type="curve"/>
      <point x="292" y="433" type="line"/>
      <point x="561" y="536"/>
      <point x="743" y="700"/>
      <point x="743" y="958" type="curve" smooth="yes"/>
      <point x="743" y="1126"/>
      <point x="642" y="1282"/>
      <point x="397" y="1282" type="curve" smooth="yes"/>
    </contour>
    <contour>
      <point x="208" y="511" type="line"/>
      <point x="627" y="-33" type="line"/>
      <point x="747" y="68" type="line"/>
      <point x="314" y="555" type="line"/>
    </contour>
    <contour>
      <point x="117" y="677" type="line"/>
      <point x="82" y="614"/>
      <point x="72" y="560"/>
      <point x="71" y="525" type="curve" smooth="yes"/>
      <point x="70" y="444"/>
      <point x="131" y="408"/>
      <point x="187" y="408" type="curve" smooth="yes"/>
      <point x="238" y="408"/>
      <point x="286" y="422"/>
      <point x="377" y="468" type="curve"/>
      <point x="364" y="501" type="line"/>
      <point x="215" y="677" type="line"/>
    </contour>
    <contour>
      <point x="963" y="1194" type="line"/>
      <point x="963" y="0" type="line"/>
      <point x="1120" y="0" type="line"/>
      <point x="1120" y="1194" type="line"/>
    </contour>
    <contour>
      <point x="798" y="1262" type="line"/>
      <point x="798" y="1129" type="line"/>
      <point x="1335" y="1129" type="line"/>
      <point x="1335" y="1262" type="line"/>
    </contour>
    <contour>
      <point x="267" y="58" type="move" name="nukta"/>
    </contour>
    <contour>
      <point x="1042" y="1168" type="move" name="top"/>
    </contour>
    <contour>
      <point x="767" y="1168" type="move" name="topcandra"/>
    </contour>
    <contour>
      <point x="1042" y="28" type="move" name="bottom"/>
    </contour>
  </outline>
</glyph>
<glyph name="ha-deva" format="1">
  <advance width="1005"/>
  <unicode hex="0939"/>
  <outline>
    <contour>
      <point x="341" y="553"/>
      <point x="95" y="482"/>
      <point x="95" y="218" type="curve" smooth="yes"/>
      <point x="95" y="14"/>
      <point x="274" y="-229"/>
      <point x="787" y="-347" type="curve"/>
      <point x="822" y="-223" type="line"/>
      <point x="650" y="-177"/>
      <point x="257" y="-68"/>
      <point x="252" y="199" type="curve" smooth="yes"/>
      <point x="252" y="333"/>
      <point x="335" y="414"/>
      <point x="544" y="414" type="curve" smooth="yes"/>
      <point x="694" y="414"/>
      <point x="772" y="370"/>
      <point x="772" y="284" type="curve" smooth="yes"/>
      <point x="772" y="207"/>
      <point x="698" y="167"/>
      <point x="612" y="149" type="curve"/>
      <point x="656" y="26" type="line"/>
      <point x="801" y="46"/>
      <point x="909" y="145"/>
      <point x="909" y="283" type="curve" smooth="yes"/>
      <point x="909" y="467"/>
      <point x="762" y="553"/>
      <point x="542" y="553" type="curve" smooth="yes"/>
    </contour>
    <contour>
      <point x="677" y="1172" type="line"/>
      <point x="677" y="925" type="line"/>
      <point x="388" y="925" type="line" smooth="yes"/>
      <point x="214" y="925"/>
      <point x="123" y="854"/>
      <point x="122" y="737" type="curve" smooth="yes"/>
      <point x="121" y="641"/>
      <point x="172" y="547"/>
      <point x="265" y="435" type="curve"/>
      <point x="365" y="473" type="line"/>
      <point x="312" y="560"/>
      <point x="278" y="640"/>
      <point x="280" y="702" type="curve" smooth="yes"/>
      <point x="282" y="758"/>
      <point x="321" y="787"/>
      <point x="415" y="787" type="curve" smooth="yes"/>
      <point x="833" y="787" type="line"/>
      <point x="833" y="1172" type="line"/>
    </contour>
    <contour>
      <point x="-15" y="1262" type="line"/>
      <point x="-15" y="1129" type="line"/>
      <point x="1020" y="1129" type="line"/>
      <point x="1020" y="1262" type="line"/>
    </contour>
    <contour>
      <point x="202" y="-276" type="move" name="nukta"/>
    </contour>
    <contour>
      <point x="756" y="1168" type="move" name="top"/>
    </contour>
    <contour>
      <point x="540" y="1168" type="move" name="topcandra"/>
    </contour>
    <contour>
      <point x="700" y="-268" type="move" name="bottom"/>
    </contour>
  </outline>
</glyph>
<glyph name="iMatra-deva" format="1">
  <advance width="556"/>
  <unicode hex="093F"/>
  <outline>
    <contour>
      <point x="253" y="1781"/>
      <point x="92" y="1701"/>
      <point x="92" y="1504" type="curve" smooth="yes"/>
      <point x="92" y="1399"/>
      <point x="138" y="1303"/>
      <point x="262" y="1195" type="curve"/>
      <point x="396" y="1199" type="line"/>
      <point x="278" y="1333"/>
      <point x="252" y="1398"/>
      <point x="252" y="1470" type="curve" smooth="yes"/>
      <point x="252" y="1581"/>
      <point x="319" y="1639"/>
      <point x="506" y="1639" type="curve" smooth="yes"/>
      <point x="813" y="1639"/>
      <point x="1109" y="1533"/>
      <point x="1420" y="1342" type="curve"/>
      <point x="1479" y="1433" type="line"/>
      <point x="1151" y="1660"/>
      <point x="806" y="1781"/>
      <point x="485" y="1781" type="curve" smooth="yes"/>
    </contour>
    <contour>
      <point x="200" y="1199" type="line"/>
      <point x="200" y="1" type="line"/>
      <point x="356" y="1" type="line"/>
      <point x="356" y="1199" type="line"/>
    </contour>
    <contour>
      <point x="-15" y="1262" type="line"/>
      <point x="-15" y="1129" type="line"/>
      <point x="576" y="1129" type="line"/>
      <point x="576" y="1262" type="line"/>
    </contour>
    <contour>
      <point x="1450" y="1383" type="move" name="imatra"/>
    </contour>
    <contour>
      <point x="1274" y="1433" type="move" name="top"/>
    </contour>
    <contour>
      <point x="1325" y="1441" type="move" name="topcandra"/>
    </contour>
  </outline>
</glyph>
<glyph name="eCandraMatra-deva" format="1">
  <advance width="540"/>
  <unicode hex="0945"/>
  <outline>
    <contour>
      <point x="-49" y="1552" type="line"/>
      <point x="-1" y="1446"/>
      <point x="101" y="1345"/>
      <point x="272" y="1345" type="curve" smooth="yes"/>
      <point x="420" y="1345"/>
      <point x="528" y="1422"/>
      <point x="594" y="1560" type="curve"/>
      <point x="497" y="1617" type="line"/>
      <point x="455" y="1550"/>
      <point x="396" y="1482"/>
      <point x="276" y="1482" type="curve" smooth="yes"/>
      <point x="163" y="1482"/>
      <point x="97" y="1541"/>
      <point x="53" y="1614" type="curve"/>
    </contour>
    <contour>
      <point x="272" y="1308" type="move" name="top"/>
    </contour>
    <contour>
      <point x="274" y="1168" type="move" name="_topcandra"/>
    </contour>
  </outline>
</glyph>
<glyph name="aiMatra-deva" format="1">
  <advance width="540"/>
  <unicode hex="0948"/>
  <outline>
    <contour>
      <point x="307" y="1222" type="line"/>
      <point x="205" y="1692"/>
      <point x="71" y="1806"/>
      <point x="-217" y="1806" type="curve" smooth="yes"/>
      <point x="-302" y="1806"/>
      <point x="-359" y="1794"/>
      <point x="-407" y="1785" type="curve"/>
      <point x="-381" y="1663" type="line"/>
      <point x="-321" y="1675"/>
      <point x="-267" y="1684"/>
      <point x="-209" y="1684" type="curve" smooth="yes"/>
      <point x="-32" y="1684"/>
      <point x="91" y="1625"/>
      <point x="202" y="1304" type="curve"/>
      <point x="232" y="1313" type="line"/>
      <point x="79" y="1484"/>
      <point x="21" y="1538"/>
      <point x="-143" y="1539" type="curve" smooth="yes"/>
      <point x="-220" y="1540"/>
      <point x="-293" y="1530"/>
      <point x="-360" y="1516" type="curve"/>
      <point x="-333" y="1403" type="line"/>
      <point x="-263" y="1416"/>
      <point x="-203" y="1423"/>
      <point x="-137" y="1423" type="curve" smooth="yes"/>
      <point x="38" y="1423"/>
      <point x="113" y="1342"/>
      <point x="226" y="1192" type="curve"/>
    </contour>
    <contour>
      <point x="243" y="1168" type="move" name="_top"/>
    </contour>
  </outline>
</glyph>
<glyph name="oMatra-deva" format="1">
  <advance width="557"/>
  <unicode hex="094B"/>
  <outline>
    <component base="aaMatra-deva"/>
    <component base="eMatra-deva" xOffset="9"/>
    <contour>
      <point x="409" y="1168" type="move" name="top"/>
    </contour>
    <contour>
      <point x="567" y="1200" type="move" name="topcandra"/>
    </contour>
  </outline>
</glyph>
<glyph name="om-deva" format="1">
  <advance width="1836"/>
  <unicode hex="0950"/>
  <outline>
    <contour>
      <point x="1339" y="1018"/>
      <point x="1254" y="921"/>
      <point x="1150" y="758" type="curve" smooth="yes"/>
      <point x="1054" y="607"/>
      <point x="981" y="462"/>
      <point x="891" y="462" type="curve" smooth="yes"/>
      <point x="847" y="462"/>
      <point x="795" y="491"/>
      <point x="769" y="541" type="curve"/>
      <point x="748" y="457" type="line"/>
      <point x="804" y="346"/>
      <point x="862" y="318"/>
      <point x="923" y="319" type="curve"/>
      <point x="1049" y="322"/>
      <point x="1136" y="477"/>
      <point x="1230" y="632" type="curve" smooth="yes"/>
      <point x="1322" y="783"/>
      <point x="1382" y="881"/>
      <point x="1481" y="881" type="curve" smooth="yes"/>
      <point x="1578" y="881"/>
      <point x="1628" y="801"/>
      <point x="1628" y="660" type="curve" smooth="yes"/>
      <point x="1628" y="511"/>
      <point x="1570" y="440"/>
      <point x="1472" y="440" type="curve" smooth="yes"/>
      <point x="1358" y="440"/>
      <point x="1279" y="553"/>
      <point x="1245" y="732" type="curve"/>
      <point x="1157" y="627" type="line"/>
      <point x="1198" y="406"/>
      <point x="1329" y="302"/>
      <point x="1483" y="302" type="curve" smooth="yes"/>
      <point x="1675" y="302"/>
      <point x="1776" y="461"/>
      <point x="1776" y="666" type="curve" smooth="yes"/>
      <point x="1776" y="883"/>
      <point x="1663" y="1018"/>
      <point x="1488" y="1018" type="curve" smooth="yes"/>
    </contour>
    <contour>
      <point x="381" y="712" type="line"/>
      <point x="567" y="656"/>
      <point x="656" y="577"/>
      <point x="656" y="446" type="curve" smooth="yes"/>
      <point x="656" y="305"/>
      <point x="568" y="244"/>
      <point x="446" y="244" type="curve" smooth="yes"/>
      <point x="349" y="244"/>
      <point x="230" y="283"/>
      <point x="118" y="392" type="curve"/>
      <point x="40" y="291" type="line"/>
      <point x="169" y="157"/>
      <point x="322" y="102"/>
      <point x="457" y="102" type="curve" smooth="yes"/>
      <point x="653" y="102"/>
      <point x="814" y="220"/>
      <point x="814" y="430" type="curve" smooth="yes"/>
      <point x="814" y="611"/>
      <point x="694" y="737"/>
      <point x="468" y="758" type="curve"/>
    </contour>
    <contour>
      <point x="350" y="1272"/>
      <point x="263" y="1249"/>
      <point x="171" y="1209" type="curve"/>
      <point x="216" y="1082" type="line"/>
      <point x="307" y="1118"/>
      <point x="378" y="1133"/>
      <point x="443" y="1133" type="curve" smooth="yes"/>
      <point x="540" y="1133"/>
      <point x="615" y="1098"/>
      <point x="615" y="988" type="curve" smooth="yes"/>
      <point x="615" y="867"/>
      <point x="525" y="819"/>
      <point x="383" y="790" type="curve" smooth="yes"/>
      <point x="354" y="785"/>
      <point x="354" y="784"/>
      <point x="303" y="779" type="curve"/>
      <point x="313" y="647" type="line"/>
      <point x="329" y="647"/>
      <point x="342" y="648"/>
      <point x="363" y="650" type="curve" smooth="yes"/>
      <point x="434" y="656"/>
      <point x="515" y="672"/>
      <point x="584" y="714" type="curve" smooth="yes"/>
      <point x="700" y="777"/>
      <point x="760" y="868"/>
      <point x="760" y="996" type="curve" smooth="yes"/>
      <point x="760" y="1178"/>
      <point x="637" y="1272"/>
      <point x="445" y="1272" type="curve" smooth="yes"/>
    </contour>
    <component base="candraBindu-deva" xOffset="786" yOffset="-262"/>
  </outline>
</glyph>
<glyph name="anudatta-deva" format="1">
  <advance width="540"/>
  <unicode hex="0952"/>
  <outline>
    <contour>
      <point x="-839" y="-312" type="line"/>
      <point x="-839" y="-438" type="line"/>
      <point x="-119" y="-438" type="line"/>
      <point x="-119" y="-312" type="line"/>
    </contour>
  </outline>
</glyph>
<glyph name="ueMatra-deva" format="1">
  <advance width="540"/>
  <unicode hex="0956"/>
  <outline>
    <contour>
      <point x="-49" y="1" type="line"/>
      <point x="-1" y="-106"/>
      <point x="106" y="-209"/>
      <point x="277" y="-209" type="curve" smooth="yes"/>
      <point x="425" y="-209"/>
      <point x="533" y="-133"/>
      <point x="599" y="6" type="curve"/>
      <point x="502" y="63" type="line"/>
      <point x="460" y="-4"/>
      <point x="390" y="-73"/>
      <point x="269" y="-73" type="curve" smooth="yes"/>
      <point x="144" y="-73"/>
      <point x="78" y="-14"/>
      <point x="34" y="60" type="curve"/>
    </contour>
  </outline>
</glyph>
<glyph name="llVocalic-deva" format="1">
  <advance width="1295"/>
  <unicode hex="0961"/>
  <outline>
    <contour>
      <point x="963" y="152"/>
      <point x="887" y="26"/>
      <point x="887" y="-80" type="curve" smooth="yes"/>
      <point x="887" y="-215"/>
      <point x="990" y="-317"/>
      <point x="1160" y="-315" type="curve" smooth="yes"/>
      <point x="1270" y="-313"/>
      <point x="1377" y="-276"/>
      <point x="1453" y="-218" type="curve"/>
      <point x="1398" y="-110" type="line"/>
      <point x="1331" y="-158"/>
      <point x="1243" y="-190"/>
      <point x="1166" y="-191" type="curve" smooth="yes"/>
      <point x="1073" y="-192"/>
      <point x="1032" y="-153"/>
      <point x="1032" y="-82" type="curve" smooth="yes"/>
      <point x="1032" y="-8"/>
      <point x="1094" y="37"/>
      <point x="1255" y="54" type="curve"/>
      <point x="1240" y="169" type="line"/>
    </contour>
    <contour>
      <point x="-15" y="1262" type="line"/>
      <point x="-15" y="1129" type="line"/>
      <point x="1305" y="1129" type="line"/>
      <point x="1305" y="1262" type="line"/>
    </contour>
    <contour>
      <point x="890" y="1181" type="line"/>
      <point x="890" y="854" type="line"/>
      <point x="1047" y="854" type="line"/>
      <point x="1047" y="1181" type="line"/>
    </contour>
    <contour>
      <point x="718" y="927"/>
      <point x="581" y="791"/>
      <point x="581" y="578" type="curve" smooth="yes"/>
      <point x="581" y="542"/>
      <point x="585" y="505"/>
      <point x="596" y="468" type="curve"/>
      <point x="736" y="485" type="line"/>
      <point x="732" y="511"/>
      <point x="730" y="536"/>
      <point x="730" y="560" type="curve" smooth="yes"/>
      <point x="730" y="697"/>
      <point x="800" y="782"/>
      <point x="909" y="782" type="curve" smooth="yes"/>
      <point x="1024" y="782"/>
      <point x="1079" y="697"/>
      <point x="1079" y="561" type="curve" smooth="yes"/>
      <point x="1079" y="534"/>
      <point x="1077" y="511"/>
      <point x="1073" y="484" type="curve"/>
      <point x="1104" y="524" type="line"/>
      <point x="963" y="515"/>
      <point x="811" y="444"/>
      <point x="812" y="302" type="curve" smooth="yes"/>
      <point x="812" y="217"/>
      <point x="853" y="101"/>
      <point x="1108" y="68" type="curve"/>
      <point x="1174" y="130" type="line"/>
      <point x="1018" y="153"/>
      <point x="963" y="214"/>
      <point x="963" y="283" type="curve" smooth="yes"/>
      <point x="963" y="369"/>
      <point x="1050" y="406"/>
      <point x="1209" y="416" type="curve"/>
      <point x="1220" y="469"/>
      <point x="1225" y="523"/>
      <point x="1225" y="563" type="curve" smooth="yes"/>
      <point x="1225" y="790"/>
      <point x="1114" y="927"/>
      <point x="902" y="927" type="curve" smooth="yes"/>
    </contour>
    <contour>
      <point x="178" y="927"/>
      <point x="67" y="811"/>
      <point x="67" y="604" type="curve" smooth="yes"/>
      <point x="67" y="346"/>
      <point x="228" y="131"/>
      <point x="314" y="29" type="curve"/>
      <point x="428" y="123" type="line"/>
      <point x="326" y="254"/>
      <point x="222" y="412"/>
      <point x="222" y="583" type="curve" smooth="yes"/>
      <point x="222" y="732"/>
      <point x="302" y="782"/>
      <point x="387" y="782" type="curve" smooth="yes"/>
      <point x="502" y="782"/>
      <point x="574" y="699"/>
      <point x="639" y="572" type="curve"/>
      <point x="670" y="682" type="line"/>
      <point x="596" y="858"/>
      <point x="494" y="927"/>
      <point x="354" y="927" type="curve" smooth="yes"/>
    </contour>
    <contour>
      <point x="969" y="1168" type="move" name="top"/>
    </contour>
    <contour>
      <point x="686" y="30" type="move" name="bottom"/>
    </contour>
    <contour>
      <point x="642" y="1167" type="move" name="topcandra"/>
    </contour>
  </outline>
</glyph>
<glyph name="dbldanda-deva" format="1">
  <advance width="757"/>
  <unicode hex="0965"/>
  <outline>
    <contour>
      <point x="123" y="1262" type="line"/>
      <point x="123" y="0" type="line"/>
      <point x="280" y="0" type="line"/>
      <point x="280" y="1262" type="line"/>
    </contour>
    <contour>
      <point x="440" y="1262" type="line"/>
      <point x="440" y="0" type="line"/>
      <point x="597" y="0" type="line"/>
      <point x="597" y="1262" type="line"/>
    </contour>
  </outline>
</glyph>
<glyph name="one-deva" format="1">
  <advance width="774"/>
  <unicode hex="0967"/>
  <outline>
    <contour>
      <point x="205" y="1284"/>
      <point x="83" y="1185"/>
      <point x="83" y="1022" type="curve" smooth="yes"/>
      <point x="83" y="804"/>
      <point x="301" y="683"/>
      <point x="487" y="669" type="curve"/>
      <point x="548" y="752" type="line"/>
      <point x="377" y="785"/>
      <point x="233" y="861"/>
      <point x="235" y="1005" type="curve" smooth="yes"/>
      <point x="237" y="1092"/>
      <point x="292" y="1149"/>
      <point x="401" y="1149" type="curve" smooth="yes"/>
      <point x="513" y="1149"/>
      <point x="567" y="1088"/>
      <point x="567" y="978" type="curve" smooth="yes"/>
      <point x="567" y="794"/>
      <point x="403" y="635"/>
      <point x="136" y="493" type="curve"/>
      <point x="132" y="404" type="line"/>
      <point x="579" y="-180" type="line"/>
      <point x="710" y="-82" type="line"/>
      <point x="219" y="501" type="line"/>
      <point x="256" y="401" type="line"/>
      <point x="512" y="548"/>
      <point x="714" y="716"/>
      <point x="717" y="968" type="curve" smooth="yes"/>
      <point x="719" y="1179"/>
      <point x="582" y="1284"/>
      <point x="391" y="1284" type="curve" smooth="yes"/>
    </contour>
  </outline>
</glyph>
<glyph name="four-deva" format="1">
  <advance width="990"/>
  <unicode hex="096A"/>
  <outline>
    <contour>
      <point x="6" y="1090" type="line"/>
      <point x="246" y="993"/>
      <point x="672" y="734"/>
      <point x="672" y="443" type="curve" smooth="yes"/>
      <point x="672" y="326"/>
      <point x="625" y="250"/>
      <point x="496" y="251" type="curve" smooth="yes"/>
      <point x="385" y="252"/>
      <point x="321" y="305"/>
      <point x="321" y="453" type="curve" smooth="yes"/>
      <point x="321" y="743"/>
      <point x="678" y="912"/>
      <point x="929" y="986" type="curve"/>
      <point x="873" y="1114" type="line"/>
      <point x="670" y="1055"/>
      <point x="171" y="837"/>
      <point x="171" y="445" type="curve" smooth="yes"/>
      <point x="171" y="227"/>
      <point x="297" y="113"/>
      <point x="493" y="113" type="curve" smooth="yes"/>
      <point x="723" y="113"/>
      <point x="817" y="256"/>
      <point x="818" y="432" type="curve" smooth="yes"/>
      <point x="820" y="808"/>
      <point x="327" y="1106"/>
      <point x="69" y="1208" type="curve"/>
    </contour>
  </outline>
</glyph>
<glyph name="nine-deva" format="1">
  <advance width="832"/>
  <unicode hex="096F"/>
  <outline>
    <contour>
      <point x="215" y="1281"/>
      <point x="81" y="1165"/>
      <point x="81" y="953" type="curve" smooth="yes"/>
      <point x="81" y="777"/>
      <point x="168" y="656"/>
      <point x="334" y="456" type="curve" smooth="yes"/>
      <point x="529" y="220"/>
      <point x="622" y="138"/>
      <point x="622" y="66" type="curve" smooth="yes"/>
      <point x="622" y="-8"/>
      <point x="530" y="-46"/>
      <point x="419" y="-70" type="curve"/>
      <point x="481" y="-201" type="line"/>
      <point x="649" y="-175"/>
      <point x="776" y="-62"/>
      <point x="776" y="64" type="curve" smooth="yes"/>
      <point x="776" y="200"/>
      <point x="677" y="283"/>
      <point x="455" y="547" type="curve" smooth="yes"/>
      <point x="303" y="727"/>
      <point x="237" y="804"/>
      <point x="236" y="938" type="curve" smooth="yes"/>
      <point x="235" y="1085"/>
      <point x="313" y="1143"/>
      <point x="433" y="1143" type="curve" smooth="yes"/>
      <point x="546" y="1143"/>
      <point x="612" y="1085"/>
      <point x="613" y="976" type="curve" smooth="yes"/>
      <point x="616" y="777"/>
      <point x="433" y="708"/>
      <point x="272" y="705" type="curve"/>
      <point x="314" y="599" type="line"/>
      <point x="514" y="599"/>
      <point x="769" y="703"/>
      <point x="768" y="984" type="curve" smooth="yes"/>
      <point x="768" y="1170"/>
      <point x="636" y="1281"/>
      <point x="428" y="1281" type="curve" smooth="yes"/>
    </contour>
  </outline>
</glyph>
<glyph name="oe-deva" format="1">
  <advance width="1391"/>
  <unicode hex="0973"/>
  <outline>
    <contour>
      <point x="1030" y="1106" type="line"/>
      <point x="1185" y="1106" type="line"/>
      <point x="1185" y="1507" type="line"/>
      <point x="1030" y="1507" type="line"/>
    </contour>
    <component base="a-deva"/>
  </outline>
</glyph>
<glyph name="uue-deva" format="1">
  <advance width="1391"/>
  <unicode hex="0977"/>
  <outline>
    <contour>
      <point x="263" y="1" type="line"/>
      <point x="311" y="-106"/>
      <point x="418" y="-209"/>
      <point x="589" y="-209" type="curve" smooth="yes"/>
      <point x="737" y="-209"/>
      <point x="845" y="-133"/>
      <point x="911" y="6" type="curve"/>
      <point x="814" y="63" type="line"/>
      <point x="772" y="-4"/>
      <point x="702" y="-73"/>
      <point x="581" y="-73" type="curve" smooth="yes"/>
      <point x="456" y="-73"/>
      <point x="390" y="-14"/>
      <point x="346" y="60" type="curve"/>
    </contour>
    <contour>
      <point x="272" y="-283" type="line"/>
      <point x="320" y="-389"/>
      <point x="427" y="-493"/>
      <point x="598" y="-493" type="curve" smooth="yes"/>
      <point x="746" y="-493"/>
      <point x="854" y="-416"/>
      <point x="920" y="-278" type="curve"/>
      <point x="823" y="-221" type="line"/>
      <point x="781" y="-288"/>
      <point x="711" y="-356"/>
      <point x="590" y="-356" type="curve" smooth="yes"/>
      <point x="465" y="-356"/>
      <point x="399" y="-297"/>
      <point x="355" y="-224" type="curve"/>
    </contour>
    <component base="a-deva"/>
  </outline>
</glyph>
<glyph name="bba-deva" format="1">
  <advance width="1110"/>
  <unicode hex="097F"/>
  <outline>
    <contour>
      <point x="82" y="59" type="line"/>
      <point x="82" y="-68" type="line"/>
      <point x="911" y="-68" type="line"/>
      <point x="911" y="59" type="line"/>
    </contour>
    <component base="ba-deva"/>
  </outline>
</glyph>
<glyph name="b.sups" format="1">
  <advance width="765"/>
  <unicode hex="1D47"/>
  <outline>
    <contour>
      <point x="106" y="532" type="line" name="hr00"/>
      <point x="204" y="532" type="line"/>
      <point x="216" y="598" type="line"/>
      <point x="224" y="598" type="line"/>
      <point x="280" y="545"/>
      <point x="349" y="516"/>
      <point x="411" y="516" type="curve" smooth="yes"/>
      <point x="563" y="516"/>
      <point x="697" y="647"/>
      <point x="697" y="874" type="curve" smooth="yes"/>
      <point x="697" y="1077"/>
      <point x="604" y="1208"/>
      <point x="431" y="1208" type="curve" smooth="yes"/>
      <point x="355" y="1208"/>
      <point x="288" y="1167"/>
      <point x="226" y="1115" type="curve"/>
      <point x="232" y="1233" type="line"/>
      <point x="232" y="1493" type="line"/>
      <point x="106" y="1493" type="line"/>
    </contour>
    <contour>
      <point x="232" y="685" type="curve"/>
      <point x="232" y="1016" type="line"/>
      <point x="290" y="1072"/>
      <point x="348" y="1103"/>
      <point x="401" y="1103" type="curve" smooth="yes"/>
      <point x="517" y="1103"/>
      <point x="568" y="1014"/>
      <point x="568" y="872" type="curve" smooth="yes"/>
      <point x="568" y="713"/>
      <point x="492" y="620"/>
      <point x="393" y="620" type="curve" smooth="yes"/>
      <point x="346" y="620"/>
      <point x="286" y="638"/>
    </contour>
  </outline>
</glyph>
<glyph name="d.sups" format="1">
  <advance width="765"/>
  <unicode hex="1D48"/>
  <outline>
    <contour>
      <point x="348" y="516" type="curve" name="hr00" smooth="yes"/>
      <point x="424" y="516"/>
      <point x="483" y="557"/>
      <point x="537" y="604" type="curve"/>
      <point x="543" y="604" type="line"/>
      <point x="557" y="532" type="line"/>
      <point x="658" y="532" type="line"/>
      <point x="658" y="1493" type="line"/>
      <point x="533" y="1493" type="line"/>
      <point x="533" y="1247" type="line"/>
      <point x="540" y="1133" type="line"/>
      <point x="483" y="1180"/>
      <point x="426" y="1208"/>
      <point x="354" y="1208" type="curve" smooth="yes"/>
      <point x="207" y="1208"/>
      <point x="68" y="1079"/>
      <point x="68" y="874" type="curve" smooth="yes"/>
      <point x="68" y="645"/>
      <point x="174" y="516"/>
    </contour>
    <contour>
      <point x="377" y="620" type="curve" smooth="yes"/>
      <point x="255" y="620"/>
      <point x="198" y="713"/>
      <point x="198" y="874" type="curve" smooth="yes"/>
      <point x="198" y="1012"/>
      <point x="278" y="1105"/>
      <point x="375" y="1105" type="curve" smooth="yes"/>
      <point x="424" y="1105"/>
      <point x="477" y="1086"/>
      <point x="533" y="1036" type="curve"/>
      <point x="533" y="706" type="line"/>
      <point x="477" y="650"/>
      <point x="430" y="620"/>
    </contour>
  </outline>
</glyph>
<glyph name="u.sups" format="1">
  <advance width="757"/>
  <unicode hex="1D58"/>
  <outline>
    <contour>
      <point x="313" y="516" type="curve" name="hr00" smooth="yes"/>
      <point x="401" y="516"/>
      <point x="477" y="567"/>
      <point x="532" y="625" type="curve"/>
      <point x="539" y="625" type="line"/>
      <point x="553" y="532" type="line"/>
      <point x="652" y="532" type="line"/>
      <point x="652" y="1192" type="line"/>
      <point x="527" y="1192" type="line"/>
      <point x="527" y="720" type="line"/>
      <point x="463" y="654"/>
      <point x="408" y="624"/>
      <point x="354" y="624" type="curve" smooth="yes"/>
      <point x="251" y="624"/>
      <point x="228" y="687"/>
      <point x="228" y="793" type="curve" smooth="yes"/>
      <point x="228" y="1192" type="line"/>
      <point x="102" y="1192" type="line"/>
      <point x="102" y="774" type="line"/>
      <point x="102" y="621"/>
      <point x="160" y="516"/>
    </contour>
  </outline>
</glyph>
<glyph name="uni1E9E" format="1">
  <advance width="1354"/>
  <unicode hex="1E9E"/>
  <outline>
    <contour>
      <point x="182" y="0" type="line" name="hr01"/>
      <point x="350" y="0" type="line"/>
      <point x="350" y="823" type="line"/>
      <point x="350" y="1101"/>
      <point x="482" y="1229"/>
      <point x="700" y="1229" type="curve" smooth="yes"/>
      <point x="838" y="1229"/>
      <point x="926" y="1152"/>
      <point x="971" y="1060" type="curve"/>
      <point x="690" y="745" type="line"/>
      <point x="701" y="636" type="line"/>
      <point x="1017" y="583"/>
      <point x="1097" y="477"/>
      <point x="1097" y="350" type="curve" smooth="yes"/>
      <point x="1097" y="214"/>
      <point x="1012" y="117"/>
      <point x="867" y="117" type="curve" name="hr02" smooth="yes"/>
      <point x="769" y="117"/>
      <point x="687" y="155"/>
      <point x="608" y="241" type="curve"/>
      <point x="513" y="131" type="line"/>
      <point x="595" y="39"/>
      <point x="726" y="-25"/>
      <point x="882" y="-25" type="curve" smooth="yes"/>
      <point x="1117" y="-25"/>
      <point x="1271" y="137"/>
      <point x="1271" y="350" type="curve" smooth="yes"/>
      <point x="1271" y="545"/>
      <point x="1152" y="684"/>
      <point x="866" y="741" type="curve"/>
      <point x="1150" y="1054" type="line"/>
      <point x="1075" y="1243"/>
      <point x="933" y="1368"/>
      <point x="706" y="1368" type="curve" smooth="yes"/>
      <point x="350" y="1368"/>
      <point x="182" y="1145"/>
      <point x="182" y="854" type="curve" smooth="yes"/>
    </contour>
    <contour>
      <point x="726" y="1050" type="move" name="top"/>
    </contour>
  </outline>
</glyph>
<glyph name="uni2015" format="1">
  <advance width="1638"/>
  <unicode hex="2015"/>
  <outline>
    <contour>
      <point x="84" y="457" type="line" name="hr00"/>
      <point x="1554" y="457" type="line"/>
      <point x="1554" y="572" type="line"/>
      <point x="84" y="572" type="line"/>
    </contour>
  </outline>
</glyph>
<glyph name="daggerdbl" format="1">
  <advance width="928"/>
  <unicode hex="2021"/>
  <outline>
    <contour>
      <point x="111" y="154" type="line" name="hr00"/>
      <point x="403" y="164" type="line"/>
      <point x="393" y="-164" type="line"/>
      <point x="535" y="-164" type="line"/>
      <point x="525" y="164" type="line"/>
      <point x="817" y="154" type="line"/>
      <point x="817" y="297" type="line"/>
      <point x="525" y="283" type="line"/>
      <point x="535" y="647" type="line"/>
      <point x="525" y="1012" type="line"/>
      <point x="817" y="997" type="line"/>
      <point x="817" y="1141" type="line"/>
      <point x="525" y="1130" type="line"/>
      <point x="535" y="1458" type="line"/>
      <point x="393" y="1458" type="line"/>
      <point x="403" y="1130" type="line"/>
      <point x="111" y="1141" type="line"/>
      <point x="111" y="997" type="line"/>
      <point x="403" y="1012" type="line"/>
      <point x="393" y="647" type="line"/>
      <point x="403" y="283" type="line"/>
      <point x="111" y="297" type="line"/>
    </contour>
  </outline>
</glyph>
<glyph name="guilsinglleft" format="1">
  <advance width="554"/>
  <unicode hex="2039"/>
  <outline>
    <contour>
      <point x="371" y="135" type="line" name="hr00"/>
      <point x="443" y="193" type="line"/>
      <point x="202" y="516" type="line"/>
      <point x="443" y="836" type="line"/>
      <point x="371" y="897" type="line"/>
      <point x="92" y="579" type="line"/>
      <point x="92" y="454" type="line"/>
    </contour>
  </outline>
</glyph>
<glyph name="five.sups" format="1">
  <advance width="751"/>
  <unicode hex="2075"/>
  <outline>
    <contour>
      <point x="72" y="1032" type="line" name="hr01"/>
      <point x="135" y="942"/>
      <point x="233" y="877"/>
      <point x="375" y="877" type="curve" smooth="yes"/>
      <point x="537" y="877"/>
      <point x="661" y="989"/>
      <point x="661" y="1153" type="curve" smooth="yes"/>
      <point x="661" y="1325"/>
      <point x="543" y="1421"/>
      <point x="399" y="1421" type="curve" name="hr02" smooth="yes"/>
      <point x="351" y="1421"/>
      <point x="308" y="1407"/>
      <point x="269" y="1391" type="curve"/>
      <point x="292" y="1586" type="line"/>
      <point x="620" y="1586" type="line"/>
      <point x="620" y="1700" type="line"/>
      <point x="184" y="1700" type="line"/>
      <point x="147" y="1315" type="line" name="hr03"/>
      <point x="211" y="1269" type="line" name="hr04"/>
      <point x="254" y="1305"/>
      <point x="299" y="1334"/>
      <point x="362" y="1334" type="curve" smooth="yes"/>
      <point x="462" y="1334"/>
      <point x="531" y="1266"/>
      <point x="531" y="1157" type="curve" smooth="yes"/>
      <point x="531" y="1054"/>
      <point x="461" y="980"/>
      <point x="367" y="980" type="curve" smooth="yes"/>
      <point x="274" y="980"/>
      <point x="211" y="1025"/>
      <point x="160" y="1099" type="curve"/>
    </contour>
  </outline>
</glyph>
<glyph name="nine.sups" format="1">
  <advance width="751"/>
  <unicode hex="2079"/>
  <outline>
    <contour>
      <point x="354" y="1293" type="curve" name="hr00" smooth="yes"/>
      <point x="255" y="1293"/>
      <point x="200" y="1362"/>
      <point x="200" y="1456" type="curve" smooth="yes"/>
      <point x="200" y="1552"/>
      <point x="261" y="1621"/>
      <point x="346" y="1621" type="curve" smooth="yes"/>
      <point x="446" y="1621"/>
      <point x="519" y="1540"/>
      <point x="531" y="1382" type="curve"/>
      <point x="469" y="1316"/>
      <point x="416" y="1293"/>
    </contour>
    <contour>
      <point x="111" y="938" type="line"/>
      <point x="158" y="905"/>
      <point x="215" y="877"/>
      <point x="307" y="877" type="curve" smooth="yes"/>
      <point x="503" y="877"/>
      <point x="654" y="1020"/>
      <point x="654" y="1321" type="curve" smooth="yes"/>
      <point x="654" y="1573"/>
      <point x="534" y="1724"/>
      <point x="344" y="1724" type="curve" smooth="yes"/>
      <point x="195" y="1724"/>
      <point x="80" y="1608"/>
      <point x="80" y="1454" type="curve" smooth="yes"/>
      <point x="80" y="1303"/>
      <point x="170" y="1198"/>
      <point x="330" y="1198" type="curve" smooth="yes"/>
      <point x="406" y="1198"/>
      <point x="473" y="1227"/>
      <point x="531" y="1282" type="curve"/>
      <point x="519" y="1076"/>
      <point x="422" y="980"/>
      <point x="303" y="980" type="curve" smooth="yes"/>
      <point x="248" y="980"/>
      <point x="205" y="1003"/>
      <point x="166" y="1029" type="curve"/>
    </contour>
  </outline>
</glyph>
<glyph name="zero.subs" format="1">
  <advance width="751"/>
  <unicode hex="2080"/>
  <outline>
    <contour>
      <point x="377" y="-450" type="curve" name="hr00" smooth="yes"/>
      <point x="559" y="-450"/>
      <point x="681" y="-294"/>
      <point x="681" y="-24" type="curve" smooth="yes"/>
      <point x="681" y="247"/>
      <point x="559" y="398"/>
      <point x="377" y="398" type="curve" smooth="yes"/>
      <point x="193" y="398"/>
      <point x="72" y="247"/>
      <point x="72" y="-24" type="curve" smooth="yes"/>
      <point x="72" y="-294"/>
      <point x="193" y="-450"/>
    </contour>
    <contour>
      <point x="377" y="-345" type="curve" smooth="yes"/>
      <point x="269" y="-345"/>
      <point x="198" y="-237"/>
      <point x="198" y="-24" type="curve" smooth="yes"/>
      <point x="198" y="192"/>
      <point x="269" y="295"/>
      <point x="377" y="295" type="curve" smooth="yes"/>
      <point x="481" y="295"/>
      <point x="554" y="192"/>
      <point x="554" y="-24" type="curve" smooth="yes"/>
      <point x="554" y="-237"/>
      <point x="481" y="-345"/>
    </contour>
  </outline>
</glyph>
<glyph name="four.subs" format="1">
  <advance width="751"/>
  <unicode hex="2084"/>
  <outline>
    <contour>
      <point x="222" y="-118" type="line" name="hr00"/>
      <point x="348" y="84" type="line"/>
      <point x="451" y="250" type="line"/>
      <point x="459" y="250" type="line"/>
      <point x="451" y="29" type="line"/>
      <point x="451" y="-118" type="line"/>
    </contour>
    <contour>
      <point x="687" y="-118" type="line"/>
      <point x="568" y="-118" type="line"/>
      <point x="568" y="374" type="line"/>
      <point x="423" y="374" type="line"/>
      <point x="86" y="-144" type="line"/>
      <point x="86" y="-211" type="line"/>
      <point x="451" y="-211" type="line"/>
      <point x="451" y="-425" type="line"/>
      <point x="568" y="-425" type="line"/>
      <point x="568" y="-211" type="line"/>
      <point x="687" y="-211" type="line"/>
    </contour>
  </outline>
</glyph>
<glyph name="parenleft.subs" format="1">
  <advance width="484"/>
  <unicode hex="208D"/>
  <outline>
    <contour>
      <point x="313" y="-584" type="curve" name="hr00"/>
      <point x="405" y="-540" type="line"/>
      <point x="300" y="-378"/>
      <point x="259" y="-208"/>
      <point x="259" y="-26" type="curve" smooth="yes"/>
      <point x="259" y="157"/>
      <point x="300" y="327"/>
      <point x="405" y="486" type="curve"/>
      <point x="313" y="533" type="line"/>
      <point x="197" y="366"/>
      <point x="133" y="204"/>
      <point x="133" y="-26" type="curve" smooth="yes"/>
      <point x="133" y="-256"/>
      <point x="197" y="-418"/>
    </contour>
  </outline>
</glyph>
<glyph name="parenright.subs" format="1">
  <advance width="484"/>
  <unicode hex="208E"/>
  <outline>
    <contour>
      <point x="80" y="-540" type="curve" name="hr00"/>
      <point x="175" y="-584" type="line"/>
      <point x="288" y="-418"/>
      <point x="351" y="-256"/>
      <point x="351" y="-26" type="curve" smooth="yes"/>
      <point x="351" y="204"/>
      <point x="288" y="366"/>
      <point x="175" y="533" type="curve"/>
      <point x="80" y="486" type="line"/>
      <point x="184" y="327"/>
      <point x="225" y="157"/>
      <point x="225" y="-26" type="curve" smooth="yes"/>
      <point x="225" y="-208"/>
      <point x="184" y="-378"/>
    </contour>
  </outline>
</glyph>
<glyph name="uni0259.sups" format="1">
  <advance width="687"/>
  <unicode hex="2094"/>
  <outline>
    <contour>
      <point x="328" y="516" type="curve" name="hr00" smooth="yes"/>
      <point x="496" y="516"/>
      <point x="628" y="649"/>
      <point x="628" y="862" type="curve" smooth="yes"/>
      <point x="628" y="1079"/>
      <point x="508" y="1208"/>
      <point x="319" y="1208" type="curve" smooth="yes"/>
      <point x="231" y="1208"/>
      <point x="160" y="1176"/>
      <point x="98" y="1135" type="curve"/>
      <point x="145" y="1055" type="line"/>
      <point x="195" y="1086"/>
      <point x="246" y="1107"/>
      <point x="311" y="1107" type="curve" smooth="yes"/>
      <point x="435" y="1107"/>
      <point x="499" y="1024"/>
      <point x="505" y="899" type="curve"/>
      <point x="59" y="899" type="line"/>
      <point x="53" y="868"/>
      <point x="51" y="856"/>
      <point x="51" y="827" type="curve" smooth="yes"/>
      <point x="51" y="690"/>
      <point x="119" y="516"/>
    </contour>
    <contour>
      <point x="326" y="617" type="curve" smooth="yes"/>
      <point x="208" y="617"/>
      <point x="163" y="707"/>
      <point x="163" y="815" type="curve"/>
      <point x="505" y="815" type="line"/>
      <point x="497" y="682"/>
      <point x="426" y="617"/>
    </contour>
  </outline>
</glyph>
<glyph name="lira" format="1">
  <advance width="1017"/>
  <unicode hex="20A4"/>
  <outline>
    <contour>
      <point x="927" y="0" type="line" name="hr01"/>
      <point x="927" y="143" type="line"/>
      <point x="350" y="143" type="line"/>
      <point x="350" y="152" type="line"/>
      <point x="432" y="237"/>
      <point x="477" y="325"/>
      <point x="477" y="469" type="curve" name="hr02" smooth="yes"/>
      <point x="477" y="473"/>
      <point x="477" y="477"/>
      <point x="477" y="482" type="curve"/>
      <point x="767" y="482" type="line"/>
      <point x="767" y="582" type="line"/>
      <point x="467" y="582" type="line"/>
      <point x="461" y="623"/>
      <point x="451" y="664"/>
      <point x="438" y="702" type="curve"/>
      <point x="767" y="702" type="line"/>
      <point x="767" y="802" type="line"/>
      <point x="413" y="802" type="line" name="hr03"/>
      <point x="399" y="852"/>
      <point x="391" y="899"/>
      <point x="391" y="951" type="curve" smooth="yes"/>
      <point x="391" y="1093"/>
      <point x="471" y="1192"/>
      <point x="620" y="1192" type="curve" smooth="yes"/>
      <point x="712" y="1192"/>
      <point x="775" y="1146"/>
      <point x="827" y="1082" type="curve"/>
      <point x="925" y="1178" type="line" name="hr04"/>
      <point x="853" y="1266"/>
      <point x="753" y="1331"/>
      <point x="607" y="1331" type="curve" name="hr05" smooth="yes"/>
      <point x="381" y="1331"/>
      <point x="227" y="1186"/>
      <point x="227" y="955" type="curve" smooth="yes"/>
      <point x="227" y="903"/>
      <point x="238" y="854"/>
      <point x="252" y="802" type="curve"/>
      <point x="233" y="802" type="line"/>
      <point x="109" y="792" type="line"/>
      <point x="109" y="702" type="line"/>
      <point x="281" y="702" type="line"/>
      <point x="295" y="662"/>
      <point x="305" y="623"/>
      <point x="315" y="582" type="curve"/>
      <point x="250" y="582" type="line"/>
      <point x="109" y="571" type="line"/>
      <point x="109" y="482" type="line"/>
      <point x="328" y="482" type="line" name="hr06"/>
      <point x="328" y="477"/>
      <point x="328" y="475"/>
      <point x="328" y="471" type="curve" smooth="yes"/>
      <point x="328" y="316"/>
      <point x="250" y="177"/>
      <point x="111" y="101" type="curve"/>
      <point x="111" y="0" type="line"/>
    </contour>
  </outline>
</glyph>
<glyph name="peseta" format="1">
  <advance width="1017"/>
  <unicode hex="20A7"/>
  <outline>
    <contour>
      <point x="331" y="616" type="line" name="hr00"/>
      <point x="331" y="855" type="line"/>
      <point x="703" y="855" type="line"/>
      <point x="685" y="698"/>
      <point x="575" y="616"/>
      <point x="396" y="616" type="curve" smooth="yes"/>
    </contour>
    <contour>
      <point x="396" y="1191" type="line"/>
      <point x="575" y="1191"/>
      <point x="683" y="1129"/>
      <point x="703" y="969" type="curve"/>
      <point x="331" y="969" type="line"/>
      <point x="331" y="1191" type="line"/>
    </contour>
    <contour>
      <point x="990" y="969" type="line"/>
      <point x="863" y="969" type="line"/>
      <point x="839" y="1214"/>
      <point x="656" y="1307"/>
      <point x="417" y="1307" type="curve" smooth="yes"/>
      <point x="171" y="1307" type="line"/>
      <point x="171" y="969" type="line"/>
      <point x="20" y="958" type="line"/>
      <point x="20" y="855" type="line"/>
      <point x="171" y="855" type="line"/>
      <point x="171" y="0" type="line"/>
      <point x="331" y="0" type="line"/>
      <point x="331" y="501" type="line"/>
      <point x="417" y="501" type="line"/>
      <point x="654" y="501"/>
      <point x="839" y="615"/>
      <point x="863" y="855" type="curve"/>
      <point x="990" y="855" type="line"/>
    </contour>
  </outline>
</glyph>
<glyph name="uni2113" format="1">
  <advance width="836"/>
  <unicode hex="2113"/>
  <outline>
    <contour>
      <point x="383" y="1060" type="line" name="hr00"/>
      <point x="383" y="1258"/>
      <point x="447" y="1347"/>
      <point x="521" y="1347" type="curve" smooth="yes"/>
      <point x="589" y="1347"/>
      <point x="640" y="1293"/>
      <point x="640" y="1157" type="curve" smooth="yes"/>
      <point x="640" y="967"/>
      <point x="543" y="789"/>
      <point x="383" y="627" type="curve"/>
    </contour>
    <contour>
      <point x="754" y="207" type="line"/>
      <point x="705" y="160"/>
      <point x="649" y="117"/>
      <point x="565" y="117" type="curve" smooth="yes"/>
      <point x="465" y="117"/>
      <point x="383" y="189"/>
      <point x="383" y="380" type="curve" smooth="yes"/>
      <point x="383" y="453" type="line"/>
      <point x="632" y="664"/>
      <point x="782" y="901"/>
      <point x="782" y="1158" type="curve" smooth="yes"/>
      <point x="782" y="1362"/>
      <point x="672" y="1475"/>
      <point x="517" y="1475" type="curve" smooth="yes"/>
      <point x="347" y="1475"/>
      <point x="219" y="1348"/>
      <point x="219" y="1031" type="curve" smooth="yes"/>
      <point x="219" y="482" type="line"/>
      <point x="164" y="439"/>
      <point x="104" y="398"/>
      <point x="43" y="357" type="curve"/>
      <point x="111" y="252" type="line"/>
      <point x="147" y="277"/>
      <point x="184" y="302"/>
      <point x="219" y="327" type="curve"/>
      <point x="220" y="313"/>
      <point x="221" y="298"/>
      <point x="223" y="285" type="curve" smooth="yes"/>
      <point x="248" y="80"/>
      <point x="385" y="-25"/>
      <point x="544" y="-25" type="curve" smooth="yes"/>
      <point x="662" y="-25"/>
      <point x="752" y="41"/>
      <point x="821" y="104" type="curve"/>
    </contour>
  </outline>
</glyph>
<glyph name="uni2117" format="1">
  <advance width="1521"/>
  <unicode hex="2117"/>
  <outline>
    <contour>
      <point x="518" y="281" type="line" name="hr00"/>
      <point x="650" y="281" type="line"/>
      <point x="650" y="517" type="line"/>
      <point x="801" y="517" type="line"/>
      <point x="969" y="517"/>
      <point x="1104" y="605"/>
      <point x="1104" y="784" type="curve" smooth="yes"/>
      <point x="1104" y="950"/>
      <point x="971" y="1024"/>
      <point x="801" y="1024" type="curve" smooth="yes"/>
      <point x="518" y="1024" type="line"/>
    </contour>
    <contour>
      <point x="650" y="618" type="line"/>
      <point x="650" y="921" type="line"/>
      <point x="778" y="921" type="line"/>
      <point x="899" y="921"/>
      <point x="972" y="880"/>
      <point x="972" y="780" type="curve" smooth="yes"/>
      <point x="972" y="668"/>
      <point x="901" y="618"/>
      <point x="778" y="618" type="curve" smooth="yes"/>
    </contour>
    <contour>
      <point x="85" y="664" type="curve" smooth="yes"/>
      <point x="85" y="232"/>
      <point x="400" y="-44"/>
      <point x="766" y="-44" type="curve" smooth="yes"/>
      <point x="1133" y="-44"/>
      <point x="1447" y="232"/>
      <point x="1447" y="664" type="curve" smooth="yes"/>
      <point x="1447" y="1093"/>
      <point x="1133" y="1362"/>
      <point x="766" y="1362" type="curve" smooth="yes"/>
      <point x="400" y="1362"/>
      <point x="85" y="1093"/>
    </contour>
    <contour>
      <point x="185" y="664" type="curve" smooth="yes"/>
      <point x="185" y="1032"/>
      <point x="449" y="1276"/>
      <point x="766" y="1276" type="curve" smooth="yes"/>
      <point x="1085" y="1276"/>
      <point x="1349" y="1032"/>
      <point x="1349" y="664" type="curve" smooth="yes"/>
      <point x="1349" y="293"/>
      <point x="1085" y="46"/>
      <point x="766" y="46" type="curve" smooth="yes"/>
      <point x="449" y="46"/>
      <point x="185" y="293"/>
    </contour>
  </outline>
</glyph>
<glyph name="partialdiff" format="1">
  <advance width="1079"/>
  <unicode hex="2202"/>
  <outline>
    <contour>
      <point x="470" y="113" type="curve" name="hr00" smooth="yes"/>
      <point x="346" y="113"/>
      <point x="240" y="216"/>
      <point x="240" y="379" type="curve" smooth="yes"/>
      <point x="240" y="559"/>
      <point x="336" y="697"/>
      <point x="540" y="697" type="curve" smooth="yes"/>
      <point x="631" y="697"/>
      <point x="727" y="656"/>
      <point x="820" y="542" type="curve"/>
      <point x="777" y="270"/>
      <point x="647" y="113"/>
    </contour>
    <contour>
      <point x="316" y="1134" type="line"/>
      <point x="380" y="1199"/>
      <point x="461" y="1239"/>
      <point x="547" y="1239" type="curve" smooth="yes"/>
      <point x="723" y="1239"/>
      <point x="834" y="1096"/>
      <point x="834" y="752" type="curve" smooth="yes"/>
      <point x="834" y="729"/>
      <point x="834" y="707"/>
      <point x="831" y="683" type="curve"/>
      <point x="752" y="775"/>
      <point x="637" y="831"/>
      <point x="526" y="831" type="curve" smooth="yes"/>
      <point x="250" y="831"/>
      <point x="82" y="639"/>
      <point x="82" y="369" type="curve" smooth="yes"/>
      <point x="82" y="125"/>
      <point x="258" y="-25"/>
      <point x="454" y="-25" type="curve" smooth="yes"/>
      <point x="777" y="-25"/>
      <point x="996" y="287"/>
      <point x="996" y="748" type="curve" smooth="yes"/>
      <point x="996" y="1170"/>
      <point x="826" y="1376"/>
      <point x="562" y="1376" type="curve" smooth="yes"/>
      <point x="436" y="1376"/>
      <point x="326" y="1325"/>
      <point x="240" y="1239" type="curve"/>
    </contour>
  </outline>
</glyph>
<glyph name="product" format="1">
  <advance width="1376"/>
  <unicode hex="220F"/>
  <outline>
    <contour>
      <point x="182" y="-246" type="line" name="hr00"/>
      <point x="350" y="-246" type="line"/>
      <point x="350" y="1159" type="line"/>
      <point x="1025" y="1159" type="line"/>
      <point x="1025" y="-246" type="line"/>
      <point x="1197" y="-246" type="line"/>
      <point x="1197" y="1307" type="line"/>
      <point x="182" y="1307" type="line"/>
    </contour>
  </outline>
</glyph>
<glyph name="integral" format="1">
  <advance width="678"/>
  <unicode hex="222B"/>
  <outline>
    <contour>
      <point x="127" y="-183" type="curve" name="hr01"/>
      <point x="106" y="-309" type="line"/>
      <point x="125" y="-317"/>
      <point x="162" y="-324"/>
      <point x="205" y="-324" type="curve" smooth="yes"/>
      <point x="437" y="-324"/>
      <point x="485" y="-123"/>
      <point x="485" y="144" type="curve" smooth="yes"/>
      <point x="485" y="448"/>
      <point x="401" y="857"/>
      <point x="401" y="1154" type="curve" smooth="yes"/>
      <point x="401" y="1365"/>
      <point x="422" y="1486"/>
      <point x="535" y="1486" type="curve" name="hr02" smooth="yes"/>
      <point x="563" y="1486"/>
      <point x="588" y="1482"/>
      <point x="606" y="1478" type="curve"/>
      <point x="627" y="1604" type="line"/>
      <point x="610" y="1610"/>
      <point x="571" y="1616"/>
      <point x="531" y="1616" type="curve" smooth="yes"/>
      <point x="297" y="1616"/>
      <point x="248" y="1413"/>
      <point x="248" y="1149" type="curve" smooth="yes"/>
      <point x="248" y="847"/>
      <point x="334" y="435"/>
      <point x="334" y="136" type="curve" smooth="yes"/>
      <point x="334" y="-77"/>
      <point x="313" y="-191"/>
      <point x="197" y="-191" type="curve" name="hr03" smooth="yes"/>
      <point x="168" y="-191"/>
      <point x="143" y="-189"/>
    </contour>
  </outline>
</glyph>
<glyph name="triagup" format="1">
  <advance width="1168"/>
  <unicode hex="25B2"/>
  <outline>
    <contour>
      <point x="47" y="79" type="line"/>
      <point x="1121" y="79" type="line"/>
      <point x="1121" y="83" type="line"/>
      <point x="590" y="1094" type="line"/>
      <point x="582" y="1094" type="line"/>
      <point x="47" y="83" type="line"/>
    </contour>
  </outline>
</glyph>
<glyph name="lozenge" format="1">
  <advance width="1058"/>
  <unicode hex="25CA"/>
  <outline>
    <contour>
      <point x="453" y="-20" type="line" name="hr00"/>
      <point x="605" y="-20" type="line"/>
      <point x="943" y="676" type="line"/>
      <point x="605" y="1372" type="line"/>
      <point x="453" y="1372" type="line"/>
      <point x="115" y="676" type="line"/>
    </contour>
    <contour>
      <point x="525" y="119" type="line"/>
      <point x="396" y="392" type="line"/>
      <point x="263" y="676" type="line"/>
      <point x="396" y="957" type="line"/>
      <point x="525" y="1233" type="line"/>
      <point x="534" y="1233" type="line"/>
      <point x="662" y="957" type="line"/>
      <point x="795" y="676" type="line"/>
      <point x="662" y="392" type="line"/>
      <point x="534" y="119" type="line"/>
    </contour>
  </outline>
</glyph>
<glyph name="uni2610" format="1">
  <advance width="1635"/>
  <unicode hex="2610"/>
  <outline>
    <contour>
      <point x="239" y="67" type="line"/>
      <point x="239" y="1223" type="line"/>
      <point x="1331" y="1223" type="line"/>
      <point x="1331" y="67" type="line"/>
    </contour>
    <contour>
      <point x="152" y="-20" type="line"/>
      <point x="1376" y="-20" type="line"/>
      <point x="1485" y="104" type="line"/>
      <point x="1485" y="1374" type="line"/>
      <point x="276" y="1374" type="line"/>
      <point x="152" y="1270" type="line"/>
    </contour>
  </outline>
</glyph>
<glyph name="uni266A" format="1">
  <advance width="1028"/>
  <unicode hex="266A"/>
  <outline>
    <contour>
      <point x="59" y="106" type="curve" smooth="yes"/>
      <point x="59" y="4"/>
      <point x="156" y="-49"/>
      <point x="266" y="-49" type="curve" smooth="yes"/>
      <point x="454" y="-49"/>
      <point x="617" y="68"/>
      <point x="617" y="292" type="curve" smooth="yes"/>
      <point x="617" y="1127" type="line"/>
      <point x="781" y="1075"/>
      <point x="873" y="948"/>
      <point x="873" y="819" type="curve" smooth="yes"/>
      <point x="873" y="745"/>
      <point x="867" y="696"/>
      <point x="847" y="631" type="curve"/>
      <point x="919" y="604" type="line"/>
      <point x="949" y="668"/>
      <point x="984" y="766"/>
      <point x="984" y="872" type="curve" smooth="yes"/>
      <point x="984" y="1028"/>
      <point x="935" y="1143"/>
      <point x="751" y="1274" type="curve" smooth="yes"/>
      <point x="648" y="1348"/>
      <point x="628" y="1366"/>
      <point x="607" y="1421" type="curve"/>
      <point x="506" y="1421" type="line"/>
      <point x="506" y="321" type="line"/>
      <point x="487" y="333"/>
      <point x="436" y="345"/>
      <point x="383" y="345" type="curve" smooth="yes"/>
      <point x="193" y="345"/>
      <point x="59" y="231"/>
    </contour>
  </outline>
</glyph>
<glyph name="Iacute.a" format="1">
  <advance width="703"/>
  <outline>
    <contour>
      <point x="94" y="0" type="line"/>
      <point x="605" y="0" type="line"/>
      <point x="605" y="143" type="line"/>
      <point x="434" y="143" type="line"/>
      <point x="434" y="1202" type="line"/>
      <point x="605" y="1202" type="line"/>
      <point x="605" y="1343" type="line"/>
      <point x="94" y="1343" type="line"/>
      <point x="94" y="1202" type="line"/>
      <point x="266" y="1202" type="line"/>
      <point x="266" y="143" type="line"/>
      <point x="94" y="143" type="line"/>
    </contour>
    <contour>
      <point x="619" y="1675" type="line"/>
      <point x="428" y="1675" type="line"/>
      <point x="248" y="1446" type="line"/>
      <point x="387" y="1446" type="line"/>
    </contour>
  </outline>
</glyph>
<glyph name="Idotaccent.a" format="1">
  <advance width="703"/>
  <outline>
    <contour>
      <point x="94" y="0" type="line"/>
      <point x="605" y="0" type="line"/>
      <point x="605" y="143" type="line"/>
      <point x="434" y="143" type="line"/>
      <point x="434" y="1202" type="line"/>
      <point x="605" y="1202" type="line"/>
      <point x="605" y="1343" type="line"/>
      <point x="94" y="1343" type="line"/>
      <point x="94" y="1202" type="line"/>
      <point x="266" y="1202" type="line"/>
      <point x="266" y="143" type="line"/>
      <point x="94" y="143" type="line"/>
    </contour>
    <contour>
      <point x="351" y="1462" type="curve" smooth="yes"/>
      <point x="417" y="1462"/>
      <point x="467" y="1507"/>
      <point x="467" y="1573" type="curve" smooth="yes"/>
      <point x="467" y="1635"/>
      <point x="417" y="1680"/>
      <point x="351" y="1680" type="curve" smooth="yes"/>
      <point x="287" y="1680"/>
      <point x="236" y="1635"/>
      <point x="236" y="1573" type="curve" smooth="yes"/>
      <point x="236" y="1507"/>
      <point x="287" y="1462"/>
    </contour>
  </outline>
</glyph>
<glyph name="aiMatra_reph_anusvara-deva" format="1">
  <advance width="540"/>
  <outline>
    <component base="aiMatra-deva"/>
    <component base="reph_anusvara-deva" xOffset="44" yOffset="-6"/>
    <contour>
      <point x="439" y="1547" type="move" name="topcandra"/>
    </contour>
    <contour>
      <point x="260" y="1168" type="move" name="_top"/>
    </contour>
  </outline>
</glyph>
<glyph name="at.case" format="1">
  <advance width="1600"/>
  <outline>
    <contour>
      <point x="104" y="594" type="curve" name="hr01" smooth="yes"/>
      <point x="104" y="165"/>
      <point x="398" y="-49"/>
      <point x="752" y="-49" type="curve" smooth="yes"/>
      <point x="869" y="-49"/>
      <point x="976" y="-25"/>
      <point x="1078" y="35" type="curve"/>
      <point x="1032" y="128" type="line"/>
      <point x="956" y="81"/>
      <point x="860" y="58"/>
      <point x="763" y="58" type="curve" smooth="yes"/>
      <point x="464" y="58"/>
      <point x="224" y="229"/>
      <point x="224" y="600" type="curve" smooth="yes"/>
      <point x="224" y="1026"/>
      <point x="540" y="1301"/>
      <point x="873" y="1301" type="curve" smooth="yes"/>
      <point x="1205" y="1301"/>
      <point x="1380" y="1101"/>
      <point x="1380" y="805" type="curve" smooth="yes"/>
      <point x="1380" y="553"/>
      <point x="1248" y="417"/>
      <point x="1142" y="417" type="curve" smooth="yes"/>
      <point x="1046" y="417"/>
      <point x="1019" y="486"/>
      <point x="1056" y="651" type="curve" smooth="yes"/>
      <point x="1138" y="1016" type="line"/>
      <point x="1024" y="1016" type="line"/>
      <point x="999" y="934" type="line" name="hr02"/>
      <point x="995" y="934" type="line"/>
      <point x="961" y="1001"/>
      <point x="905" y="1032"/>
      <point x="840" y="1032" type="curve" smooth="yes"/>
      <point x="607" y="1032"/>
      <point x="467" y="793"/>
      <point x="467" y="584" type="curve" smooth="yes"/>
      <point x="467" y="424"/>
      <point x="567" y="319"/>
      <point x="688" y="319" type="curve" smooth="yes"/>
      <point x="784" y="319"/>
      <point x="871" y="381"/>
      <point x="934" y="461" type="curve"/>
      <point x="938" y="461" type="line"/>
      <point x="949" y="362"/>
      <point x="1019" y="303"/>
      <point x="1123" y="303" type="curve" name="hr03" smooth="yes"/>
      <point x="1312" y="303"/>
      <point x="1497" y="483"/>
      <point x="1497" y="813" type="curve" smooth="yes"/>
      <point x="1497" y="1171"/>
      <point x="1254" y="1409"/>
      <point x="890" y="1409" type="curve" smooth="yes"/>
      <point x="467" y="1409"/>
      <point x="104" y="1087"/>
    </contour>
    <contour>
      <point x="724" y="433" type="curve" name="hr04" smooth="yes"/>
      <point x="654" y="433"/>
      <point x="600" y="486"/>
      <point x="600" y="598" type="curve" smooth="yes"/>
      <point x="600" y="739"/>
      <point x="693" y="919"/>
      <point x="840" y="919" type="curve" smooth="yes"/>
      <point x="895" y="919"/>
      <point x="926" y="898"/>
      <point x="963" y="835" type="curve"/>
      <point x="907" y="553" type="line"/>
      <point x="838" y="470"/>
      <point x="777" y="433"/>
    </contour>
  </outline>
</glyph>
<glyph name="b-deva" format="1">
  <advance width="615"/>
  <outline>
    <contour>
      <point x="319" y="942"/>
      <point x="91" y="891"/>
      <point x="91" y="566" type="curve" smooth="yes"/>
      <point x="91" y="366"/>
      <point x="185" y="198"/>
      <point x="433" y="198" type="curve" smooth="yes"/>
      <point x="577" y="198"/>
      <point x="727" y="251"/>
      <point x="837" y="411" type="curve"/>
      <point x="814" y="577" type="line"/>
      <point x="721" y="421"/>
      <point x="613" y="323"/>
      <point x="454" y="323" type="curve" smooth="yes"/>
      <point x="312" y="323"/>
      <point x="245" y="393"/>
      <point x="245" y="560" type="curve" smooth="yes"/>
      <point x="245" y="783"/>
      <point x="357" y="810"/>
      <point x="492" y="813" type="curve" smooth="yes"/>
      <point x="588" y="814"/>
      <point x="739" y="777"/>
      <point x="845" y="691" type="curve"/>
      <point x="887" y="808" type="line"/>
      <point x="796" y="894"/>
      <point x="624" y="939"/>
      <point x="492" y="940" type="curve" smooth="yes"/>
    </contour>
    <contour>
      <point x="-15" y="1262" type="line"/>
      <point x="-15" y="1129" type="line"/>
      <point x="630" y="1129" type="line"/>
      <point x="630" y="1262" type="line"/>
    </contour>
    <contour>
      <point x="238" y="779" type="line"/>
      <point x="706" y="306" type="line"/>
      <point x="784" y="388" type="line"/>
      <point x="316" y="862" type="line"/>
    </contour>
  </outline>
</glyph>
<glyph name="b_ja-deva" format="1">
  <advance width="2035"/>
  <outline>
    <contour>
      <point x="269" y="940"/>
      <point x="41" y="891"/>
      <point x="41" y="566" type="curve" smooth="yes"/>
      <point x="41" y="366"/>
      <point x="135" y="198"/>
      <point x="383" y="198" type="curve" smooth="yes"/>
      <point x="527" y="198"/>
      <point x="683" y="257"/>
      <point x="794" y="418" type="curve"/>
      <point x="764" y="577" type="line"/>
      <point x="671" y="421"/>
      <point x="563" y="323"/>
      <point x="404" y="323" type="curve" smooth="yes"/>
      <point x="262" y="323"/>
      <point x="195" y="393"/>
      <point x="195" y="560" type="curve" smooth="yes"/>
      <point x="195" y="783"/>
      <point x="307" y="813"/>
      <point x="442" y="813" type="curve" smooth="yes"/>
      <point x="503" y="813"/>
      <point x="541" y="810"/>
      <point x="581" y="795" type="curve"/>
      <point x="613" y="911" type="line"/>
      <point x="558" y="933"/>
      <point x="505" y="940"/>
      <point x="442" y="940" type="curve" smooth="yes"/>
    </contour>
    <contour>
      <point x="-55" y="1262" type="line"/>
      <point x="-55" y="1129" type="line"/>
      <point x="689" y="1129" type="line"/>
      <point x="689" y="1262" type="line"/>
    </contour>
    <contour>
      <point x="188" y="779" type="line"/>
      <point x="656" y="306" type="line"/>
      <point x="734" y="388" type="line"/>
      <point x="266" y="862" type="line"/>
    </contour>
    <component base="ja-deva" xOffset="615"/>
  </outline>
</glyph>
<glyph name="ca_ra-deva" format="1">
  <advance width="1235"/>
  <outline>
    <contour>
      <point x="230" y="37" type="line"/>
      <point x="316" y="-80" type="line"/>
      <point x="936" y="349" type="line"/>
      <point x="888" y="432" type="line"/>
    </contour>
    <component base="ca-deva"/>
    <contour>
      <point x="959" y="1168" type="move" name="top"/>
    </contour>
    <contour>
      <point x="957" y="28" type="move" name="bottom"/>
    </contour>
    <contour>
      <point x="617" y="1167" type="move" name="topcandra"/>
    </contour>
  </outline>
</glyph>
<glyph name="caron.cap" format="1">
  <advance width="0"/>
  <outline>
    <contour>
      <point x="141" y="1675" type="line" name="hr00"/>
      <point x="4" y="1536" type="line"/>
      <point x="-4" y="1536" type="line"/>
      <point x="-141" y="1675" type="line"/>
      <point x="-278" y="1675" type="line"/>
      <point x="-81" y="1446" type="line"/>
      <point x="81" y="1446" type="line"/>
      <point x="278" y="1675" type="line"/>
    </contour>
    <contour>
      <point x="0" y="1050" type="move" name="_top"/>
    </contour>
  </outline>
</glyph>
<glyph name="ch-deva" format="1">
  <advance width="1257"/>
  <outline>
    <contour>
      <point x="731" y="977"/>
      <point x="651" y="866"/>
      <point x="652" y="740" type="curve" smooth="yes"/>
      <point x="653" y="645"/>
      <point x="701" y="560"/>
      <point x="780" y="485" type="curve"/>
      <point x="867" y="555" type="line"/>
      <point x="816" y="620"/>
      <point x="790" y="672"/>
      <point x="790" y="730" type="curve" smooth="yes"/>
      <point x="790" y="809"/>
      <point x="837" y="854"/>
      <point x="910" y="854" type="curve" smooth="yes"/>
      <point x="989" y="854"/>
      <point x="1045" y="801"/>
      <point x="1046" y="659" type="curve" smooth="yes"/>
      <point x="1048" y="390"/>
      <point x="805" y="215"/>
      <point x="543" y="215" type="curve" smooth="yes"/>
      <point x="337" y="215"/>
      <point x="254" y="296"/>
      <point x="254" y="421" type="curve" smooth="yes"/>
      <point x="254" y="593"/>
      <point x="407" y="617"/>
      <point x="552" y="619" type="curve"/>
      <point x="548" y="752" type="line"/>
      <point x="533" y="752"/>
      <point x="518" y="753"/>
      <point x="505" y="752" type="curve" smooth="yes"/>
      <point x="245" y="747"/>
      <point x="92" y="619"/>
      <point x="92" y="432" type="curve" smooth="yes"/>
      <point x="92" y="231"/>
      <point x="243" y="75"/>
      <point x="546" y="75" type="curve" smooth="yes"/>
      <point x="883" y="75"/>
      <point x="1191" y="312"/>
      <point x="1191" y="658" type="curve" smooth="yes"/>
      <point x="1191" y="884"/>
      <point x="1062" y="977"/>
      <point x="904" y="977" type="curve" smooth="yes"/>
    </contour>
    <contour>
      <point x="239" y="1195"/>
      <point x="88" y="1117"/>
      <point x="90" y="930" type="curve" smooth="yes"/>
      <point x="93" y="820"/>
      <point x="170" y="727"/>
      <point x="354" y="649" type="curve"/>
      <point x="438" y="699" type="line"/>
      <point x="294" y="772"/>
      <point x="252" y="839"/>
      <point x="252" y="935" type="curve" smooth="yes"/>
      <point x="252" y="1039"/>
      <point x="337" y="1120"/>
      <point x="485" y="1133" type="curve"/>
      <point x="504" y="1207" type="line"/>
    </contour>
    <contour>
      <point x="-10" y="1262" type="line"/>
      <point x="-10" y="1129" type="line"/>
      <point x="1272" y="1129" type="line"/>
      <point x="1272" y="1262" type="line"/>
    </contour>
  </outline>
</glyph>
<glyph name="ch_va-deva" format="1">
  <advance width="1326"/>
  <outline>
    <contour>
      <point x="807" y="997"/>
      <point x="730" y="901"/>
      <point x="730" y="779" type="curve" smooth="yes"/>
      <point x="731" y="694"/>
      <point x="776" y="617"/>
      <point x="853" y="544" type="curve"/>
      <point x="940" y="593" type="line"/>
      <point x="888" y="661"/>
      <point x="872" y="707"/>
      <point x="872" y="757" type="curve" smooth="yes"/>
      <point x="872" y="828"/>
      <point x="915" y="879"/>
      <point x="993" y="879" type="curve" smooth="yes"/>
      <point x="1072" y="879"/>
      <point x="1127" y="820"/>
      <point x="1128" y="701" type="curve" smooth="yes"/>
      <point x="1129" y="487"/>
      <point x="890" y="317"/>
      <point x="582" y="317" type="curve" smooth="yes"/>
      <point x="374" y="317"/>
      <point x="291" y="386"/>
      <point x="291" y="507" type="curve" smooth="yes"/>
      <point x="291" y="666"/>
      <point x="448" y="690"/>
      <point x="589" y="692" type="curve"/>
      <point x="585" y="824" type="line"/>
      <point x="570" y="825"/>
      <point x="555" y="825"/>
      <point x="542" y="825" type="curve" smooth="yes"/>
      <point x="282" y="819"/>
      <point x="129" y="690"/>
      <point x="129" y="508" type="curve" smooth="yes"/>
      <point x="129" y="320"/>
      <point x="280" y="178"/>
      <point x="586" y="178" type="curve" smooth="yes"/>
      <point x="971" y="178"/>
      <point x="1274" y="410"/>
      <point x="1274" y="703" type="curve" smooth="yes"/>
      <point x="1274" y="908"/>
      <point x="1144" y="1000"/>
      <point x="991" y="999" type="curve" smooth="yes"/>
    </contour>
    <contour>
      <point x="471" y="79"/>
      <point x="346" y="-40"/>
      <point x="346" y="-235" type="curve" smooth="yes"/>
      <point x="346" y="-425"/>
      <point x="469" y="-551"/>
      <point x="662" y="-551" type="curve" smooth="yes"/>
      <point x="774" y="-551"/>
      <point x="908" y="-509"/>
      <point x="984" y="-391" type="curve"/>
      <point x="945" y="-279" type="line"/>
      <point x="885" y="-368"/>
      <point x="779" y="-423"/>
      <point x="667" y="-423" type="curve" smooth="yes"/>
      <point x="558" y="-423"/>
      <point x="496" y="-368"/>
      <point x="496" y="-245" type="curve" smooth="yes"/>
      <point x="496" y="-97"/>
      <point x="580" y="-58"/>
      <point x="690" y="-54" type="curve" smooth="yes"/>
      <point x="762" y="-52"/>
      <point x="867" y="-65"/>
      <point x="975" y="-111" type="curve"/>
      <point x="975" y="-18" type="line"/>
      <point x="892" y="48"/>
      <point x="783" y="79"/>
      <point x="674" y="79" type="curve" smooth="yes"/>
    </contour>
    <contour>
      <point x="914" y="327" type="line"/>
      <point x="914" y="-630" type="line"/>
      <point x="1063" y="-630" type="line"/>
      <point x="1063" y="327" type="line"/>
    </contour>
    <contour>
      <point x="284" y="1214"/>
      <point x="131" y="1164"/>
      <point x="131" y="983" type="curve" smooth="yes"/>
      <point x="131" y="892"/>
      <point x="199" y="794"/>
      <point x="392" y="711" type="curve"/>
      <point x="476" y="761" type="line"/>
      <point x="335" y="833"/>
      <point x="290" y="902"/>
      <point x="290" y="984" type="curve" smooth="yes"/>
      <point x="290" y="1085"/>
      <point x="355" y="1137"/>
      <point x="511" y="1151" type="curve"/>
      <point x="530" y="1225" type="line"/>
    </contour>
    <contour>
      <point x="-15" y="1262" type="line"/>
      <point x="-15" y="1129" type="line"/>
      <point x="1341" y="1129" type="line"/>
      <point x="1341" y="1262" type="line"/>
    </contour>
    <contour>
      <point x="915" y="1218" type="line"/>
      <point x="915" y="916" type="line"/>
      <point x="1068" y="916" type="line"/>
      <point x="1068" y="1218" type="line"/>
    </contour>
    <contour>
      <point x="992" y="1168" type="move" name="top"/>
    </contour>
    <contour>
      <point x="989" y="-612" type="move" name="bottom"/>
    </contour>
    <contour>
      <point x="692" y="1168" type="move" name="topcandra"/>
    </contour>
  </outline>
</glyph>
<glyph name="comma.sups" format="1">
  <advance width="361"/>
  <outline>
    <contour>
      <point x="100" y="664" type="line" name="hr00"/>
      <point x="220" y="709"/>
      <point x="294" y="809"/>
      <point x="294" y="930" type="curve" smooth="yes"/>
      <point x="294" y="1027"/>
      <point x="253" y="1078"/>
      <point x="185" y="1078" type="curve" smooth="yes"/>
      <point x="135" y="1078"/>
      <point x="90" y="1041"/>
      <point x="90" y="984" type="curve" smooth="yes"/>
      <point x="90" y="928"/>
      <point x="135" y="899"/>
      <point x="182" y="899" type="curve" smooth="yes"/>
      <point x="188" y="899"/>
      <point x="193" y="899"/>
      <point x="199" y="901" type="curve"/>
      <point x="197" y="823"/>
      <point x="147" y="770"/>
      <point x="68" y="739" type="curve"/>
    </contour>
  </outline>
</glyph>
<glyph name="d_ba-deva" format="1">
  <advance width="1008"/>
  <outline>
    <contour>
      <point x="-15" y="1262" type="line"/>
      <point x="-15" y="1129" type="line"/>
      <point x="1023" y="1129" type="line"/>
      <point x="1023" y="1262" type="line"/>
    </contour>
    <contour>
      <point x="633" y="1163" type="line"/>
      <point x="633" y="856" type="line"/>
      <point x="721" y="880" type="line"/>
      <point x="653" y="897"/>
      <point x="592" y="904"/>
      <point x="540" y="904" type="curve" smooth="yes"/>
      <point x="197" y="904"/>
      <point x="70" y="748"/>
      <point x="70" y="505" type="curve" smooth="yes"/>
      <point x="70" y="256"/>
      <point x="225" y="88"/>
      <point x="534" y="88" type="curve" smooth="yes"/>
      <point x="646" y="88"/>
      <point x="737" y="106"/>
      <point x="816" y="159" type="curve" smooth="yes"/>
      <point x="879" y="201"/>
      <point x="912" y="268"/>
      <point x="912" y="324" type="curve" smooth="yes"/>
      <point x="912" y="411"/>
      <point x="831" y="480"/>
      <point x="723" y="511" type="curve"/>
      <point x="632" y="435" type="line"/>
      <point x="731" y="236" type="line"/>
      <point x="783" y="297" type="line"/>
      <point x="687" y="236"/>
      <point x="618" y="216"/>
      <point x="523" y="216" type="curve" smooth="yes"/>
      <point x="345" y="216"/>
      <point x="233" y="286"/>
      <point x="233" y="489" type="curve" smooth="yes"/>
      <point x="233" y="697"/>
      <point x="339" y="764"/>
      <point x="566" y="764" type="curve" smooth="yes"/>
      <point x="670" y="764"/>
      <point x="750" y="759"/>
      <point x="790" y="756" type="curve"/>
      <point x="790" y="1163" type="line"/>
    </contour>
    <contour>
      <point x="723" y="-46"/>
      <point x="617" y="-279"/>
      <point x="406" y="-278" type="curve" smooth="yes"/>
      <point x="306" y="-277"/>
      <point x="240" y="-220"/>
      <point x="240" y="-132" type="curve" smooth="yes"/>
      <point x="239" y="8"/>
      <point x="364" y="73"/>
      <point x="449" y="122" type="curve"/>
      <point x="397" y="218" type="line"/>
      <point x="313" y="174"/>
      <point x="99" y="67"/>
      <point x="98" y="-132" type="curve" smooth="yes"/>
      <point x="97" y="-291"/>
      <point x="209" y="-401"/>
      <point x="395" y="-402" type="curve" smooth="yes"/>
      <point x="750" y="-403"/>
      <point x="848" y="-26"/>
      <point x="846" y="211" type="curve"/>
      <point x="748" y="267" type="line"/>
    </contour>
    <contour>
      <point x="278" y="56" type="line"/>
      <point x="622" y="-289" type="line"/>
      <point x="689" y="-203" type="line"/>
      <point x="346" y="141" type="line"/>
    </contour>
    <contour>
      <point x="758" y="214" type="line"/>
      <point x="938" y="-129" type="line"/>
      <point x="1053" y="-54" type="line"/>
      <point x="842" y="256" type="line"/>
    </contour>
    <contour>
      <point x="712" y="1168" type="move" name="top"/>
    </contour>
    <contour>
      <point x="778" y="-190" type="move" name="bottom"/>
    </contour>
    <contour>
      <point x="703" y="1168" type="move" name="topcandra"/>
    </contour>
  </outline>
</glyph>
<glyph name="d_dha-deva" format="1">
  <advance width="1291"/>
  <outline>
    <contour>
      <point x="-15" y="1262" type="line"/>
      <point x="-15" y="1129" type="line"/>
      <point x="1316" y="1129" type="line"/>
      <point x="1316" y="1262" type="line"/>
    </contour>
    <contour>
      <point x="911" y="1163" type="line"/>
      <point x="911" y="856" type="line"/>
      <point x="999" y="880" type="line"/>
      <point x="931" y="897"/>
      <point x="870" y="904"/>
      <point x="818" y="904" type="curve" smooth="yes"/>
      <point x="475" y="904"/>
      <point x="348" y="748"/>
      <point x="348" y="505" type="curve" smooth="yes"/>
      <point x="348" y="256"/>
      <point x="503" y="83"/>
      <point x="812" y="83" type="curve" smooth="yes"/>
      <point x="924" y="83"/>
      <point x="1015" y="106"/>
      <point x="1094" y="159" type="curve" smooth="yes"/>
      <point x="1157" y="201"/>
      <point x="1190" y="268"/>
      <point x="1190" y="324" type="curve" smooth="yes"/>
      <point x="1190" y="411"/>
      <point x="1109" y="480"/>
      <point x="1001" y="511" type="curve"/>
      <point x="910" y="435" type="line"/>
      <point x="1009" y="236" type="line"/>
      <point x="1061" y="297" type="line"/>
      <point x="965" y="236"/>
      <point x="896" y="216"/>
      <point x="801" y="216" type="curve" smooth="yes"/>
      <point x="623" y="216"/>
      <point x="511" y="286"/>
      <point x="511" y="489" type="curve" smooth="yes"/>
      <point x="511" y="697"/>
      <point x="617" y="764"/>
      <point x="844" y="764" type="curve" smooth="yes"/>
      <point x="948" y="764"/>
      <point x="1028" y="759"/>
      <point x="1068" y="756" type="curve"/>
      <point x="1068" y="1163" type="line"/>
    </contour>
    <contour>
      <point x="150" y="406"/>
      <point x="69" y="308"/>
      <point x="67" y="193" type="curve" smooth="yes"/>
      <point x="64" y="49"/>
      <point x="157" y="-42"/>
      <point x="314" y="-64" type="curve" smooth="yes"/>
      <point x="358" y="-71"/>
      <point x="408" y="-71"/>
      <point x="463" y="-66" type="curve"/>
      <point x="509" y="26" type="line"/>
      <point x="443" y="27"/>
      <point x="382" y="33"/>
      <point x="336" y="47" type="curve" smooth="yes"/>
      <point x="257" y="70"/>
      <point x="206" y="123"/>
      <point x="205" y="193" type="curve" smooth="yes"/>
      <point x="203" y="264"/>
      <point x="243" y="308"/>
      <point x="302" y="345" type="curve"/>
      <point x="260" y="444" type="line"/>
    </contour>
    <contour>
      <point x="1039" y="214" type="line"/>
      <point x="1219" y="-129" type="line"/>
      <point x="1334" y="-54" type="line"/>
      <point x="1123" y="256" type="line"/>
    </contour>
    <contour>
      <point x="993" y="-44"/>
      <point x="887" y="-267"/>
      <point x="687" y="-267" type="curve" smooth="yes"/>
      <point x="606" y="-267"/>
      <point x="544" y="-218"/>
      <point x="544" y="-129" type="curve" smooth="yes"/>
      <point x="544" y="-2"/>
      <point x="661" y="62"/>
      <point x="742" y="108" type="curve"/>
      <point x="691" y="209" type="line"/>
      <point x="608" y="166"/>
      <point x="395" y="76"/>
      <point x="395" y="-127" type="curve" smooth="yes"/>
      <point x="395" y="-293"/>
      <point x="521" y="-397"/>
      <point x="694" y="-397" type="curve" smooth="yes"/>
      <point x="1018" y="-397"/>
      <point x="1127" y="-38"/>
      <point x="1118" y="207" type="curve"/>
      <point x="1019" y="255" type="line"/>
    </contour>
    <contour>
      <point x="993" y="1168" type="move" name="top"/>
    </contour>
    <contour>
      <point x="762" y="-356" type="move" name="bottom"/>
    </contour>
    <contour>
      <point x="670" y="1168" type="move" name="topcandra"/>
    </contour>
  </outline>
</glyph>
<glyph name="d_g_ra-deva" format="1">
  <advance width="1028"/>
  <outline>
    <contour>
      <point x="272" y="-24" type="line"/>
      <point x="133" y="-52" type="line"/>
      <point x="133" y="-145" type="line"/>
      <point x="283" y="-298" type="line"/>
      <point x="391" y="-296"/>
      <point x="406" y="-241"/>
      <point x="406" y="-186" type="curve" smooth="yes"/>
      <point x="406" y="-12" type="line"/>
    </contour>
    <contour>
      <point x="261" y="229" type="line"/>
      <point x="261" y="-87" type="line"/>
      <point x="405" y="-75" type="line"/>
      <point x="405" y="229" type="line"/>
    </contour>
    <contour>
      <point x="681" y="223" type="line"/>
      <point x="681" y="-566" type="line"/>
      <point x="825" y="-566" type="line"/>
      <point x="825" y="223" type="line"/>
    </contour>
    <contour>
      <point x="799" y="-243" type="line"/>
      <point x="736" y="-150" type="line"/>
      <point x="234" y="-524" type="line"/>
      <point x="324" y="-633" type="line"/>
    </contour>
    <component base="da-deva"/>
  </outline>
</glyph>
<glyph name="d_gha-deva" format="1">
  <advance width="1291"/>
  <outline>
    <contour>
      <point x="-15" y="1262" type="line"/>
      <point x="-15" y="1129" type="line"/>
      <point x="1316" y="1129" type="line"/>
      <point x="1316" y="1262" type="line"/>
    </contour>
    <contour>
      <point x="911" y="1163" type="line"/>
      <point x="911" y="856" type="line"/>
      <point x="999" y="880" type="line"/>
      <point x="931" y="897"/>
      <point x="870" y="904"/>
      <point x="818" y="904" type="curve" smooth="yes"/>
      <point x="475" y="904"/>
      <point x="348" y="748"/>
      <point x="348" y="505" type="curve" smooth="yes"/>
      <point x="348" y="256"/>
      <point x="503" y="83"/>
      <point x="812" y="83" type="curve" smooth="yes"/>
      <point x="924" y="83"/>
      <point x="1015" y="106"/>
      <point x="1094" y="159" type="curve" smooth="yes"/>
      <point x="1157" y="201"/>
      <point x="1190" y="268"/>
      <point x="1190" y="324" type="curve" smooth="yes"/>
      <point x="1190" y="411"/>
      <point x="1109" y="480"/>
      <point x="1001" y="511" type="curve"/>
      <point x="910" y="435" type="line"/>
      <point x="1009" y="236" type="line"/>
      <point x="1061" y="297" type="line"/>
      <point x="965" y="236"/>
      <point x="896" y="216"/>
      <point x="801" y="216" type="curve" smooth="yes"/>
      <point x="623" y="216"/>
      <point x="511" y="286"/>
      <point x="511" y="489" type="curve" smooth="yes"/>
      <point x="511" y="697"/>
      <point x="617" y="764"/>
      <point x="844" y="764" type="curve" smooth="yes"/>
      <point x="948" y="764"/>
      <point x="1028" y="759"/>
      <point x="1068" y="756" type="curve"/>
      <point x="1068" y="1163" type="line"/>
    </contour>
    <contour>
      <point x="1039" y="214" type="line"/>
      <point x="1219" y="-129" type="line"/>
      <point x="1334" y="-54" type="line"/>
      <point x="1123" y="256" type="line"/>
    </contour>
    <contour>
      <point x="204" y="479"/>
      <point x="68" y="362"/>
      <point x="67" y="196" type="curve" smooth="yes"/>
      <point x="65" y="59"/>
      <point x="159" y="-43"/>
      <point x="314" y="-64" type="curve" smooth="yes"/>
      <point x="358" y="-71"/>
      <point x="408" y="-71"/>
      <point x="463" y="-66" type="curve"/>
      <point x="509" y="29" type="line"/>
      <point x="465" y="29"/>
      <point x="424" y="32"/>
      <point x="389" y="39" type="curve" smooth="yes"/>
      <point x="282" y="52"/>
      <point x="214" y="93"/>
      <point x="213" y="187" type="curve" smooth="yes"/>
      <point x="212" y="285"/>
      <point x="281" y="354"/>
      <point x="402" y="389" type="curve"/>
      <point x="373" y="512" type="line"/>
    </contour>
    <contour>
      <point x="993" y="-44"/>
      <point x="887" y="-267"/>
      <point x="687" y="-267" type="curve" smooth="yes"/>
      <point x="606" y="-267"/>
      <point x="544" y="-218"/>
      <point x="544" y="-129" type="curve" smooth="yes"/>
      <point x="544" y="-2"/>
      <point x="661" y="62"/>
      <point x="742" y="108" type="curve"/>
      <point x="691" y="209" type="line"/>
      <point x="608" y="166"/>
      <point x="395" y="76"/>
      <point x="395" y="-127" type="curve" smooth="yes"/>
      <point x="395" y="-293"/>
      <point x="521" y="-397"/>
      <point x="694" y="-397" type="curve" smooth="yes"/>
      <point x="1018" y="-397"/>
      <point x="1127" y="-38"/>
      <point x="1118" y="207" type="curve"/>
      <point x="1019" y="255" type="line"/>
    </contour>
    <contour>
      <point x="990" y="1168" type="move" name="top"/>
    </contour>
    <contour>
      <point x="770" y="-347" type="move" name="bottom"/>
    </contour>
    <contour>
      <point x="694" y="1168" type="move" name="topcandra"/>
    </contour>
  </outline>
</glyph>
<glyph name="d_na-deva" format="1">
  <advance width="1028"/>
  <outline>
    <contour>
      <point x="508" y="-57" type="line"/>
      <point x="505" y="-121" type="line"/>
      <point x="865" y="203" type="line"/>
      <point x="801" y="285" type="line"/>
      <point x="255" y="-153" type="line"/>
      <point x="345" y="-279" type="line"/>
      <point x="591" y="-339" type="line"/>
      <point x="670" y="-268"/>
      <point x="640" y="-204"/>
      <point x="583" y="-140" type="curve" smooth="yes"/>
    </contour>
    <contour>
      <point x="642" y="1163" type="line"/>
      <point x="642" y="856" type="line"/>
      <point x="730" y="880" type="line"/>
      <point x="662" y="897"/>
      <point x="601" y="904"/>
      <point x="549" y="904" type="curve" smooth="yes"/>
      <point x="206" y="904"/>
      <point x="79" y="748"/>
      <point x="79" y="505" type="curve" smooth="yes"/>
      <point x="79" y="256"/>
      <point x="234" y="90"/>
      <point x="538" y="90" type="curve" smooth="yes"/>
      <point x="655" y="90"/>
      <point x="757" y="120"/>
      <point x="836" y="173" type="curve" smooth="yes"/>
      <point x="899" y="215"/>
      <point x="932" y="268"/>
      <point x="932" y="324" type="curve" smooth="yes"/>
      <point x="932" y="411"/>
      <point x="854" y="481"/>
      <point x="746" y="512" type="curve"/>
      <point x="651" y="439" type="line"/>
      <point x="751" y="236" type="line"/>
      <point x="792" y="297" type="line"/>
      <point x="696" y="236"/>
      <point x="627" y="216"/>
      <point x="532" y="216" type="curve" smooth="yes"/>
      <point x="354" y="216"/>
      <point x="242" y="286"/>
      <point x="242" y="489" type="curve" smooth="yes"/>
      <point x="242" y="697"/>
      <point x="348" y="764"/>
      <point x="575" y="764" type="curve" smooth="yes"/>
      <point x="679" y="764"/>
      <point x="759" y="759"/>
      <point x="799" y="756" type="curve"/>
      <point x="799" y="1163" type="line"/>
    </contour>
    <contour>
      <point x="760" y="214" type="line"/>
      <point x="936" y="-130" type="line"/>
      <point x="1060" y="-55" type="line"/>
      <point x="854" y="256" type="line"/>
    </contour>
    <contour>
      <point x="-15" y="1262" type="line"/>
      <point x="-15" y="1129" type="line"/>
      <point x="1043" y="1129" type="line"/>
      <point x="1043" y="1262" type="line"/>
    </contour>
    <contour>
      <point x="60" y="58" type="move" name="nukta"/>
    </contour>
    <contour>
      <point x="721" y="1168" type="move" name="top"/>
    </contour>
    <contour>
      <point x="521" y="1168" type="move" name="topcandra"/>
    </contour>
    <contour>
      <point x="566" y="61" type="move" name="bottom"/>
    </contour>
  </outline>
</glyph>
<glyph name="dd_gha-deva" format="1">
  <advance width="1130"/>
  <outline>
    <contour>
      <point x="797" y="165"/>
      <point x="981" y="233"/>
      <point x="981" y="449" type="curve" smooth="yes"/>
      <point x="981" y="647"/>
      <point x="826" y="673"/>
      <point x="666" y="672" type="curve" smooth="yes"/>
      <point x="553" y="671"/>
      <point x="411" y="654"/>
      <point x="337" y="639" type="curve"/>
      <point x="359" y="626" type="line"/>
      <point x="342" y="640"/>
      <point x="311" y="701"/>
      <point x="311" y="762" type="curve" smooth="yes"/>
      <point x="311" y="829"/>
      <point x="342" y="851"/>
      <point x="462" y="851" type="curve" smooth="yes"/>
      <point x="808" y="851" type="line"/>
      <point x="791" y="982" type="line"/>
      <point x="426" y="982" type="line" smooth="yes"/>
      <point x="252" y="982"/>
      <point x="175" y="927"/>
      <point x="175" y="806" type="curve" smooth="yes"/>
      <point x="175" y="701"/>
      <point x="233" y="583"/>
      <point x="298" y="530" type="curve"/>
      <point x="326" y="510"/>
      <point x="344" y="509"/>
      <point x="361" y="511" type="curve" smooth="yes"/>
      <point x="410" y="516"/>
      <point x="564" y="538"/>
      <point x="678" y="538" type="curve" smooth="yes"/>
      <point x="801" y="538"/>
      <point x="838" y="507"/>
      <point x="838" y="434" type="curve" smooth="yes"/>
      <point x="838" y="336"/>
      <point x="755" y="293"/>
      <point x="592" y="293" type="curve" smooth="yes"/>
      <point x="392" y="293"/>
      <point x="283" y="358"/>
      <point x="174" y="469" type="curve"/>
      <point x="95" y="393" type="line"/>
      <point x="236" y="226"/>
      <point x="407" y="165"/>
      <point x="583" y="165" type="curve" smooth="yes"/>
    </contour>
    <contour>
      <point x="626" y="-497"/>
      <point x="745" y="-439"/>
      <point x="819" y="-350" type="curve"/>
      <point x="796" y="-213" type="line"/>
      <point x="723" y="-313"/>
      <point x="607" y="-377"/>
      <point x="488" y="-377" type="curve" smooth="yes"/>
      <point x="400" y="-377"/>
      <point x="356" y="-341"/>
      <point x="356" y="-269" type="curve" smooth="yes"/>
      <point x="356" y="-187"/>
      <point x="412" y="-155"/>
      <point x="530" y="-142" type="curve"/>
      <point x="525" y="-34" type="line"/>
      <point x="285" y="-43"/>
      <point x="214" y="-156"/>
      <point x="214" y="-270" type="curve" smooth="yes"/>
      <point x="214" y="-401"/>
      <point x="307" y="-497"/>
      <point x="478" y="-497" type="curve" smooth="yes"/>
    </contour>
    <contour>
      <point x="439" y="-90" type="line"/>
      <point x="364" y="-52"/>
      <point x="317" y="-16"/>
      <point x="317" y="62" type="curve" smooth="yes"/>
      <point x="317" y="127"/>
      <point x="366" y="170"/>
      <point x="470" y="178" type="curve"/>
      <point x="459" y="264" type="line"/>
      <point x="328" y="256"/>
      <point x="173" y="209"/>
      <point x="173" y="71" type="curve" smooth="yes"/>
      <point x="173" y="-10"/>
      <point x="226" y="-83"/>
      <point x="379" y="-139" type="curve"/>
    </contour>
    <contour>
      <point x="901" y="-619" type="line"/>
      <point x="901" y="289" type="line"/>
      <point x="757" y="289" type="line"/>
      <point x="757" y="-619" type="line"/>
    </contour>
    <contour>
      <point x="1145" y="1129" type="line"/>
      <point x="1145" y="1262" type="line"/>
      <point x="-15" y="1262" type="line"/>
      <point x="-15" y="1129" type="line"/>
    </contour>
    <contour>
      <point x="869" y="851" type="line"/>
      <point x="869" y="1217" type="line"/>
      <point x="718" y="1217" type="line"/>
      <point x="718" y="851" type="line"/>
    </contour>
    <contour>
      <point x="795" y="1167" type="move" name="top"/>
    </contour>
    <contour>
      <point x="840" y="-597" type="move" name="bottom"/>
    </contour>
    <contour>
      <point x="580" y="1167" type="move" name="topcandra"/>
    </contour>
  </outline>
</glyph>
<glyph name="dd_ma-deva" format="1">
  <advance width="1613"/>
  <outline>
    <contour>
      <point x="323" y="926" type="line" smooth="yes"/>
      <point x="157" y="925"/>
      <point x="70" y="852"/>
      <point x="70" y="718" type="curve" smooth="yes"/>
      <point x="70" y="612"/>
      <point x="119" y="502"/>
      <point x="180" y="445" type="curve" smooth="yes"/>
      <point x="201" y="426"/>
      <point x="230" y="407"/>
      <point x="267" y="413" type="curve" smooth="yes"/>
      <point x="322" y="422"/>
      <point x="486" y="442"/>
      <point x="577" y="442" type="curve" smooth="yes"/>
      <point x="687" y="442"/>
      <point x="731" y="398"/>
      <point x="730" y="316" type="curve" smooth="yes"/>
      <point x="730" y="194" type="line"/>
      <point x="884" y="191" type="line"/>
      <point x="883" y="331" type="line" smooth="yes"/>
      <point x="881" y="546"/>
      <point x="735" y="587"/>
      <point x="585" y="586" type="curve" smooth="yes"/>
      <point x="484" y="586"/>
      <point x="325" y="568"/>
      <point x="256" y="554" type="curve"/>
      <point x="233" y="590"/>
      <point x="217" y="633"/>
      <point x="217" y="677" type="curve" smooth="yes"/>
      <point x="217" y="747"/>
      <point x="239" y="787"/>
      <point x="372" y="787" type="curve" smooth="yes"/>
      <point x="710" y="787" type="line"/>
      <point x="693" y="927" type="line"/>
    </contour>
    <contour>
      <point x="755" y="228" type="line"/>
      <point x="580" y="208" type="line"/>
      <point x="580" y="99" type="line"/>
      <point x="754" y="-97" type="line"/>
      <point x="861" y="-95"/>
      <point x="883" y="-37"/>
      <point x="883" y="29" type="curve" smooth="yes"/>
      <point x="883" y="221" type="line"/>
    </contour>
    <contour>
      <point x="738" y="227" type="line"/>
      <point x="738" y="90" type="line"/>
      <point x="1357" y="90" type="line"/>
      <point x="1357" y="227" type="line"/>
    </contour>
    <contour>
      <point x="613" y="1162" type="line"/>
      <point x="613" y="787" type="line"/>
      <point x="767" y="787" type="line"/>
      <point x="767" y="1162" type="line"/>
    </contour>
    <contour>
      <point x="1256" y="1168" type="line"/>
      <point x="1256" y="-250" type="line"/>
      <point x="1412" y="-250" type="line"/>
      <point x="1412" y="1168" type="line"/>
    </contour>
    <contour>
      <point x="-15" y="1262" type="line"/>
      <point x="-15" y="1129" type="line"/>
      <point x="1628" y="1129" type="line"/>
      <point x="1628" y="1262" type="line"/>
    </contour>
    <contour>
      <point x="1335" y="1168" type="move" name="top"/>
    </contour>
    <contour>
      <point x="1333" y="-219" type="move" name="bottom"/>
    </contour>
    <contour>
      <point x="1007" y="1168" type="move" name="topcandra"/>
    </contour>
  </outline>
</glyph>
<glyph name="ddh_na-deva" format="1">
  <advance width="1049"/>
  <outline>
    <contour>
      <point x="843" y="262"/>
      <point x="1027" y="363"/>
      <point x="1027" y="549" type="curve" smooth="yes"/>
      <point x="1027" y="679"/>
      <point x="927" y="748"/>
      <point x="796" y="748" type="curve" smooth="yes"/>
      <point x="632" y="748"/>
      <point x="570" y="655"/>
      <point x="570" y="569" type="curve" smooth="yes"/>
      <point x="570" y="479"/>
      <point x="624" y="414"/>
      <point x="710" y="360" type="curve"/>
      <point x="807" y="387" type="line"/>
      <point x="726" y="438"/>
      <point x="698" y="495"/>
      <point x="698" y="547" type="curve" smooth="yes"/>
      <point x="699" y="599"/>
      <point x="733" y="644"/>
      <point x="812" y="643" type="curve" smooth="yes"/>
      <point x="868" y="642"/>
      <point x="909" y="613"/>
      <point x="909" y="555" type="curve" smooth="yes"/>
      <point x="909" y="455"/>
      <point x="812" y="390"/>
      <point x="638" y="386" type="curve" smooth="yes"/>
      <point x="407" y="379"/>
      <point x="318" y="481"/>
      <point x="318" y="630" type="curve" smooth="yes"/>
      <point x="318" y="827"/>
      <point x="458" y="876"/>
      <point x="644" y="876" type="curve" smooth="yes"/>
      <point x="707" y="876"/>
      <point x="790" y="875"/>
      <point x="849" y="873" type="curve"/>
      <point x="849" y="1206" type="line"/>
      <point x="702" y="1206" type="line"/>
      <point x="702" y="943" type="line"/>
      <point x="738" y="984" type="line"/>
      <point x="684" y="989"/>
      <point x="628" y="992"/>
      <point x="580" y="992" type="curve" smooth="yes"/>
      <point x="286" y="989"/>
      <point x="167" y="837"/>
      <point x="167" y="636" type="curve" smooth="yes"/>
      <point x="167" y="397"/>
      <point x="347" y="262"/>
      <point x="614" y="262" type="curve" smooth="yes"/>
    </contour>
    <contour>
      <point x="1129" y="1129" type="line"/>
      <point x="1129" y="1262" type="line"/>
      <point x="-15" y="1262" type="line"/>
      <point x="-15" y="1129" type="line"/>
    </contour>
    <contour>
      <point x="727" y="344" type="line"/>
      <point x="727" y="-504" type="line"/>
      <point x="876" y="-504" type="line"/>
      <point x="876" y="344" type="line"/>
    </contour>
    <contour>
      <point x="193" y="59" type="line"/>
      <point x="193" y="-72" type="line"/>
      <point x="336" y="-281" type="line"/>
      <point x="431" y="-281"/>
      <point x="448" y="-212"/>
      <point x="448" y="-128" type="curve" smooth="yes"/>
      <point x="448" y="59" type="line"/>
    </contour>
    <contour>
      <point x="313" y="59" type="line"/>
      <point x="313" y="-74" type="line"/>
      <point x="827" y="-74" type="line"/>
      <point x="827" y="60" type="line"/>
    </contour>
  </outline>
</glyph>
<glyph name="ddh_ya-deva" format="1">
  <advance width="2246"/>
  <outline>
    <contour>
      <point x="1382" y="812"/>
      <point x="1410" y="789"/>
      <point x="1410" y="739" type="curve" smooth="yes"/>
      <point x="1410" y="677"/>
      <point x="1337" y="618"/>
      <point x="1150" y="568" type="curve"/>
      <point x="1206" y="296"/>
      <point x="1362" y="148"/>
      <point x="1593" y="148" type="curve" smooth="yes"/>
      <point x="1720" y="148"/>
      <point x="1826" y="194"/>
      <point x="1913" y="285" type="curve"/>
      <point x="1920" y="480" type="line"/>
      <point x="1837" y="343"/>
      <point x="1697" y="290"/>
      <point x="1582" y="290" type="curve" smooth="yes"/>
      <point x="1443" y="290"/>
      <point x="1336" y="369"/>
      <point x="1300" y="529" type="curve"/>
      <point x="1280" y="470" type="line"/>
      <point x="1375" y="499"/>
      <point x="1555" y="571"/>
      <point x="1555" y="750" type="curve" smooth="yes"/>
      <point x="1555" y="890"/>
      <point x="1451" y="943"/>
      <point x="1251" y="943" type="curve" smooth="yes"/>
      <point x="825" y="943" type="line"/>
      <point x="824" y="810" type="line"/>
      <point x="1269" y="812" type="line" smooth="yes"/>
    </contour>
    <contour>
      <point x="1889" y="1156" type="line"/>
      <point x="1889" y="0" type="line"/>
      <point x="2045" y="0" type="line"/>
      <point x="2045" y="1156" type="line"/>
    </contour>
    <contour>
      <point x="704" y="1174" type="line"/>
      <point x="704" y="889" type="line"/>
      <point x="776" y="943" type="line"/>
      <point x="558" y="943" type="line" smooth="yes"/>
      <point x="244" y="943"/>
      <point x="83" y="807"/>
      <point x="83" y="528" type="curve" smooth="yes"/>
      <point x="83" y="223"/>
      <point x="287" y="78"/>
      <point x="566" y="78" type="curve" smooth="yes"/>
      <point x="780" y="78"/>
      <point x="1017" y="159"/>
      <point x="1017" y="389" type="curve" smooth="yes"/>
      <point x="1017" y="546"/>
      <point x="911" y="621"/>
      <point x="763" y="621" type="curve" smooth="yes"/>
      <point x="595" y="621"/>
      <point x="528" y="516"/>
      <point x="528" y="424" type="curve" smooth="yes"/>
      <point x="528" y="315"/>
      <point x="580" y="249"/>
      <point x="668" y="182" type="curve"/>
      <point x="775" y="209" type="line"/>
      <point x="704" y="273"/>
      <point x="665" y="320"/>
      <point x="665" y="394" type="curve" smooth="yes"/>
      <point x="665" y="448"/>
      <point x="691" y="502"/>
      <point x="772" y="502" type="curve" smooth="yes"/>
      <point x="834" y="502"/>
      <point x="883" y="479"/>
      <point x="883" y="400" type="curve" smooth="yes"/>
      <point x="883" y="284"/>
      <point x="790" y="210"/>
      <point x="595" y="208" type="curve" smooth="yes"/>
      <point x="347" y="205"/>
      <point x="247" y="291"/>
      <point x="247" y="518" type="curve" smooth="yes"/>
      <point x="247" y="732"/>
      <point x="357" y="810"/>
      <point x="609" y="810" type="curve" smooth="yes"/>
      <point x="860" y="810" type="line"/>
      <point x="860" y="1174" type="line"/>
    </contour>
    <contour>
      <point x="-15" y="1262" type="line"/>
      <point x="-15" y="1129" type="line"/>
      <point x="2261" y="1129" type="line"/>
      <point x="2261" y="1262" type="line"/>
    </contour>
    <contour>
      <point x="1968" y="1168" type="move" name="top"/>
    </contour>
    <contour>
      <point x="1971" y="27" type="move" name="bottom"/>
    </contour>
    <contour>
      <point x="1971" y="1167" type="move" name="topcandra"/>
    </contour>
  </outline>
</glyph>
<glyph name="eMatra_reph-deva" format="1">
  <advance width="539"/>
  <outline>
    <component base="reph-deva" xOffset="40" yOffset="-1"/>
    <component base="eMatra-deva"/>
    <contour>
      <point x="439" y="1547" type="move" name="topcandra"/>
    </contour>
    <contour>
      <point x="260" y="1168" type="move" name="_top"/>
    </contour>
  </outline>
</glyph>
<glyph name="eMatra_reph_anusvara-deva" format="1">
  <advance width="540"/>
  <outline>
    <component base="eMatra-deva"/>
    <component base="reph_anusvara-deva" xOffset="39"/>
    <contour>
      <point x="439" y="1547" type="move" name="topcandra"/>
    </contour>
    <contour>
      <point x="260" y="1168" type="move" name="_top"/>
    </contour>
  </outline>
</glyph>
<glyph name="eight.numr" format="1">
  <advance width="811"/>
  <outline>
    <contour>
      <point x="244" y="756" type="curve" name="hr01" smooth="yes"/>
      <point x="244" y="821"/>
      <point x="283" y="880"/>
      <point x="356" y="923" type="curve"/>
      <point x="464" y="880"/>
      <point x="563" y="854"/>
      <point x="563" y="756" type="curve" smooth="yes"/>
      <point x="563" y="680"/>
      <point x="491" y="615"/>
      <point x="403" y="615" type="curve" smooth="yes"/>
      <point x="308" y="615"/>
      <point x="244" y="684"/>
    </contour>
    <contour>
      <point x="450" y="1001" type="curve" name="hr02"/>
      <point x="354" y="1034"/>
      <point x="275" y="1075"/>
      <point x="275" y="1155" type="curve" smooth="yes"/>
      <point x="275" y="1222"/>
      <point x="332" y="1271"/>
      <point x="403" y="1271" type="curve" smooth="yes"/>
      <point x="476" y="1271"/>
      <point x="537" y="1226"/>
      <point x="537" y="1153" type="curve" smooth="yes"/>
      <point x="537" y="1100"/>
      <point x="509" y="1049"/>
    </contour>
    <contour>
      <point x="122" y="745" type="curve" name="hr03" smooth="yes"/>
      <point x="122" y="623"/>
      <point x="235" y="520"/>
      <point x="403" y="520" type="curve" smooth="yes"/>
      <point x="565" y="520"/>
      <point x="684" y="621"/>
      <point x="684" y="750" type="curve" smooth="yes"/>
      <point x="684" y="848"/>
      <point x="628" y="911"/>
      <point x="535" y="956" type="curve"/>
      <point x="535" y="965" type="line"/>
      <point x="590" y="1001"/>
      <point x="658" y="1065"/>
      <point x="658" y="1157" type="curve" name="hr04" smooth="yes"/>
      <point x="658" y="1286"/>
      <point x="546" y="1368"/>
      <point x="403" y="1368" type="curve" smooth="yes"/>
      <point x="266" y="1368"/>
      <point x="155" y="1284"/>
      <point x="155" y="1157" type="curve" smooth="yes"/>
      <point x="155" y="1073"/>
      <point x="204" y="1022"/>
      <point x="274" y="975" type="curve"/>
      <point x="274" y="967" type="line"/>
      <point x="196" y="924"/>
      <point x="122" y="844"/>
    </contour>
  </outline>
</glyph>
<glyph name="five.dnom" format="1">
  <advance width="781"/>
  <outline>
    <contour>
      <point x="87" y="131" type="line" name="hr00"/>
      <point x="150" y="41"/>
      <point x="248" y="-25"/>
      <point x="390" y="-25" type="curve" smooth="yes"/>
      <point x="552" y="-25"/>
      <point x="676" y="88"/>
      <point x="676" y="252" type="curve" smooth="yes"/>
      <point x="676" y="424"/>
      <point x="558" y="520"/>
      <point x="414" y="520" type="curve" smooth="yes"/>
      <point x="366" y="520"/>
      <point x="323" y="506"/>
      <point x="284" y="489" type="curve"/>
      <point x="307" y="685" type="line"/>
      <point x="635" y="685" type="line"/>
      <point x="635" y="799" type="line"/>
      <point x="199" y="799" type="line"/>
      <point x="162" y="414" type="line"/>
      <point x="226" y="368" type="line"/>
      <point x="269" y="403"/>
      <point x="314" y="433"/>
      <point x="377" y="433" type="curve" smooth="yes"/>
      <point x="477" y="433"/>
      <point x="546" y="365"/>
      <point x="546" y="256" type="curve" smooth="yes"/>
      <point x="546" y="153"/>
      <point x="476" y="79"/>
      <point x="382" y="79" type="curve" smooth="yes"/>
      <point x="289" y="79"/>
      <point x="226" y="124"/>
      <point x="175" y="198" type="curve"/>
    </contour>
  </outline>
</glyph>
<glyph name="four.dnom" format="1">
  <advance width="751"/>
  <outline>
    <contour>
      <point x="222" y="307" type="line" name="hr00"/>
      <point x="348" y="508" type="line"/>
      <point x="451" y="674" type="line"/>
      <point x="459" y="674" type="line"/>
      <point x="451" y="452" type="line"/>
      <point x="451" y="307" type="line"/>
    </contour>
    <contour>
      <point x="687" y="307" type="line"/>
      <point x="568" y="307" type="line"/>
      <point x="568" y="799" type="line"/>
      <point x="423" y="799" type="line"/>
      <point x="86" y="281" type="line"/>
      <point x="86" y="214" type="line"/>
      <point x="451" y="214" type="line"/>
      <point x="451" y="0" type="line"/>
      <point x="568" y="0" type="line"/>
      <point x="568" y="214" type="line"/>
      <point x="687" y="214" type="line"/>
    </contour>
  </outline>
</glyph>
<glyph name="four.pnum" format="1">
  <advance width="1061"/>
  <outline>
    <contour>
      <point x="244" y="495" type="line" name="hr00"/>
      <point x="551" y="985" type="line"/>
      <point x="588" y="1049"/>
      <point x="625" y="1105"/>
      <point x="657" y="1168" type="curve"/>
      <point x="666" y="1168" type="line"/>
      <point x="662" y="1100"/>
      <point x="657" y="987"/>
      <point x="657" y="917" type="curve" smooth="yes"/>
      <point x="657" y="495" type="line"/>
    </contour>
    <contour>
      <point x="992" y="495" type="line"/>
      <point x="813" y="495" type="line"/>
      <point x="813" y="1348" type="line"/>
      <point x="630" y="1348" type="line"/>
      <point x="70" y="470" type="line"/>
      <point x="70" y="361" type="line"/>
      <point x="657" y="361" type="line"/>
      <point x="657" y="0" type="line"/>
      <point x="813" y="0" type="line"/>
      <point x="813" y="361" type="line"/>
      <point x="992" y="361" type="line"/>
    </contour>
  </outline>
</glyph>
<glyph name="g-deva" format="1">
  <advance width="604"/>
  <outline>
    <contour>
      <point x="273" y="701" type="line"/>
      <point x="94" y="680" type="line"/>
      <point x="94" y="571" type="line"/>
      <point x="270" y="376" type="line"/>
      <point x="377" y="378"/>
      <point x="399" y="433"/>
      <point x="399" y="499" type="curve" smooth="yes"/>
      <point x="399" y="701" type="line"/>
    </contour>
    <contour>
      <point x="243" y="1186" type="line"/>
      <point x="243" y="501" type="line"/>
      <point x="399" y="633" type="line"/>
      <point x="399" y="1186" type="line"/>
    </contour>
    <contour>
      <point x="-15" y="1262" type="line"/>
      <point x="-15" y="1129" type="line"/>
      <point x="619" y="1129" type="line"/>
      <point x="619" y="1262" type="line"/>
    </contour>
  </outline>
</glyph>
<glyph name="g.supa" format="1">
  <advance width="771"/>
  <outline>
    <contour>
      <point x="162" y="396" type="curve"/>
      <point x="115" y="309" type="line"/>
      <point x="186" y="262"/>
      <point x="274" y="233"/>
      <point x="354" y="233" type="curve" smooth="yes"/>
      <point x="548" y="233"/>
      <point x="661" y="340"/>
      <point x="661" y="510" type="curve" smooth="yes"/>
      <point x="661" y="1192" type="line"/>
      <point x="561" y="1192" type="line"/>
      <point x="549" y="1128" type="line"/>
      <point x="543" y="1128" type="line"/>
      <point x="489" y="1182"/>
      <point x="430" y="1208"/>
      <point x="358" y="1208" type="curve" smooth="yes"/>
      <point x="209" y="1208"/>
      <point x="70" y="1079"/>
      <point x="70" y="874" type="curve" smooth="yes"/>
      <point x="70" y="678"/>
      <point x="178" y="549"/>
      <point x="352" y="549" type="curve" smooth="yes"/>
      <point x="424" y="549"/>
      <point x="481" y="584"/>
      <point x="542" y="633" type="curve"/>
      <point x="538" y="545" type="line"/>
      <point x="538" y="517" type="line"/>
      <point x="538" y="413"/>
      <point x="473" y="337"/>
      <point x="356" y="337" type="curve" smooth="yes"/>
      <point x="293" y="337"/>
      <point x="223" y="355"/>
    </contour>
    <contour>
      <point x="379" y="654" type="curve" smooth="yes"/>
      <point x="257" y="654"/>
      <point x="200" y="742"/>
      <point x="200" y="877" type="curve" smooth="yes"/>
      <point x="200" y="1012"/>
      <point x="280" y="1103"/>
      <point x="377" y="1103" type="curve" smooth="yes"/>
      <point x="426" y="1103"/>
      <point x="483" y="1084"/>
      <point x="538" y="1036" type="curve"/>
      <point x="538" y="736" type="line"/>
      <point x="479" y="681"/>
      <point x="432" y="654"/>
    </contour>
  </outline>
</glyph>
<glyph name="g_r_ya-deva" format="1">
  <advance width="1816"/>
  <outline>
    <contour>
      <point x="889" y="451" type="line"/>
      <point x="821" y="548" type="line"/>
      <point x="201" y="93" type="line"/>
      <point x="296" y="-21" type="line"/>
    </contour>
    <contour>
      <point x="273" y="701" type="line"/>
      <point x="94" y="680" type="line"/>
      <point x="94" y="571" type="line"/>
      <point x="270" y="376" type="line"/>
      <point x="377" y="378"/>
      <point x="399" y="433"/>
      <point x="399" y="499" type="curve" smooth="yes"/>
      <point x="399" y="701" type="line"/>
    </contour>
    <contour>
      <point x="243" y="1186" type="line"/>
      <point x="243" y="501" type="line"/>
      <point x="399" y="633" type="line"/>
      <point x="399" y="1186" type="line"/>
    </contour>
    <contour>
      <point x="-15" y="1262" type="line"/>
      <point x="-15" y="1129" type="line"/>
      <point x="910" y="1129" type="line"/>
      <point x="910" y="1262" type="line"/>
    </contour>
    <component base="ya-deva" xOffset="668"/>
    <contour>
      <point x="659" y="115" type="move" name="nukta"/>
    </contour>
    <contour>
      <point x="1198" y="1168" type="move" name="top"/>
    </contour>
    <contour>
      <point x="945" y="1168" type="move" name="topcandra"/>
    </contour>
    <contour>
      <point x="1198" y="28" type="move" name="bottom"/>
    </contour>
  </outline>
</glyph>
<glyph name="ga_na-deva" format="1">
  <advance width="1140"/>
  <outline>
    <contour>
      <point x="894" y="472" type="line"/>
      <point x="813" y="571" type="line"/>
      <point x="257" y="166" type="line"/>
      <point x="321" y="61" type="line"/>
      <point x="538" y="-15" type="line"/>
      <point x="567" y="12"/>
      <point x="578" y="37"/>
      <point x="578" y="61" type="curve" smooth="yes"/>
      <point x="578" y="84"/>
      <point x="569" y="106"/>
      <point x="555" y="126" type="curve" smooth="yes"/>
      <point x="496" y="210" type="line"/>
      <point x="480" y="154" type="line"/>
    </contour>
    <component base="ga-deva" xOffset="-1"/>
    <contour>
      <point x="865" y="1168" type="move" name="top"/>
    </contour>
    <contour>
      <point x="863" y="28" type="move" name="bottom"/>
    </contour>
    <contour>
      <point x="603" y="1168" type="move" name="topcandra"/>
    </contour>
  </outline>
</glyph>
<glyph name="ga_ra-deva" format="1">
  <advance width="1140"/>
  <outline>
    <contour>
      <point x="889" y="451" type="line"/>
      <point x="821" y="548" type="line"/>
      <point x="201" y="93" type="line"/>
      <point x="296" y="-21" type="line"/>
    </contour>
    <component base="ga-deva"/>
    <contour>
      <point x="866" y="1168" type="move" name="top"/>
    </contour>
    <contour>
      <point x="866" y="28" type="move" name="bottom"/>
    </contour>
    <contour>
      <point x="603" y="1168" type="move" name="topcandra"/>
    </contour>
  </outline>
</glyph>
<glyph name="gha_ra-deva" format="1">
  <advance width="1193"/>
  <outline>
    <contour>
      <point x="262" y="69" type="line"/>
      <point x="357" y="-46" type="line"/>
      <point x="927" y="389" type="line"/>
      <point x="893" y="491" type="line"/>
    </contour>
    <component base="gha-deva" xOffset="5"/>
    <contour>
      <point x="919" y="1168" type="move" name="top"/>
    </contour>
    <contour>
      <point x="918" y="28" type="move" name="bottom"/>
    </contour>
    <contour>
      <point x="655" y="1168" type="move" name="topcandra"/>
    </contour>
  </outline>
</glyph>
<glyph name="ha_ra-deva" format="1">
  <advance width="1094"/>
  <outline>
    <contour>
      <point x="326" y="556"/>
      <point x="84" y="480"/>
      <point x="84" y="215" type="curve" smooth="yes"/>
      <point x="84" y="-52"/>
      <point x="310" y="-301"/>
      <point x="782" y="-389" type="curve"/>
      <point x="818" y="-267" type="line"/>
      <point x="418" y="-189"/>
      <point x="236" y="2"/>
      <point x="236" y="198" type="curve" smooth="yes"/>
      <point x="236" y="346"/>
      <point x="350" y="420"/>
      <point x="559" y="420" type="curve" smooth="yes"/>
      <point x="831" y="420"/>
      <point x="885" y="323"/>
      <point x="885" y="222" type="curve" smooth="yes"/>
      <point x="885" y="127"/>
      <point x="824" y="62"/>
      <point x="741" y="15" type="curve"/>
      <point x="833" y="-69" type="line"/>
      <point x="958" y="-2"/>
      <point x="1025" y="108"/>
      <point x="1025" y="227" type="curve" smooth="yes"/>
      <point x="1025" y="406"/>
      <point x="897" y="556"/>
      <point x="560" y="556" type="curve" smooth="yes"/>
    </contour>
    <contour>
      <point x="406" y="151" type="line"/>
      <point x="489" y="42" type="line"/>
      <point x="925" y="375" type="line"/>
      <point x="846" y="464" type="line"/>
    </contour>
    <contour>
      <point x="686" y="1172" type="line"/>
      <point x="686" y="925" type="line"/>
      <point x="382" y="925" type="line" smooth="yes"/>
      <point x="205" y="925"/>
      <point x="120" y="853"/>
      <point x="117" y="738" type="curve" smooth="yes"/>
      <point x="114" y="643"/>
      <point x="170" y="542"/>
      <point x="259" y="435" type="curve"/>
      <point x="359" y="473" type="line"/>
      <point x="312" y="550"/>
      <point x="271" y="640"/>
      <point x="274" y="702" type="curve" smooth="yes"/>
      <point x="277" y="757"/>
      <point x="313" y="787"/>
      <point x="409" y="787" type="curve" smooth="yes"/>
      <point x="843" y="787" type="line"/>
      <point x="843" y="1172" type="line"/>
    </contour>
    <contour>
      <point x="-15" y="1262" type="line"/>
      <point x="-15" y="1129" type="line"/>
      <point x="1109" y="1129" type="line"/>
      <point x="1109" y="1262" type="line"/>
    </contour>
    <contour>
      <point x="765" y="1168" type="move" name="top"/>
    </contour>
    <contour>
      <point x="655" y="-300" type="move" name="bottom"/>
    </contour>
    <contour>
      <point x="520" y="1168" type="move" name="topcandra"/>
    </contour>
  </outline>
</glyph>
